SplineFontDB: 3.0
FontName: Fondamento-Regular
FullName: Fondamento Regular
FamilyName: Fondamento
Weight: Regular
Copyright: Copyright (c) 2011 by Brian J. Bonislawsky DBA Astigmatic (AOETI) (astigma@astigmatic.com), with Reserved\nFont Name "Fondamento"
Version: 1.000
ItalicAngle: 0
UnderlinePosition: -113
UnderlineWidth: 20
Ascent: 1638
Descent: 410
sfntRevision: 0x00010000
LayerCount: 2
Layer: 0 1 "Back"  1
Layer: 1 1 "Fore"  0
XUID: [1021 288 713564382 13958972]
FSType: 0
OS2Version: 3
OS2_WeightWidthSlopeOnly: 0
OS2_UseTypoMetrics: 1
CreationTime: 1321201200
ModificationTime: 1321295582
PfmFamily: 65
TTFWeight: 400
TTFWidth: 5
LineGap: 0
VLineGap: 0
Panose: 3 2 5 5 0 0 0 2 0 4
OS2TypoAscent: 422
OS2TypoAOffset: 1
OS2TypoDescent: -364
OS2TypoDOffset: 1
OS2TypoLinegap: 0
OS2WinAscent: 0
OS2WinAOffset: 1
OS2WinDescent: 0
OS2WinDOffset: 1
HheadAscent: 0
HheadAOffset: 1
HheadDescent: 0
HheadDOffset: 1
OS2SubXSize: 700
OS2SubYSize: 650
OS2SubXOff: 0
OS2SubYOff: 140
OS2SupXSize: 700
OS2SupYSize: 650
OS2SupXOff: 0
OS2SupYOff: 477
OS2StrikeYSize: 102
OS2StrikeYPos: 512
OS2Vendor: 'AOEF'
OS2CodePages: 00000093.00000000
OS2UnicodeRanges: a00000ef.4000004a.00000000.00000000
Lookup: 1 0 0 "'aalt' Access All Alternates in Latin lookup 0"  {"'aalt' Access All Alternates in Latin lookup 0 subtable"  } ['aalt' ('latn' <'dflt' > ) ]
Lookup: 1 0 0 "'sups' Superscript in Latin lookup 1"  {"'sups' Superscript in Latin lookup 1 subtable" ("superior" ) } ['sups' ('latn' <'dflt' > ) ]
Lookup: 4 0 1 "'liga' Standard Ligatures in Latin lookup 2"  {"'liga' Standard Ligatures in Latin lookup 2 subtable"  } ['liga' ('latn' <'dflt' > ) ]
Lookup: 6 0 0 "'ordn' Ordinals in Latin lookup 3"  {"'ordn' Ordinals in Latin lookup 3 subtable"  } ['ordn' ('latn' <'dflt' > ) ]

StartChar: exclam
Encoding: 33 33 4
Width: 547
GlyphClass: 2
Flags: W
LayerCount: 2
Fore
SplineSet
342 1465 m 0,0,1
 384 1465 384 1465 384 1372 c 0,2,3
 384 1348 384 1348 378 1249 c 0,4,5
 367 1059 367 1059 357.5 874.5 c 128,-1,6
 348 690 348 690 334 433 c 0,7,8
 333 421 333 421 287 397 c 0,9,10
 195 349 195 349 188 338 c 1,11,-1
 185 1280 l 2,12,13
 185 1336 185 1336 153 1336 c 0,14,15
 141 1336 141 1336 89 1288 c 1,16,-1
 88 1301 l 1,17,18
 200 1400 200 1400 309 1455 c 0,19,20
 329 1465 329 1465 342 1465 c 0,0,1
415 106 m 1,21,-1
 221 -30 l 1,22,-1
 116 137 l 1,23,-1
 311 273 l 1,24,-1
 415 106 l 1,21,-1
EndSplineSet
EndChar

StartChar: quotedbl
Encoding: 34 34 5
Width: 699
GlyphClass: 2
Flags: W
LayerCount: 2
Fore
SplineSet
579 1465 m 0,0,1
 621 1465 621 1465 621 1372 c 0,2,3
 621 1280 621 1280 571 1150 c 0,4,5
 555 1109 555 1109 519.5 1058.5 c 128,-1,6
 484 1008 484 1008 464 980 c 1,7,8
 462 995 462 995 459.5 1027 c 128,-1,9
 457 1059 457 1059 452.5 1099 c 128,-1,10
 448 1139 448 1139 441.5 1181.5 c 128,-1,11
 435 1224 435 1224 425 1259 c 0,12,13
 402 1338 402 1338 368 1338 c 1,14,15
 432 1418 432 1418 521 1453 c 0,16,17
 551 1465 551 1465 579 1465 c 0,0,1
279 1465 m 0,18,19
 321 1465 321 1465 321 1372 c 0,20,21
 321 1280 321 1280 271 1150 c 0,22,23
 255 1109 255 1109 219.5 1058.5 c 128,-1,24
 184 1008 184 1008 164 980 c 1,25,26
 162 995 162 995 159.5 1027 c 128,-1,27
 157 1059 157 1059 152.5 1099 c 128,-1,28
 148 1139 148 1139 141.5 1181.5 c 128,-1,29
 135 1224 135 1224 125 1259 c 0,30,31
 102 1338 102 1338 68 1338 c 1,32,33
 132 1418 132 1418 221 1453 c 0,34,35
 251 1465 251 1465 279 1465 c 0,18,19
EndSplineSet
PairPos2: "'kern' Horizontal Kerning in Latin lookup 0 per glyph data 1" guilsinglleft dx=0 dy=0 dh=-33 dv=0 dx=0 dy=0 dh=0 dv=0
PairPos2: "'kern' Horizontal Kerning in Latin lookup 0 per glyph data 1" ellipsis dx=0 dy=0 dh=-235 dv=0 dx=0 dy=0 dh=0 dv=0
PairPos2: "'kern' Horizontal Kerning in Latin lookup 0 per glyph data 1" quotedblbase dx=0 dy=0 dh=-239 dv=0 dx=0 dy=0 dh=0 dv=0
PairPos2: "'kern' Horizontal Kerning in Latin lookup 0 per glyph data 1" quotesinglbase dx=0 dy=0 dh=-239 dv=0 dx=0 dy=0 dh=0 dv=0
PairPos2: "'kern' Horizontal Kerning in Latin lookup 0 per glyph data 1" Ygrave dx=0 dy=0 dh=79 dv=0 dx=0 dy=0 dh=0 dv=0
PairPos2: "'kern' Horizontal Kerning in Latin lookup 0 per glyph data 1" Wdieresis dx=0 dy=0 dh=60 dv=0 dx=0 dy=0 dh=0 dv=0
PairPos2: "'kern' Horizontal Kerning in Latin lookup 0 per glyph data 1" Wacute dx=0 dy=0 dh=60 dv=0 dx=0 dy=0 dh=0 dv=0
PairPos2: "'kern' Horizontal Kerning in Latin lookup 0 per glyph data 1" Wgrave dx=0 dy=0 dh=60 dv=0 dx=0 dy=0 dh=0 dv=0
PairPos2: "'kern' Horizontal Kerning in Latin lookup 0 per glyph data 1" oslashacute dx=0 dy=0 dh=-28 dv=0 dx=0 dy=0 dh=0 dv=0
PairPos2: "'kern' Horizontal Kerning in Latin lookup 0 per glyph data 1" Oslashacute dx=0 dy=0 dh=-21 dv=0 dx=0 dy=0 dh=0 dv=0
PairPos2: "'kern' Horizontal Kerning in Latin lookup 0 per glyph data 1" aeacute dx=0 dy=0 dh=-17 dv=0 dx=0 dy=0 dh=0 dv=0
PairPos2: "'kern' Horizontal Kerning in Latin lookup 0 per glyph data 1" AEacute dx=0 dy=0 dh=-24 dv=0 dx=0 dy=0 dh=0 dv=0
PairPos2: "'kern' Horizontal Kerning in Latin lookup 0 per glyph data 1" Ydieresis dx=0 dy=0 dh=79 dv=0 dx=0 dy=0 dh=0 dv=0
PairPos2: "'kern' Horizontal Kerning in Latin lookup 0 per glyph data 1" Ycircumflex dx=0 dy=0 dh=79 dv=0 dx=0 dy=0 dh=0 dv=0
PairPos2: "'kern' Horizontal Kerning in Latin lookup 0 per glyph data 1" Wcircumflex dx=0 dy=0 dh=60 dv=0 dx=0 dy=0 dh=0 dv=0
PairPos2: "'kern' Horizontal Kerning in Latin lookup 0 per glyph data 1" scaron dx=0 dy=0 dh=-17 dv=0 dx=0 dy=0 dh=0 dv=0
PairPos2: "'kern' Horizontal Kerning in Latin lookup 0 per glyph data 1" scedilla dx=0 dy=0 dh=-17 dv=0 dx=0 dy=0 dh=0 dv=0
PairPos2: "'kern' Horizontal Kerning in Latin lookup 0 per glyph data 1" scircumflex dx=0 dy=0 dh=-17 dv=0 dx=0 dy=0 dh=0 dv=0
PairPos2: "'kern' Horizontal Kerning in Latin lookup 0 per glyph data 1" sacute dx=0 dy=0 dh=-17 dv=0 dx=0 dy=0 dh=0 dv=0
PairPos2: "'kern' Horizontal Kerning in Latin lookup 0 per glyph data 1" oe dx=0 dy=0 dh=-28 dv=0 dx=0 dy=0 dh=0 dv=0
PairPos2: "'kern' Horizontal Kerning in Latin lookup 0 per glyph data 1" OE dx=0 dy=0 dh=-21 dv=0 dx=0 dy=0 dh=0 dv=0
PairPos2: "'kern' Horizontal Kerning in Latin lookup 0 per glyph data 1" ohungarumlaut dx=0 dy=0 dh=-28 dv=0 dx=0 dy=0 dh=0 dv=0
PairPos2: "'kern' Horizontal Kerning in Latin lookup 0 per glyph data 1" Ohungarumlaut dx=0 dy=0 dh=-21 dv=0 dx=0 dy=0 dh=0 dv=0
PairPos2: "'kern' Horizontal Kerning in Latin lookup 0 per glyph data 1" obreve dx=0 dy=0 dh=-28 dv=0 dx=0 dy=0 dh=0 dv=0
PairPos2: "'kern' Horizontal Kerning in Latin lookup 0 per glyph data 1" Obreve dx=0 dy=0 dh=-21 dv=0 dx=0 dy=0 dh=0 dv=0
PairPos2: "'kern' Horizontal Kerning in Latin lookup 0 per glyph data 1" omacron dx=0 dy=0 dh=-28 dv=0 dx=0 dy=0 dh=0 dv=0
PairPos2: "'kern' Horizontal Kerning in Latin lookup 0 per glyph data 1" Omacron dx=0 dy=0 dh=-21 dv=0 dx=0 dy=0 dh=0 dv=0
PairPos2: "'kern' Horizontal Kerning in Latin lookup 0 per glyph data 1" gcommaaccent dx=0 dy=0 dh=-25 dv=0 dx=0 dy=0 dh=0 dv=0
PairPos2: "'kern' Horizontal Kerning in Latin lookup 0 per glyph data 1" Gcommaaccent dx=0 dy=0 dh=-16 dv=0 dx=0 dy=0 dh=0 dv=0
PairPos2: "'kern' Horizontal Kerning in Latin lookup 0 per glyph data 1" gdotaccent dx=0 dy=0 dh=-25 dv=0 dx=0 dy=0 dh=0 dv=0
PairPos2: "'kern' Horizontal Kerning in Latin lookup 0 per glyph data 1" Gdotaccent dx=0 dy=0 dh=-16 dv=0 dx=0 dy=0 dh=0 dv=0
PairPos2: "'kern' Horizontal Kerning in Latin lookup 0 per glyph data 1" gbreve dx=0 dy=0 dh=-25 dv=0 dx=0 dy=0 dh=0 dv=0
PairPos2: "'kern' Horizontal Kerning in Latin lookup 0 per glyph data 1" Gbreve dx=0 dy=0 dh=-16 dv=0 dx=0 dy=0 dh=0 dv=0
PairPos2: "'kern' Horizontal Kerning in Latin lookup 0 per glyph data 1" gcircumflex dx=0 dy=0 dh=-25 dv=0 dx=0 dy=0 dh=0 dv=0
PairPos2: "'kern' Horizontal Kerning in Latin lookup 0 per glyph data 1" Gcircumflex dx=0 dy=0 dh=-16 dv=0 dx=0 dy=0 dh=0 dv=0
PairPos2: "'kern' Horizontal Kerning in Latin lookup 0 per glyph data 1" ecaron dx=0 dy=0 dh=-30 dv=0 dx=0 dy=0 dh=0 dv=0
PairPos2: "'kern' Horizontal Kerning in Latin lookup 0 per glyph data 1" eogonek dx=0 dy=0 dh=-30 dv=0 dx=0 dy=0 dh=0 dv=0
PairPos2: "'kern' Horizontal Kerning in Latin lookup 0 per glyph data 1" edotaccent dx=0 dy=0 dh=-30 dv=0 dx=0 dy=0 dh=0 dv=0
PairPos2: "'kern' Horizontal Kerning in Latin lookup 0 per glyph data 1" ebreve dx=0 dy=0 dh=-30 dv=0 dx=0 dy=0 dh=0 dv=0
PairPos2: "'kern' Horizontal Kerning in Latin lookup 0 per glyph data 1" emacron dx=0 dy=0 dh=-30 dv=0 dx=0 dy=0 dh=0 dv=0
PairPos2: "'kern' Horizontal Kerning in Latin lookup 0 per glyph data 1" dcaron dx=0 dy=0 dh=-28 dv=0 dx=0 dy=0 dh=0 dv=0
PairPos2: "'kern' Horizontal Kerning in Latin lookup 0 per glyph data 1" ccaron dx=0 dy=0 dh=-31 dv=0 dx=0 dy=0 dh=0 dv=0
PairPos2: "'kern' Horizontal Kerning in Latin lookup 0 per glyph data 1" Ccaron dx=0 dy=0 dh=-21 dv=0 dx=0 dy=0 dh=0 dv=0
PairPos2: "'kern' Horizontal Kerning in Latin lookup 0 per glyph data 1" cdotaccent dx=0 dy=0 dh=-31 dv=0 dx=0 dy=0 dh=0 dv=0
PairPos2: "'kern' Horizontal Kerning in Latin lookup 0 per glyph data 1" Cdotaccent dx=0 dy=0 dh=-21 dv=0 dx=0 dy=0 dh=0 dv=0
PairPos2: "'kern' Horizontal Kerning in Latin lookup 0 per glyph data 1" ccircumflex dx=0 dy=0 dh=-31 dv=0 dx=0 dy=0 dh=0 dv=0
PairPos2: "'kern' Horizontal Kerning in Latin lookup 0 per glyph data 1" Ccircumflex dx=0 dy=0 dh=-21 dv=0 dx=0 dy=0 dh=0 dv=0
PairPos2: "'kern' Horizontal Kerning in Latin lookup 0 per glyph data 1" cacute dx=0 dy=0 dh=-31 dv=0 dx=0 dy=0 dh=0 dv=0
PairPos2: "'kern' Horizontal Kerning in Latin lookup 0 per glyph data 1" Cacute dx=0 dy=0 dh=-21 dv=0 dx=0 dy=0 dh=0 dv=0
PairPos2: "'kern' Horizontal Kerning in Latin lookup 0 per glyph data 1" aogonek dx=0 dy=0 dh=-17 dv=0 dx=0 dy=0 dh=0 dv=0
PairPos2: "'kern' Horizontal Kerning in Latin lookup 0 per glyph data 1" Aogonek dx=0 dy=0 dh=-24 dv=0 dx=0 dy=0 dh=0 dv=0
PairPos2: "'kern' Horizontal Kerning in Latin lookup 0 per glyph data 1" abreve dx=0 dy=0 dh=-17 dv=0 dx=0 dy=0 dh=0 dv=0
PairPos2: "'kern' Horizontal Kerning in Latin lookup 0 per glyph data 1" Abreve dx=0 dy=0 dh=-24 dv=0 dx=0 dy=0 dh=0 dv=0
PairPos2: "'kern' Horizontal Kerning in Latin lookup 0 per glyph data 1" amacron dx=0 dy=0 dh=-17 dv=0 dx=0 dy=0 dh=0 dv=0
PairPos2: "'kern' Horizontal Kerning in Latin lookup 0 per glyph data 1" Amacron dx=0 dy=0 dh=-24 dv=0 dx=0 dy=0 dh=0 dv=0
PairPos2: "'kern' Horizontal Kerning in Latin lookup 0 per glyph data 1" oslash dx=0 dy=0 dh=-28 dv=0 dx=0 dy=0 dh=0 dv=0
PairPos2: "'kern' Horizontal Kerning in Latin lookup 0 per glyph data 1" odieresis dx=0 dy=0 dh=-28 dv=0 dx=0 dy=0 dh=0 dv=0
PairPos2: "'kern' Horizontal Kerning in Latin lookup 0 per glyph data 1" otilde dx=0 dy=0 dh=-28 dv=0 dx=0 dy=0 dh=0 dv=0
PairPos2: "'kern' Horizontal Kerning in Latin lookup 0 per glyph data 1" ocircumflex dx=0 dy=0 dh=-28 dv=0 dx=0 dy=0 dh=0 dv=0
PairPos2: "'kern' Horizontal Kerning in Latin lookup 0 per glyph data 1" oacute dx=0 dy=0 dh=-28 dv=0 dx=0 dy=0 dh=0 dv=0
PairPos2: "'kern' Horizontal Kerning in Latin lookup 0 per glyph data 1" ograve dx=0 dy=0 dh=-28 dv=0 dx=0 dy=0 dh=0 dv=0
PairPos2: "'kern' Horizontal Kerning in Latin lookup 0 per glyph data 1" eth dx=0 dy=0 dh=-28 dv=0 dx=0 dy=0 dh=0 dv=0
PairPos2: "'kern' Horizontal Kerning in Latin lookup 0 per glyph data 1" edieresis dx=0 dy=0 dh=-30 dv=0 dx=0 dy=0 dh=0 dv=0
PairPos2: "'kern' Horizontal Kerning in Latin lookup 0 per glyph data 1" ecircumflex dx=0 dy=0 dh=-30 dv=0 dx=0 dy=0 dh=0 dv=0
PairPos2: "'kern' Horizontal Kerning in Latin lookup 0 per glyph data 1" eacute dx=0 dy=0 dh=-30 dv=0 dx=0 dy=0 dh=0 dv=0
PairPos2: "'kern' Horizontal Kerning in Latin lookup 0 per glyph data 1" egrave dx=0 dy=0 dh=-30 dv=0 dx=0 dy=0 dh=0 dv=0
PairPos2: "'kern' Horizontal Kerning in Latin lookup 0 per glyph data 1" ccedilla dx=0 dy=0 dh=-31 dv=0 dx=0 dy=0 dh=0 dv=0
PairPos2: "'kern' Horizontal Kerning in Latin lookup 0 per glyph data 1" ae dx=0 dy=0 dh=-17 dv=0 dx=0 dy=0 dh=0 dv=0
PairPos2: "'kern' Horizontal Kerning in Latin lookup 0 per glyph data 1" aring dx=0 dy=0 dh=-17 dv=0 dx=0 dy=0 dh=0 dv=0
PairPos2: "'kern' Horizontal Kerning in Latin lookup 0 per glyph data 1" adieresis dx=0 dy=0 dh=-17 dv=0 dx=0 dy=0 dh=0 dv=0
PairPos2: "'kern' Horizontal Kerning in Latin lookup 0 per glyph data 1" atilde dx=0 dy=0 dh=-17 dv=0 dx=0 dy=0 dh=0 dv=0
PairPos2: "'kern' Horizontal Kerning in Latin lookup 0 per glyph data 1" acircumflex dx=0 dy=0 dh=-17 dv=0 dx=0 dy=0 dh=0 dv=0
PairPos2: "'kern' Horizontal Kerning in Latin lookup 0 per glyph data 1" aacute dx=0 dy=0 dh=-17 dv=0 dx=0 dy=0 dh=0 dv=0
PairPos2: "'kern' Horizontal Kerning in Latin lookup 0 per glyph data 1" agrave dx=0 dy=0 dh=-17 dv=0 dx=0 dy=0 dh=0 dv=0
PairPos2: "'kern' Horizontal Kerning in Latin lookup 0 per glyph data 1" Yacute dx=0 dy=0 dh=79 dv=0 dx=0 dy=0 dh=0 dv=0
PairPos2: "'kern' Horizontal Kerning in Latin lookup 0 per glyph data 1" Oslash dx=0 dy=0 dh=-21 dv=0 dx=0 dy=0 dh=0 dv=0
PairPos2: "'kern' Horizontal Kerning in Latin lookup 0 per glyph data 1" Odieresis dx=0 dy=0 dh=-21 dv=0 dx=0 dy=0 dh=0 dv=0
PairPos2: "'kern' Horizontal Kerning in Latin lookup 0 per glyph data 1" Otilde dx=0 dy=0 dh=-21 dv=0 dx=0 dy=0 dh=0 dv=0
PairPos2: "'kern' Horizontal Kerning in Latin lookup 0 per glyph data 1" Ocircumflex dx=0 dy=0 dh=-21 dv=0 dx=0 dy=0 dh=0 dv=0
PairPos2: "'kern' Horizontal Kerning in Latin lookup 0 per glyph data 1" Oacute dx=0 dy=0 dh=-21 dv=0 dx=0 dy=0 dh=0 dv=0
PairPos2: "'kern' Horizontal Kerning in Latin lookup 0 per glyph data 1" Ograve dx=0 dy=0 dh=-21 dv=0 dx=0 dy=0 dh=0 dv=0
PairPos2: "'kern' Horizontal Kerning in Latin lookup 0 per glyph data 1" Ccedilla dx=0 dy=0 dh=-21 dv=0 dx=0 dy=0 dh=0 dv=0
PairPos2: "'kern' Horizontal Kerning in Latin lookup 0 per glyph data 1" AE dx=0 dy=0 dh=-24 dv=0 dx=0 dy=0 dh=0 dv=0
PairPos2: "'kern' Horizontal Kerning in Latin lookup 0 per glyph data 1" Aring dx=0 dy=0 dh=-24 dv=0 dx=0 dy=0 dh=0 dv=0
PairPos2: "'kern' Horizontal Kerning in Latin lookup 0 per glyph data 1" Adieresis dx=0 dy=0 dh=-24 dv=0 dx=0 dy=0 dh=0 dv=0
PairPos2: "'kern' Horizontal Kerning in Latin lookup 0 per glyph data 1" Atilde dx=0 dy=0 dh=-24 dv=0 dx=0 dy=0 dh=0 dv=0
PairPos2: "'kern' Horizontal Kerning in Latin lookup 0 per glyph data 1" Acircumflex dx=0 dy=0 dh=-24 dv=0 dx=0 dy=0 dh=0 dv=0
PairPos2: "'kern' Horizontal Kerning in Latin lookup 0 per glyph data 1" Aacute dx=0 dy=0 dh=-24 dv=0 dx=0 dy=0 dh=0 dv=0
PairPos2: "'kern' Horizontal Kerning in Latin lookup 0 per glyph data 1" Agrave dx=0 dy=0 dh=-24 dv=0 dx=0 dy=0 dh=0 dv=0
PairPos2: "'kern' Horizontal Kerning in Latin lookup 0 per glyph data 1" guillemotleft dx=0 dy=0 dh=-33 dv=0 dx=0 dy=0 dh=0 dv=0
PairPos2: "'kern' Horizontal Kerning in Latin lookup 0 per glyph data 1" s dx=0 dy=0 dh=-17 dv=0 dx=0 dy=0 dh=0 dv=0
PairPos2: "'kern' Horizontal Kerning in Latin lookup 0 per glyph data 1" q dx=0 dy=0 dh=-28 dv=0 dx=0 dy=0 dh=0 dv=0
PairPos2: "'kern' Horizontal Kerning in Latin lookup 0 per glyph data 1" o dx=0 dy=0 dh=-28 dv=0 dx=0 dy=0 dh=0 dv=0
PairPos2: "'kern' Horizontal Kerning in Latin lookup 0 per glyph data 1" g dx=0 dy=0 dh=-25 dv=0 dx=0 dy=0 dh=0 dv=0
PairPos2: "'kern' Horizontal Kerning in Latin lookup 0 per glyph data 1" e dx=0 dy=0 dh=-30 dv=0 dx=0 dy=0 dh=0 dv=0
PairPos2: "'kern' Horizontal Kerning in Latin lookup 0 per glyph data 1" d dx=0 dy=0 dh=-28 dv=0 dx=0 dy=0 dh=0 dv=0
PairPos2: "'kern' Horizontal Kerning in Latin lookup 0 per glyph data 1" c dx=0 dy=0 dh=-31 dv=0 dx=0 dy=0 dh=0 dv=0
PairPos2: "'kern' Horizontal Kerning in Latin lookup 0 per glyph data 1" b dx=0 dy=0 dh=28 dv=0 dx=0 dy=0 dh=0 dv=0
PairPos2: "'kern' Horizontal Kerning in Latin lookup 0 per glyph data 1" a dx=0 dy=0 dh=-17 dv=0 dx=0 dy=0 dh=0 dv=0
PairPos2: "'kern' Horizontal Kerning in Latin lookup 0 per glyph data 1" Y dx=0 dy=0 dh=79 dv=0 dx=0 dy=0 dh=0 dv=0
PairPos2: "'kern' Horizontal Kerning in Latin lookup 0 per glyph data 1" W dx=0 dy=0 dh=60 dv=0 dx=0 dy=0 dh=0 dv=0
PairPos2: "'kern' Horizontal Kerning in Latin lookup 0 per glyph data 1" V dx=0 dy=0 dh=52 dv=0 dx=0 dy=0 dh=0 dv=0
PairPos2: "'kern' Horizontal Kerning in Latin lookup 0 per glyph data 1" Q dx=0 dy=0 dh=-19 dv=0 dx=0 dy=0 dh=0 dv=0
PairPos2: "'kern' Horizontal Kerning in Latin lookup 0 per glyph data 1" O dx=0 dy=0 dh=-21 dv=0 dx=0 dy=0 dh=0 dv=0
PairPos2: "'kern' Horizontal Kerning in Latin lookup 0 per glyph data 1" G dx=0 dy=0 dh=-16 dv=0 dx=0 dy=0 dh=0 dv=0
PairPos2: "'kern' Horizontal Kerning in Latin lookup 0 per glyph data 1" C dx=0 dy=0 dh=-21 dv=0 dx=0 dy=0 dh=0 dv=0
PairPos2: "'kern' Horizontal Kerning in Latin lookup 0 per glyph data 1" A dx=0 dy=0 dh=-24 dv=0 dx=0 dy=0 dh=0 dv=0
PairPos2: "'kern' Horizontal Kerning in Latin lookup 0 per glyph data 1" at dx=0 dy=0 dh=-93 dv=0 dx=0 dy=0 dh=0 dv=0
PairPos2: "'kern' Horizontal Kerning in Latin lookup 0 per glyph data 1" nine dx=0 dy=0 dh=-40 dv=0 dx=0 dy=0 dh=0 dv=0
PairPos2: "'kern' Horizontal Kerning in Latin lookup 0 per glyph data 1" five dx=0 dy=0 dh=-32 dv=0 dx=0 dy=0 dh=0 dv=0
PairPos2: "'kern' Horizontal Kerning in Latin lookup 0 per glyph data 1" four dx=0 dy=0 dh=-148 dv=0 dx=0 dy=0 dh=0 dv=0
PairPos2: "'kern' Horizontal Kerning in Latin lookup 0 per glyph data 1" three dx=0 dy=0 dh=-21 dv=0 dx=0 dy=0 dh=0 dv=0
PairPos2: "'kern' Horizontal Kerning in Latin lookup 0 per glyph data 1" slash dx=0 dy=0 dh=-99 dv=0 dx=0 dy=0 dh=0 dv=0
PairPos2: "'kern' Horizontal Kerning in Latin lookup 0 per glyph data 1" period dx=0 dy=0 dh=-235 dv=0 dx=0 dy=0 dh=0 dv=0
PairPos2: "'kern' Horizontal Kerning in Latin lookup 0 per glyph data 1" comma dx=0 dy=0 dh=-239 dv=0 dx=0 dy=0 dh=0 dv=0
PairPos2: "'kern' Horizontal Kerning in Latin lookup 0 per glyph data 1" ampersand dx=0 dy=0 dh=-48 dv=0 dx=0 dy=0 dh=0 dv=0
EndChar

StartChar: numbersign
Encoding: 35 35 6
Width: 1074
GlyphClass: 2
Flags: W
LayerCount: 2
Fore
SplineSet
1011 753 m 1,0,1
 997 750 997 750 945 704 c 0,2,3
 845 617 845 617 817 617 c 2,4,-1
 749 617 l 1,5,6
 738 567 738 567 726 517.5 c 128,-1,7
 714 468 714 468 702 417 c 1,8,-1
 952 417 l 1,9,10
 938 414 938 414 886 368 c 0,11,12
 786 281 786 281 758 281 c 2,13,-1
 669 281 l 1,14,15
 655 221 655 221 645 179 c 0,16,17
 615 52 615 52 596.5 36 c 128,-1,18
 578 20 578 20 557.5 7 c 128,-1,19
 537 -6 537 -6 513.5 -19 c 128,-1,20
 490 -32 490 -32 470 -44 c 1,21,22
 422 -70 422 -70 417 -80 c 1,23,24
 440 11 440 11 463 100.5 c 128,-1,25
 486 190 486 190 508 281 c 1,26,-1
 413 281 l 1,27,28
 400 229 400 229 385.5 167.5 c 128,-1,29
 371 106 371 106 360.5 75.5 c 128,-1,30
 350 45 350 45 335 32.5 c 128,-1,31
 320 20 320 20 299.5 7 c 128,-1,32
 279 -6 279 -6 256 -19 c 128,-1,33
 233 -32 233 -32 212 -44 c 0,34,35
 165 -70 165 -70 160 -80 c 1,36,37
 208 94 208 94 253 281 c 1,38,-1
 56 281 l 1,39,40
 72 283 72 283 119 325.5 c 128,-1,41
 166 368 166 368 185 382 c 0,42,43
 230 417 230 417 250 417 c 2,44,-1
 285 417 l 1,45,46
 300 482 300 482 330 617 c 1,47,-1
 115 617 l 1,48,49
 128 619 128 619 177 661.5 c 128,-1,50
 226 704 226 704 245 718 c 0,51,52
 290 753 290 753 310 753 c 2,53,-1
 358 753 l 1,54,55
 376 841 376 841 382 874 c 128,-1,56
 388 907 388 907 390 924 c 128,-1,57
 392 941 392 941 396 954.5 c 128,-1,58
 400 968 400 968 414.5 980.5 c 128,-1,59
 429 993 429 993 449.5 1006 c 128,-1,60
 470 1019 470 1019 494 1032.5 c 128,-1,61
 518 1046 518 1046 538 1058 c 0,62,63
 587 1087 587 1087 591 1094 c 1,64,65
 569 969 569 969 524 753 c 1,66,-1
 614 753 l 1,67,68
 621 788 621 788 627.5 821.5 c 128,-1,69
 634 855 634 855 639 881 c 128,-1,70
 644 907 644 907 646.5 924 c 128,-1,71
 649 941 649 941 653 954.5 c 128,-1,72
 657 968 657 968 671.5 980.5 c 128,-1,73
 686 993 686 993 706.5 1006 c 128,-1,74
 727 1019 727 1019 751 1032.5 c 128,-1,75
 775 1046 775 1046 796 1058 c 0,76,77
 844 1087 844 1087 848 1094 c 1,78,79
 814 912 814 912 779 753 c 1,80,-1
 1011 753 l 1,0,1
585 617 m 1,81,-1
 494 617 l 1,82,83
 483 566 483 566 471 517 c 128,-1,84
 459 468 459 468 447 417 c 1,85,-1
 540 417 l 1,86,87
 551 468 551 468 562.5 517.5 c 128,-1,88
 574 567 574 567 585 617 c 1,81,-1
EndSplineSet
EndChar

StartChar: dollar
Encoding: 36 36 7
Width: 1067
GlyphClass: 2
Flags: W
LayerCount: 2
Fore
SplineSet
290 428 m 1,0,1
 264 405 264 405 264 381.5 c 128,-1,2
 264 358 264 358 280.5 342.5 c 128,-1,3
 297 327 297 327 323 315.5 c 128,-1,4
 349 304 349 304 381.5 296.5 c 128,-1,5
 414 289 414 289 445 284 c 0,6,7
 504 276 504 276 541 276 c 128,-1,8
 578 276 578 276 618 277 c 128,-1,9
 658 278 658 278 692 291 c 0,10,11
 771 321 771 321 771 425 c 0,12,13
 771 559 771 559 573 616 c 0,14,15
 517 632 517 632 458 647 c 128,-1,16
 399 662 399 662 343 679 c 128,-1,17
 287 696 287 696 243 722 c 0,18,19
 145 780 145 780 145 879 c 0,20,21
 145 1000 145 1000 320 1136 c 0,22,23
 379 1183 379 1183 448 1222 c 1,24,-1
 448 1390 l 2,25,26
 448 1408 448 1408 509 1443 c 128,-1,27
 570 1478 570 1478 601.5 1496 c 128,-1,28
 633 1514 633 1514 642 1526 c 1,29,-1
 642 1287 l 1,30,31
 656 1286 656 1286 669 1286 c 2,32,-1
 696 1286 l 2,33,34
 757 1286 757 1286 823 1271 c 128,-1,35
 889 1256 889 1256 916 1245 c 0,36,37
 977 1220 977 1220 977 1190 c 0,38,39
 977 1129 977 1129 854 1052 c 0,40,41
 839 1042 839 1042 812 1029 c 0,42,43
 766 1005 766 1005 754 989 c 1,44,45
 781 1031 781 1031 781 1054 c 0,46,47
 781 1112 781 1112 600 1141 c 0,48,49
 538 1151 538 1151 510 1151 c 128,-1,50
 482 1151 482 1151 453 1148.5 c 128,-1,51
 424 1146 424 1146 399 1133 c 0,52,53
 340 1102 340 1102 340 1020 c 0,54,55
 340 917 340 917 436 858 c 0,56,57
 488 826 488 826 567 811 c 128,-1,58
 646 796 646 796 696 784 c 0,59,60
 817 755 817 755 867 717 c 128,-1,61
 917 679 917 679 941.5 642.5 c 128,-1,62
 966 606 966 606 966 554 c 128,-1,63
 966 502 966 502 932.5 448 c 128,-1,64
 899 394 899 394 850 347 c 0,65,66
 755 257 755 257 642 203 c 1,67,-1
 642 35 l 1,68,69
 560 -33 560 -33 535 -47 c 2,70,-1
 495 -70 l 2,71,72
 459 -90 459 -90 448 -101 c 1,73,-1
 448 138 l 1,74,-1
 348 138 l 2,75,76
 219 138 219 138 130 180 c 0,77,78
 72 207 72 207 72 245 c 0,79,80
 72 278 72 278 105 304.5 c 128,-1,81
 138 331 138 331 162.5 346 c 128,-1,82
 187 361 187 361 212 376 c 0,83,84
 275 413 275 413 290 428 c 1,0,1
EndSplineSet
EndChar

StartChar: percent
Encoding: 37 37 8
Width: 1940
GlyphClass: 3
Flags: W
LayerCount: 2
Fore
SplineSet
1871 523 m 0,0,1
 1871 283 1871 283 1645 115 c 0,2,3
 1616 94 1616 94 1583.5 70 c 128,-1,4
 1551 46 1551 46 1516 26 c 0,5,6
 1363 -59 1363 -59 1232 13 c 0,7,8
 1117 76 1117 76 1076 216 c 0,9,10
 1056 283 1056 283 1056 367 c 0,11,12
 1056 546 1056 546 1197 691 c 0,13,14
 1225 719 1225 719 1260 741.5 c 128,-1,15
 1295 764 1295 764 1325 784 c 128,-1,16
 1355 804 1355 804 1383 822.5 c 128,-1,17
 1411 841 1411 841 1440 855 c 0,18,19
 1508 887 1508 887 1573.5 887 c 128,-1,20
 1639 887 1639 887 1695.5 854.5 c 128,-1,21
 1752 822 1752 822 1791 770 c 0,22,23
 1871 665 1871 665 1871 523 c 0,0,1
1397 1637 m 1,24,25
 1331 1304 1331 1304 1151 942 c 0,26,27
 858 355 858 355 555 -12 c 0,28,29
 506 -71 506 -71 470.5 -93.5 c 128,-1,30
 435 -116 435 -116 410 -130 c 0,31,32
 342 -169 342 -169 316 -194 c 1,33,34
 682 246 682 246 962 819 c 0,35,36
 1134 1170 1134 1170 1195 1462 c 0,37,38
 1197 1470 1197 1470 1197.5 1482 c 128,-1,39
 1198 1494 1198 1494 1207 1508 c 128,-1,40
 1216 1522 1216 1522 1240.5 1539 c 128,-1,41
 1265 1556 1265 1556 1293 1572 c 128,-1,42
 1321 1588 1321 1588 1349 1604 c 128,-1,43
 1377 1620 1377 1620 1397 1637 c 1,24,25
890 1096 m 0,44,45
 890 856 890 856 664 688 c 1,46,47
 540 594 540 594 483 574 c 128,-1,48
 426 554 426 554 368.5 554 c 128,-1,49
 311 554 311 554 252 586 c 128,-1,50
 193 618 193 618 154 670 c 0,51,52
 75 775 75 775 75 926 c 0,53,54
 75 1120 75 1120 216 1263 c 0,55,56
 244 1292 244 1292 279 1314.5 c 128,-1,57
 314 1337 314 1337 344 1357 c 128,-1,58
 374 1377 374 1377 402 1395 c 128,-1,59
 430 1413 430 1413 460 1428 c 0,60,61
 527 1460 527 1460 569.5 1460 c 128,-1,62
 612 1460 612 1460 658 1448 c 128,-1,63
 704 1436 704 1436 750.5 1401.5 c 128,-1,64
 797 1367 797 1367 828 1320 c 0,65,66
 890 1224 890 1224 890 1096 c 0,44,45
1677 416 m 0,67,68
 1677 468 1677 468 1654 532.5 c 128,-1,69
 1631 597 1631 597 1588 646 c 0,70,71
 1496 753 1496 753 1351 753 c 0,72,73
 1338 753 1338 753 1324 751 c 1,74,75
 1249 644 1249 644 1249 489 c 0,76,77
 1249 347 1249 347 1330 237 c 0,78,79
 1419 115 1419 115 1558 115 c 0,80,81
 1577 115 1577 115 1597 118 c 1,82,83
 1677 226 1677 226 1677 416 c 0,67,68
696 989 m 0,84,85
 696 1041 696 1041 673 1105.5 c 128,-1,86
 650 1170 650 1170 608 1219 c 0,87,88
 515 1326 515 1326 370 1326 c 0,89,90
 356 1326 356 1326 343 1323 c 1,91,92
 268 1216 268 1216 268 1062 c 0,93,94
 268 918 268 918 349 809 c 0,95,96
 439 687 439 687 577 687 c 0,97,98
 596 687 596 687 616 691 c 1,99,100
 696 799 696 799 696 989 c 0,84,85
EndSplineSet
Ligature2: "Ligature Substitution lookup 7 subtable" zero fraction zero
Ligature2: "Ligature Substitution lookup 7 subtable" zero slash zero
EndChar

StartChar: ampersand
Encoding: 38 38 9
Width: 2171
GlyphClass: 2
Flags: W
LayerCount: 2
Fore
SplineSet
1415 442 m 1,0,1
 1539 625 1539 625 1539 807 c 0,2,3
 1539 911 1539 911 1497 1006 c 1,4,5
 1439 1014 1439 1014 1385 1014 c 0,6,7
 1264 1014 1264 1014 1183 972 c 1,8,9
 1305 1072 1305 1072 1355 1098 c 0,10,11
 1453 1149 1453 1149 1573 1149 c 0,12,13
 1645 1149 1645 1149 1740 1138 c 0,14,15
 1926 1115 1926 1115 1981 1115 c 0,16,17
 2081 1115 2081 1115 2150 1128 c 1,18,19
 2128 1121 2128 1121 2097 1091.5 c 128,-1,20
 2066 1062 2066 1062 2050 1050 c 0,21,22
 1985 1000 1985 1000 1944 990 c 0,23,24
 1870 972 1870 972 1732 980 c 1,25,26
 1734 962 1734 962 1734 942 c 0,27,28
 1734 661 1734 661 1459 401 c 1,29,30
 1494 369 1494 369 1534.5 332 c 128,-1,31
 1575 295 1575 295 1607 266 c 128,-1,32
 1639 237 1639 237 1667 212.5 c 128,-1,33
 1695 188 1695 188 1725 168 c 0,34,35
 1824 104 1824 104 1965 138 c 0,36,37
 2014 149 2014 149 2059 172 c 1,38,39
 1954 84 1954 84 1895 52 c 1,40,41
 1782 -12 1782 -12 1678 -12 c 0,42,43
 1544 -12 1544 -12 1362 172 c 0,44,45
 1317 218 1317 218 1277 255 c 1,46,47
 896 -22 896 -22 578 -22 c 0,48,49
 395 -22 395 -22 262 56 c 0,50,51
 103 148 103 148 103 319 c 0,52,53
 103 520 103 520 416 710 c 0,54,55
 460 737 460 737 500 760 c 1,56,57
 291 810 291 810 291 996 c 0,58,59
 291 1090 291 1090 391 1206 c 0,60,61
 484 1315 484 1315 613 1391 c 0,62,63
 747 1470 747 1470 840 1470 c 0,64,65
 959 1470 959 1470 1042 1400 c 0,66,67
 1130 1327 1130 1327 1130 1210 c 0,68,69
 1130 1014 1130 1014 872 847 c 1,70,71
 1055 775 1055 775 1292 555 c 0,72,73
 1355 496 1355 496 1415 442 c 1,0,1
931 1082 m 0,74,75
 931 1126 931 1126 911 1176 c 128,-1,76
 891 1226 891 1226 854 1262 c 0,77,78
 779 1335 779 1335 656 1335 c 0,79,80
 610 1335 610 1335 569 1325 c 1,81,82
 486 1225 486 1225 486 1124 c 0,83,84
 486 985 486 985 600 932 c 0,85,86
 658 906 658 906 723.5 891 c 128,-1,87
 789 876 789 876 826 864 c 1,88,89
 931 884 931 884 931 1082 c 0,74,75
1263 268 m 1,90,91
 1192 334 1192 334 1119 403 c 128,-1,92
 1046 472 1046 472 968 535 c 0,93,94
 787 680 787 680 624 730 c 1,95,96
 563 715 563 715 504 702 c 128,-1,97
 445 689 445 689 399 663 c 0,98,99
 297 605 297 605 297 466 c 0,100,101
 297 245 297 245 546 152 c 0,102,103
 645 115 645 115 730 115 c 128,-1,104
 815 115 815 115 884.5 125 c 128,-1,105
 954 135 954 135 1022 154 c 0,106,107
 1177 197 1177 197 1263 268 c 1,90,91
EndSplineSet
EndChar

StartChar: quotesingle
Encoding: 39 39 10
Width: 399
GlyphClass: 2
Flags: W
LayerCount: 2
Fore
SplineSet
279 1465 m 0,0,1
 321 1465 321 1465 321 1372 c 0,2,3
 321 1280 321 1280 271 1150 c 0,4,5
 255 1109 255 1109 219.5 1058.5 c 128,-1,6
 184 1008 184 1008 164 980 c 1,7,8
 162 995 162 995 159.5 1027 c 128,-1,9
 157 1059 157 1059 152.5 1099 c 128,-1,10
 148 1139 148 1139 141.5 1181.5 c 128,-1,11
 135 1224 135 1224 125 1259 c 0,12,13
 102 1338 102 1338 68 1338 c 1,14,15
 132 1418 132 1418 221 1453 c 0,16,17
 251 1465 251 1465 279 1465 c 0,0,1
EndSplineSet
PairPos2: "'kern' Horizontal Kerning in Latin lookup 0 per glyph data 1" guilsinglleft dx=0 dy=0 dh=-33 dv=0 dx=0 dy=0 dh=0 dv=0
PairPos2: "'kern' Horizontal Kerning in Latin lookup 0 per glyph data 1" ellipsis dx=0 dy=0 dh=-199 dv=0 dx=0 dy=0 dh=0 dv=0
PairPos2: "'kern' Horizontal Kerning in Latin lookup 0 per glyph data 1" quotedblbase dx=0 dy=0 dh=-199 dv=0 dx=0 dy=0 dh=0 dv=0
PairPos2: "'kern' Horizontal Kerning in Latin lookup 0 per glyph data 1" quotesinglbase dx=0 dy=0 dh=-199 dv=0 dx=0 dy=0 dh=0 dv=0
PairPos2: "'kern' Horizontal Kerning in Latin lookup 0 per glyph data 1" Ygrave dx=0 dy=0 dh=79 dv=0 dx=0 dy=0 dh=0 dv=0
PairPos2: "'kern' Horizontal Kerning in Latin lookup 0 per glyph data 1" Wdieresis dx=0 dy=0 dh=60 dv=0 dx=0 dy=0 dh=0 dv=0
PairPos2: "'kern' Horizontal Kerning in Latin lookup 0 per glyph data 1" Wacute dx=0 dy=0 dh=60 dv=0 dx=0 dy=0 dh=0 dv=0
PairPos2: "'kern' Horizontal Kerning in Latin lookup 0 per glyph data 1" Wgrave dx=0 dy=0 dh=60 dv=0 dx=0 dy=0 dh=0 dv=0
PairPos2: "'kern' Horizontal Kerning in Latin lookup 0 per glyph data 1" oslashacute dx=0 dy=0 dh=-28 dv=0 dx=0 dy=0 dh=0 dv=0
PairPos2: "'kern' Horizontal Kerning in Latin lookup 0 per glyph data 1" Oslashacute dx=0 dy=0 dh=-21 dv=0 dx=0 dy=0 dh=0 dv=0
PairPos2: "'kern' Horizontal Kerning in Latin lookup 0 per glyph data 1" aeacute dx=0 dy=0 dh=-17 dv=0 dx=0 dy=0 dh=0 dv=0
PairPos2: "'kern' Horizontal Kerning in Latin lookup 0 per glyph data 1" AEacute dx=0 dy=0 dh=-24 dv=0 dx=0 dy=0 dh=0 dv=0
PairPos2: "'kern' Horizontal Kerning in Latin lookup 0 per glyph data 1" Ydieresis dx=0 dy=0 dh=79 dv=0 dx=0 dy=0 dh=0 dv=0
PairPos2: "'kern' Horizontal Kerning in Latin lookup 0 per glyph data 1" Ycircumflex dx=0 dy=0 dh=79 dv=0 dx=0 dy=0 dh=0 dv=0
PairPos2: "'kern' Horizontal Kerning in Latin lookup 0 per glyph data 1" Wcircumflex dx=0 dy=0 dh=60 dv=0 dx=0 dy=0 dh=0 dv=0
PairPos2: "'kern' Horizontal Kerning in Latin lookup 0 per glyph data 1" scaron dx=0 dy=0 dh=-17 dv=0 dx=0 dy=0 dh=0 dv=0
PairPos2: "'kern' Horizontal Kerning in Latin lookup 0 per glyph data 1" scedilla dx=0 dy=0 dh=-17 dv=0 dx=0 dy=0 dh=0 dv=0
PairPos2: "'kern' Horizontal Kerning in Latin lookup 0 per glyph data 1" scircumflex dx=0 dy=0 dh=-17 dv=0 dx=0 dy=0 dh=0 dv=0
PairPos2: "'kern' Horizontal Kerning in Latin lookup 0 per glyph data 1" sacute dx=0 dy=0 dh=-17 dv=0 dx=0 dy=0 dh=0 dv=0
PairPos2: "'kern' Horizontal Kerning in Latin lookup 0 per glyph data 1" oe dx=0 dy=0 dh=-28 dv=0 dx=0 dy=0 dh=0 dv=0
PairPos2: "'kern' Horizontal Kerning in Latin lookup 0 per glyph data 1" OE dx=0 dy=0 dh=-21 dv=0 dx=0 dy=0 dh=0 dv=0
PairPos2: "'kern' Horizontal Kerning in Latin lookup 0 per glyph data 1" ohungarumlaut dx=0 dy=0 dh=-28 dv=0 dx=0 dy=0 dh=0 dv=0
PairPos2: "'kern' Horizontal Kerning in Latin lookup 0 per glyph data 1" Ohungarumlaut dx=0 dy=0 dh=-21 dv=0 dx=0 dy=0 dh=0 dv=0
PairPos2: "'kern' Horizontal Kerning in Latin lookup 0 per glyph data 1" obreve dx=0 dy=0 dh=-28 dv=0 dx=0 dy=0 dh=0 dv=0
PairPos2: "'kern' Horizontal Kerning in Latin lookup 0 per glyph data 1" Obreve dx=0 dy=0 dh=-21 dv=0 dx=0 dy=0 dh=0 dv=0
PairPos2: "'kern' Horizontal Kerning in Latin lookup 0 per glyph data 1" omacron dx=0 dy=0 dh=-28 dv=0 dx=0 dy=0 dh=0 dv=0
PairPos2: "'kern' Horizontal Kerning in Latin lookup 0 per glyph data 1" Omacron dx=0 dy=0 dh=-21 dv=0 dx=0 dy=0 dh=0 dv=0
PairPos2: "'kern' Horizontal Kerning in Latin lookup 0 per glyph data 1" gcommaaccent dx=0 dy=0 dh=-25 dv=0 dx=0 dy=0 dh=0 dv=0
PairPos2: "'kern' Horizontal Kerning in Latin lookup 0 per glyph data 1" Gcommaaccent dx=0 dy=0 dh=-16 dv=0 dx=0 dy=0 dh=0 dv=0
PairPos2: "'kern' Horizontal Kerning in Latin lookup 0 per glyph data 1" gdotaccent dx=0 dy=0 dh=-25 dv=0 dx=0 dy=0 dh=0 dv=0
PairPos2: "'kern' Horizontal Kerning in Latin lookup 0 per glyph data 1" Gdotaccent dx=0 dy=0 dh=-16 dv=0 dx=0 dy=0 dh=0 dv=0
PairPos2: "'kern' Horizontal Kerning in Latin lookup 0 per glyph data 1" gbreve dx=0 dy=0 dh=-25 dv=0 dx=0 dy=0 dh=0 dv=0
PairPos2: "'kern' Horizontal Kerning in Latin lookup 0 per glyph data 1" Gbreve dx=0 dy=0 dh=-16 dv=0 dx=0 dy=0 dh=0 dv=0
PairPos2: "'kern' Horizontal Kerning in Latin lookup 0 per glyph data 1" gcircumflex dx=0 dy=0 dh=-25 dv=0 dx=0 dy=0 dh=0 dv=0
PairPos2: "'kern' Horizontal Kerning in Latin lookup 0 per glyph data 1" Gcircumflex dx=0 dy=0 dh=-16 dv=0 dx=0 dy=0 dh=0 dv=0
PairPos2: "'kern' Horizontal Kerning in Latin lookup 0 per glyph data 1" ecaron dx=0 dy=0 dh=-30 dv=0 dx=0 dy=0 dh=0 dv=0
PairPos2: "'kern' Horizontal Kerning in Latin lookup 0 per glyph data 1" eogonek dx=0 dy=0 dh=-30 dv=0 dx=0 dy=0 dh=0 dv=0
PairPos2: "'kern' Horizontal Kerning in Latin lookup 0 per glyph data 1" edotaccent dx=0 dy=0 dh=-30 dv=0 dx=0 dy=0 dh=0 dv=0
PairPos2: "'kern' Horizontal Kerning in Latin lookup 0 per glyph data 1" ebreve dx=0 dy=0 dh=-30 dv=0 dx=0 dy=0 dh=0 dv=0
PairPos2: "'kern' Horizontal Kerning in Latin lookup 0 per glyph data 1" emacron dx=0 dy=0 dh=-30 dv=0 dx=0 dy=0 dh=0 dv=0
PairPos2: "'kern' Horizontal Kerning in Latin lookup 0 per glyph data 1" dcaron dx=0 dy=0 dh=-28 dv=0 dx=0 dy=0 dh=0 dv=0
PairPos2: "'kern' Horizontal Kerning in Latin lookup 0 per glyph data 1" ccaron dx=0 dy=0 dh=-31 dv=0 dx=0 dy=0 dh=0 dv=0
PairPos2: "'kern' Horizontal Kerning in Latin lookup 0 per glyph data 1" Ccaron dx=0 dy=0 dh=-21 dv=0 dx=0 dy=0 dh=0 dv=0
PairPos2: "'kern' Horizontal Kerning in Latin lookup 0 per glyph data 1" cdotaccent dx=0 dy=0 dh=-31 dv=0 dx=0 dy=0 dh=0 dv=0
PairPos2: "'kern' Horizontal Kerning in Latin lookup 0 per glyph data 1" Cdotaccent dx=0 dy=0 dh=-21 dv=0 dx=0 dy=0 dh=0 dv=0
PairPos2: "'kern' Horizontal Kerning in Latin lookup 0 per glyph data 1" ccircumflex dx=0 dy=0 dh=-31 dv=0 dx=0 dy=0 dh=0 dv=0
PairPos2: "'kern' Horizontal Kerning in Latin lookup 0 per glyph data 1" Ccircumflex dx=0 dy=0 dh=-21 dv=0 dx=0 dy=0 dh=0 dv=0
PairPos2: "'kern' Horizontal Kerning in Latin lookup 0 per glyph data 1" cacute dx=0 dy=0 dh=-31 dv=0 dx=0 dy=0 dh=0 dv=0
PairPos2: "'kern' Horizontal Kerning in Latin lookup 0 per glyph data 1" Cacute dx=0 dy=0 dh=-21 dv=0 dx=0 dy=0 dh=0 dv=0
PairPos2: "'kern' Horizontal Kerning in Latin lookup 0 per glyph data 1" aogonek dx=0 dy=0 dh=-17 dv=0 dx=0 dy=0 dh=0 dv=0
PairPos2: "'kern' Horizontal Kerning in Latin lookup 0 per glyph data 1" Aogonek dx=0 dy=0 dh=-24 dv=0 dx=0 dy=0 dh=0 dv=0
PairPos2: "'kern' Horizontal Kerning in Latin lookup 0 per glyph data 1" abreve dx=0 dy=0 dh=-17 dv=0 dx=0 dy=0 dh=0 dv=0
PairPos2: "'kern' Horizontal Kerning in Latin lookup 0 per glyph data 1" Abreve dx=0 dy=0 dh=-24 dv=0 dx=0 dy=0 dh=0 dv=0
PairPos2: "'kern' Horizontal Kerning in Latin lookup 0 per glyph data 1" amacron dx=0 dy=0 dh=-17 dv=0 dx=0 dy=0 dh=0 dv=0
PairPos2: "'kern' Horizontal Kerning in Latin lookup 0 per glyph data 1" Amacron dx=0 dy=0 dh=-24 dv=0 dx=0 dy=0 dh=0 dv=0
PairPos2: "'kern' Horizontal Kerning in Latin lookup 0 per glyph data 1" oslash dx=0 dy=0 dh=-28 dv=0 dx=0 dy=0 dh=0 dv=0
PairPos2: "'kern' Horizontal Kerning in Latin lookup 0 per glyph data 1" odieresis dx=0 dy=0 dh=-28 dv=0 dx=0 dy=0 dh=0 dv=0
PairPos2: "'kern' Horizontal Kerning in Latin lookup 0 per glyph data 1" otilde dx=0 dy=0 dh=-28 dv=0 dx=0 dy=0 dh=0 dv=0
PairPos2: "'kern' Horizontal Kerning in Latin lookup 0 per glyph data 1" ocircumflex dx=0 dy=0 dh=-28 dv=0 dx=0 dy=0 dh=0 dv=0
PairPos2: "'kern' Horizontal Kerning in Latin lookup 0 per glyph data 1" oacute dx=0 dy=0 dh=-28 dv=0 dx=0 dy=0 dh=0 dv=0
PairPos2: "'kern' Horizontal Kerning in Latin lookup 0 per glyph data 1" ograve dx=0 dy=0 dh=-28 dv=0 dx=0 dy=0 dh=0 dv=0
PairPos2: "'kern' Horizontal Kerning in Latin lookup 0 per glyph data 1" eth dx=0 dy=0 dh=-28 dv=0 dx=0 dy=0 dh=0 dv=0
PairPos2: "'kern' Horizontal Kerning in Latin lookup 0 per glyph data 1" edieresis dx=0 dy=0 dh=-30 dv=0 dx=0 dy=0 dh=0 dv=0
PairPos2: "'kern' Horizontal Kerning in Latin lookup 0 per glyph data 1" ecircumflex dx=0 dy=0 dh=-30 dv=0 dx=0 dy=0 dh=0 dv=0
PairPos2: "'kern' Horizontal Kerning in Latin lookup 0 per glyph data 1" eacute dx=0 dy=0 dh=-30 dv=0 dx=0 dy=0 dh=0 dv=0
PairPos2: "'kern' Horizontal Kerning in Latin lookup 0 per glyph data 1" egrave dx=0 dy=0 dh=-30 dv=0 dx=0 dy=0 dh=0 dv=0
PairPos2: "'kern' Horizontal Kerning in Latin lookup 0 per glyph data 1" ccedilla dx=0 dy=0 dh=-31 dv=0 dx=0 dy=0 dh=0 dv=0
PairPos2: "'kern' Horizontal Kerning in Latin lookup 0 per glyph data 1" ae dx=0 dy=0 dh=-17 dv=0 dx=0 dy=0 dh=0 dv=0
PairPos2: "'kern' Horizontal Kerning in Latin lookup 0 per glyph data 1" aring dx=0 dy=0 dh=-17 dv=0 dx=0 dy=0 dh=0 dv=0
PairPos2: "'kern' Horizontal Kerning in Latin lookup 0 per glyph data 1" adieresis dx=0 dy=0 dh=-17 dv=0 dx=0 dy=0 dh=0 dv=0
PairPos2: "'kern' Horizontal Kerning in Latin lookup 0 per glyph data 1" atilde dx=0 dy=0 dh=-17 dv=0 dx=0 dy=0 dh=0 dv=0
PairPos2: "'kern' Horizontal Kerning in Latin lookup 0 per glyph data 1" acircumflex dx=0 dy=0 dh=-17 dv=0 dx=0 dy=0 dh=0 dv=0
PairPos2: "'kern' Horizontal Kerning in Latin lookup 0 per glyph data 1" aacute dx=0 dy=0 dh=-17 dv=0 dx=0 dy=0 dh=0 dv=0
PairPos2: "'kern' Horizontal Kerning in Latin lookup 0 per glyph data 1" agrave dx=0 dy=0 dh=-17 dv=0 dx=0 dy=0 dh=0 dv=0
PairPos2: "'kern' Horizontal Kerning in Latin lookup 0 per glyph data 1" Yacute dx=0 dy=0 dh=79 dv=0 dx=0 dy=0 dh=0 dv=0
PairPos2: "'kern' Horizontal Kerning in Latin lookup 0 per glyph data 1" Oslash dx=0 dy=0 dh=-21 dv=0 dx=0 dy=0 dh=0 dv=0
PairPos2: "'kern' Horizontal Kerning in Latin lookup 0 per glyph data 1" Odieresis dx=0 dy=0 dh=-21 dv=0 dx=0 dy=0 dh=0 dv=0
PairPos2: "'kern' Horizontal Kerning in Latin lookup 0 per glyph data 1" Otilde dx=0 dy=0 dh=-21 dv=0 dx=0 dy=0 dh=0 dv=0
PairPos2: "'kern' Horizontal Kerning in Latin lookup 0 per glyph data 1" Ocircumflex dx=0 dy=0 dh=-21 dv=0 dx=0 dy=0 dh=0 dv=0
PairPos2: "'kern' Horizontal Kerning in Latin lookup 0 per glyph data 1" Oacute dx=0 dy=0 dh=-21 dv=0 dx=0 dy=0 dh=0 dv=0
PairPos2: "'kern' Horizontal Kerning in Latin lookup 0 per glyph data 1" Ograve dx=0 dy=0 dh=-21 dv=0 dx=0 dy=0 dh=0 dv=0
PairPos2: "'kern' Horizontal Kerning in Latin lookup 0 per glyph data 1" Ccedilla dx=0 dy=0 dh=-21 dv=0 dx=0 dy=0 dh=0 dv=0
PairPos2: "'kern' Horizontal Kerning in Latin lookup 0 per glyph data 1" AE dx=0 dy=0 dh=-24 dv=0 dx=0 dy=0 dh=0 dv=0
PairPos2: "'kern' Horizontal Kerning in Latin lookup 0 per glyph data 1" Aring dx=0 dy=0 dh=-24 dv=0 dx=0 dy=0 dh=0 dv=0
PairPos2: "'kern' Horizontal Kerning in Latin lookup 0 per glyph data 1" Adieresis dx=0 dy=0 dh=-24 dv=0 dx=0 dy=0 dh=0 dv=0
PairPos2: "'kern' Horizontal Kerning in Latin lookup 0 per glyph data 1" Atilde dx=0 dy=0 dh=-24 dv=0 dx=0 dy=0 dh=0 dv=0
PairPos2: "'kern' Horizontal Kerning in Latin lookup 0 per glyph data 1" Acircumflex dx=0 dy=0 dh=-24 dv=0 dx=0 dy=0 dh=0 dv=0
PairPos2: "'kern' Horizontal Kerning in Latin lookup 0 per glyph data 1" Aacute dx=0 dy=0 dh=-24 dv=0 dx=0 dy=0 dh=0 dv=0
PairPos2: "'kern' Horizontal Kerning in Latin lookup 0 per glyph data 1" Agrave dx=0 dy=0 dh=-24 dv=0 dx=0 dy=0 dh=0 dv=0
PairPos2: "'kern' Horizontal Kerning in Latin lookup 0 per glyph data 1" guillemotleft dx=0 dy=0 dh=-33 dv=0 dx=0 dy=0 dh=0 dv=0
PairPos2: "'kern' Horizontal Kerning in Latin lookup 0 per glyph data 1" s dx=0 dy=0 dh=-17 dv=0 dx=0 dy=0 dh=0 dv=0
PairPos2: "'kern' Horizontal Kerning in Latin lookup 0 per glyph data 1" q dx=0 dy=0 dh=-28 dv=0 dx=0 dy=0 dh=0 dv=0
PairPos2: "'kern' Horizontal Kerning in Latin lookup 0 per glyph data 1" o dx=0 dy=0 dh=-28 dv=0 dx=0 dy=0 dh=0 dv=0
PairPos2: "'kern' Horizontal Kerning in Latin lookup 0 per glyph data 1" g dx=0 dy=0 dh=-25 dv=0 dx=0 dy=0 dh=0 dv=0
PairPos2: "'kern' Horizontal Kerning in Latin lookup 0 per glyph data 1" e dx=0 dy=0 dh=-30 dv=0 dx=0 dy=0 dh=0 dv=0
PairPos2: "'kern' Horizontal Kerning in Latin lookup 0 per glyph data 1" d dx=0 dy=0 dh=-28 dv=0 dx=0 dy=0 dh=0 dv=0
PairPos2: "'kern' Horizontal Kerning in Latin lookup 0 per glyph data 1" c dx=0 dy=0 dh=-31 dv=0 dx=0 dy=0 dh=0 dv=0
PairPos2: "'kern' Horizontal Kerning in Latin lookup 0 per glyph data 1" b dx=0 dy=0 dh=28 dv=0 dx=0 dy=0 dh=0 dv=0
PairPos2: "'kern' Horizontal Kerning in Latin lookup 0 per glyph data 1" a dx=0 dy=0 dh=-17 dv=0 dx=0 dy=0 dh=0 dv=0
PairPos2: "'kern' Horizontal Kerning in Latin lookup 0 per glyph data 1" Y dx=0 dy=0 dh=79 dv=0 dx=0 dy=0 dh=0 dv=0
PairPos2: "'kern' Horizontal Kerning in Latin lookup 0 per glyph data 1" W dx=0 dy=0 dh=60 dv=0 dx=0 dy=0 dh=0 dv=0
PairPos2: "'kern' Horizontal Kerning in Latin lookup 0 per glyph data 1" V dx=0 dy=0 dh=52 dv=0 dx=0 dy=0 dh=0 dv=0
PairPos2: "'kern' Horizontal Kerning in Latin lookup 0 per glyph data 1" Q dx=0 dy=0 dh=-19 dv=0 dx=0 dy=0 dh=0 dv=0
PairPos2: "'kern' Horizontal Kerning in Latin lookup 0 per glyph data 1" O dx=0 dy=0 dh=-21 dv=0 dx=0 dy=0 dh=0 dv=0
PairPos2: "'kern' Horizontal Kerning in Latin lookup 0 per glyph data 1" G dx=0 dy=0 dh=-16 dv=0 dx=0 dy=0 dh=0 dv=0
PairPos2: "'kern' Horizontal Kerning in Latin lookup 0 per glyph data 1" C dx=0 dy=0 dh=-21 dv=0 dx=0 dy=0 dh=0 dv=0
PairPos2: "'kern' Horizontal Kerning in Latin lookup 0 per glyph data 1" A dx=0 dy=0 dh=-24 dv=0 dx=0 dy=0 dh=0 dv=0
PairPos2: "'kern' Horizontal Kerning in Latin lookup 0 per glyph data 1" at dx=0 dy=0 dh=-93 dv=0 dx=0 dy=0 dh=0 dv=0
PairPos2: "'kern' Horizontal Kerning in Latin lookup 0 per glyph data 1" nine dx=0 dy=0 dh=-40 dv=0 dx=0 dy=0 dh=0 dv=0
PairPos2: "'kern' Horizontal Kerning in Latin lookup 0 per glyph data 1" five dx=0 dy=0 dh=-32 dv=0 dx=0 dy=0 dh=0 dv=0
PairPos2: "'kern' Horizontal Kerning in Latin lookup 0 per glyph data 1" four dx=0 dy=0 dh=-148 dv=0 dx=0 dy=0 dh=0 dv=0
PairPos2: "'kern' Horizontal Kerning in Latin lookup 0 per glyph data 1" three dx=0 dy=0 dh=-21 dv=0 dx=0 dy=0 dh=0 dv=0
PairPos2: "'kern' Horizontal Kerning in Latin lookup 0 per glyph data 1" slash dx=0 dy=0 dh=-99 dv=0 dx=0 dy=0 dh=0 dv=0
PairPos2: "'kern' Horizontal Kerning in Latin lookup 0 per glyph data 1" period dx=0 dy=0 dh=-199 dv=0 dx=0 dy=0 dh=0 dv=0
PairPos2: "'kern' Horizontal Kerning in Latin lookup 0 per glyph data 1" comma dx=0 dy=0 dh=-199 dv=0 dx=0 dy=0 dh=0 dv=0
PairPos2: "'kern' Horizontal Kerning in Latin lookup 0 per glyph data 1" ampersand dx=0 dy=0 dh=-48 dv=0 dx=0 dy=0 dh=0 dv=0
EndChar

StartChar: parenleft
Encoding: 40 40 11
Width: 939
GlyphClass: 2
Flags: W
LayerCount: 2
Fore
SplineSet
959 -170 m 1,0,1
 937 -178 937 -178 886 -223.5 c 128,-1,2
 835 -269 835 -269 809.5 -287.5 c 128,-1,3
 784 -306 784 -306 765 -306 c 0,4,5
 561 -306 561 -306 393 -152 c 1,6,7
 243 -16 243 -16 154 204 c 1,8,9
 69 411 69 411 69 609 c 0,10,11
 69 927 69 927 218 1174 c 0,12,13
 270 1259 270 1259 337 1321.5 c 128,-1,14
 404 1384 404 1384 476.5 1441.5 c 128,-1,15
 549 1499 549 1499 628 1549 c 0,16,17
 800 1659 800 1659 955 1703 c 1,18,19
 926 1692 926 1692 887 1655 c 0,20,21
 809 1583 809 1583 766.5 1568 c 128,-1,22
 724 1553 724 1553 685 1539.5 c 128,-1,23
 646 1526 646 1526 612 1508 c 0,24,25
 480 1439 480 1439 382 1254 c 1,26,27
 263 1025 263 1025 263 748 c 0,28,29
 263 547 263 547 346 342 c 0,30,31
 435 122 435 122 584 -14 c 0,32,33
 753 -168 753 -168 959 -170 c 1,0,1
EndSplineSet
PairPos2: "'kern' Horizontal Kerning in Latin lookup 0 per glyph data 1" ygrave dx=0 dy=0 dh=-109 dv=0 dx=0 dy=0 dh=0 dv=0
PairPos2: "'kern' Horizontal Kerning in Latin lookup 0 per glyph data 1" Ygrave dx=0 dy=0 dh=-74 dv=0 dx=0 dy=0 dh=0 dv=0
PairPos2: "'kern' Horizontal Kerning in Latin lookup 0 per glyph data 1" wdieresis dx=0 dy=0 dh=-156 dv=0 dx=0 dy=0 dh=0 dv=0
PairPos2: "'kern' Horizontal Kerning in Latin lookup 0 per glyph data 1" Wdieresis dx=0 dy=0 dh=-89 dv=0 dx=0 dy=0 dh=0 dv=0
PairPos2: "'kern' Horizontal Kerning in Latin lookup 0 per glyph data 1" wacute dx=0 dy=0 dh=-156 dv=0 dx=0 dy=0 dh=0 dv=0
PairPos2: "'kern' Horizontal Kerning in Latin lookup 0 per glyph data 1" Wacute dx=0 dy=0 dh=-89 dv=0 dx=0 dy=0 dh=0 dv=0
PairPos2: "'kern' Horizontal Kerning in Latin lookup 0 per glyph data 1" wgrave dx=0 dy=0 dh=-156 dv=0 dx=0 dy=0 dh=0 dv=0
PairPos2: "'kern' Horizontal Kerning in Latin lookup 0 per glyph data 1" Wgrave dx=0 dy=0 dh=-89 dv=0 dx=0 dy=0 dh=0 dv=0
PairPos2: "'kern' Horizontal Kerning in Latin lookup 0 per glyph data 1" oslashacute dx=0 dy=0 dh=-124 dv=0 dx=0 dy=0 dh=0 dv=0
PairPos2: "'kern' Horizontal Kerning in Latin lookup 0 per glyph data 1" Oslashacute dx=0 dy=0 dh=-136 dv=0 dx=0 dy=0 dh=0 dv=0
PairPos2: "'kern' Horizontal Kerning in Latin lookup 0 per glyph data 1" aeacute dx=0 dy=0 dh=-76 dv=0 dx=0 dy=0 dh=0 dv=0
PairPos2: "'kern' Horizontal Kerning in Latin lookup 0 per glyph data 1" zcaron dx=0 dy=0 dh=-53 dv=0 dx=0 dy=0 dh=0 dv=0
PairPos2: "'kern' Horizontal Kerning in Latin lookup 0 per glyph data 1" Zcaron dx=0 dy=0 dh=-36 dv=0 dx=0 dy=0 dh=0 dv=0
PairPos2: "'kern' Horizontal Kerning in Latin lookup 0 per glyph data 1" zdotaccent dx=0 dy=0 dh=-53 dv=0 dx=0 dy=0 dh=0 dv=0
PairPos2: "'kern' Horizontal Kerning in Latin lookup 0 per glyph data 1" Zdotaccent dx=0 dy=0 dh=-36 dv=0 dx=0 dy=0 dh=0 dv=0
PairPos2: "'kern' Horizontal Kerning in Latin lookup 0 per glyph data 1" zacute dx=0 dy=0 dh=-53 dv=0 dx=0 dy=0 dh=0 dv=0
PairPos2: "'kern' Horizontal Kerning in Latin lookup 0 per glyph data 1" Zacute dx=0 dy=0 dh=-36 dv=0 dx=0 dy=0 dh=0 dv=0
PairPos2: "'kern' Horizontal Kerning in Latin lookup 0 per glyph data 1" Ydieresis dx=0 dy=0 dh=-74 dv=0 dx=0 dy=0 dh=0 dv=0
PairPos2: "'kern' Horizontal Kerning in Latin lookup 0 per glyph data 1" ycircumflex dx=0 dy=0 dh=-109 dv=0 dx=0 dy=0 dh=0 dv=0
PairPos2: "'kern' Horizontal Kerning in Latin lookup 0 per glyph data 1" Ycircumflex dx=0 dy=0 dh=-74 dv=0 dx=0 dy=0 dh=0 dv=0
PairPos2: "'kern' Horizontal Kerning in Latin lookup 0 per glyph data 1" wcircumflex dx=0 dy=0 dh=-156 dv=0 dx=0 dy=0 dh=0 dv=0
PairPos2: "'kern' Horizontal Kerning in Latin lookup 0 per glyph data 1" Wcircumflex dx=0 dy=0 dh=-89 dv=0 dx=0 dy=0 dh=0 dv=0
PairPos2: "'kern' Horizontal Kerning in Latin lookup 0 per glyph data 1" uogonek dx=0 dy=0 dh=-112 dv=0 dx=0 dy=0 dh=0 dv=0
PairPos2: "'kern' Horizontal Kerning in Latin lookup 0 per glyph data 1" Uogonek dx=0 dy=0 dh=-104 dv=0 dx=0 dy=0 dh=0 dv=0
PairPos2: "'kern' Horizontal Kerning in Latin lookup 0 per glyph data 1" uhungarumlaut dx=0 dy=0 dh=-112 dv=0 dx=0 dy=0 dh=0 dv=0
PairPos2: "'kern' Horizontal Kerning in Latin lookup 0 per glyph data 1" Uhungarumlaut dx=0 dy=0 dh=-104 dv=0 dx=0 dy=0 dh=0 dv=0
PairPos2: "'kern' Horizontal Kerning in Latin lookup 0 per glyph data 1" uring dx=0 dy=0 dh=-112 dv=0 dx=0 dy=0 dh=0 dv=0
PairPos2: "'kern' Horizontal Kerning in Latin lookup 0 per glyph data 1" Uring dx=0 dy=0 dh=-104 dv=0 dx=0 dy=0 dh=0 dv=0
PairPos2: "'kern' Horizontal Kerning in Latin lookup 0 per glyph data 1" ubreve dx=0 dy=0 dh=-112 dv=0 dx=0 dy=0 dh=0 dv=0
PairPos2: "'kern' Horizontal Kerning in Latin lookup 0 per glyph data 1" Ubreve dx=0 dy=0 dh=-104 dv=0 dx=0 dy=0 dh=0 dv=0
PairPos2: "'kern' Horizontal Kerning in Latin lookup 0 per glyph data 1" umacron dx=0 dy=0 dh=-112 dv=0 dx=0 dy=0 dh=0 dv=0
PairPos2: "'kern' Horizontal Kerning in Latin lookup 0 per glyph data 1" Umacron dx=0 dy=0 dh=-104 dv=0 dx=0 dy=0 dh=0 dv=0
PairPos2: "'kern' Horizontal Kerning in Latin lookup 0 per glyph data 1" utilde dx=0 dy=0 dh=-112 dv=0 dx=0 dy=0 dh=0 dv=0
PairPos2: "'kern' Horizontal Kerning in Latin lookup 0 per glyph data 1" Utilde dx=0 dy=0 dh=-104 dv=0 dx=0 dy=0 dh=0 dv=0
PairPos2: "'kern' Horizontal Kerning in Latin lookup 0 per glyph data 1" tbar dx=0 dy=0 dh=-123 dv=0 dx=0 dy=0 dh=0 dv=0
PairPos2: "'kern' Horizontal Kerning in Latin lookup 0 per glyph data 1" Tbar dx=0 dy=0 dh=-107 dv=0 dx=0 dy=0 dh=0 dv=0
PairPos2: "'kern' Horizontal Kerning in Latin lookup 0 per glyph data 1" Tcaron dx=0 dy=0 dh=-107 dv=0 dx=0 dy=0 dh=0 dv=0
PairPos2: "'kern' Horizontal Kerning in Latin lookup 0 per glyph data 1" tcommaaccent dx=0 dy=0 dh=-123 dv=0 dx=0 dy=0 dh=0 dv=0
PairPos2: "'kern' Horizontal Kerning in Latin lookup 0 per glyph data 1" Tcommaaccent dx=0 dy=0 dh=-107 dv=0 dx=0 dy=0 dh=0 dv=0
PairPos2: "'kern' Horizontal Kerning in Latin lookup 0 per glyph data 1" scaron dx=0 dy=0 dh=-73 dv=0 dx=0 dy=0 dh=0 dv=0
PairPos2: "'kern' Horizontal Kerning in Latin lookup 0 per glyph data 1" Scaron dx=0 dy=0 dh=-86 dv=0 dx=0 dy=0 dh=0 dv=0
PairPos2: "'kern' Horizontal Kerning in Latin lookup 0 per glyph data 1" scedilla dx=0 dy=0 dh=-73 dv=0 dx=0 dy=0 dh=0 dv=0
PairPos2: "'kern' Horizontal Kerning in Latin lookup 0 per glyph data 1" Scedilla dx=0 dy=0 dh=-86 dv=0 dx=0 dy=0 dh=0 dv=0
PairPos2: "'kern' Horizontal Kerning in Latin lookup 0 per glyph data 1" scircumflex dx=0 dy=0 dh=-73 dv=0 dx=0 dy=0 dh=0 dv=0
PairPos2: "'kern' Horizontal Kerning in Latin lookup 0 per glyph data 1" Scircumflex dx=0 dy=0 dh=-86 dv=0 dx=0 dy=0 dh=0 dv=0
PairPos2: "'kern' Horizontal Kerning in Latin lookup 0 per glyph data 1" sacute dx=0 dy=0 dh=-73 dv=0 dx=0 dy=0 dh=0 dv=0
PairPos2: "'kern' Horizontal Kerning in Latin lookup 0 per glyph data 1" Sacute dx=0 dy=0 dh=-86 dv=0 dx=0 dy=0 dh=0 dv=0
PairPos2: "'kern' Horizontal Kerning in Latin lookup 0 per glyph data 1" rcaron dx=0 dy=0 dh=-106 dv=0 dx=0 dy=0 dh=0 dv=0
PairPos2: "'kern' Horizontal Kerning in Latin lookup 0 per glyph data 1" Rcaron dx=0 dy=0 dh=-81 dv=0 dx=0 dy=0 dh=0 dv=0
PairPos2: "'kern' Horizontal Kerning in Latin lookup 0 per glyph data 1" rcommaaccent dx=0 dy=0 dh=-106 dv=0 dx=0 dy=0 dh=0 dv=0
PairPos2: "'kern' Horizontal Kerning in Latin lookup 0 per glyph data 1" Rcommaaccent dx=0 dy=0 dh=-81 dv=0 dx=0 dy=0 dh=0 dv=0
PairPos2: "'kern' Horizontal Kerning in Latin lookup 0 per glyph data 1" racute dx=0 dy=0 dh=-106 dv=0 dx=0 dy=0 dh=0 dv=0
PairPos2: "'kern' Horizontal Kerning in Latin lookup 0 per glyph data 1" Racute dx=0 dy=0 dh=-81 dv=0 dx=0 dy=0 dh=0 dv=0
PairPos2: "'kern' Horizontal Kerning in Latin lookup 0 per glyph data 1" oe dx=0 dy=0 dh=-124 dv=0 dx=0 dy=0 dh=0 dv=0
PairPos2: "'kern' Horizontal Kerning in Latin lookup 0 per glyph data 1" OE dx=0 dy=0 dh=-136 dv=0 dx=0 dy=0 dh=0 dv=0
PairPos2: "'kern' Horizontal Kerning in Latin lookup 0 per glyph data 1" ohungarumlaut dx=0 dy=0 dh=-124 dv=0 dx=0 dy=0 dh=0 dv=0
PairPos2: "'kern' Horizontal Kerning in Latin lookup 0 per glyph data 1" Ohungarumlaut dx=0 dy=0 dh=-136 dv=0 dx=0 dy=0 dh=0 dv=0
PairPos2: "'kern' Horizontal Kerning in Latin lookup 0 per glyph data 1" obreve dx=0 dy=0 dh=-124 dv=0 dx=0 dy=0 dh=0 dv=0
PairPos2: "'kern' Horizontal Kerning in Latin lookup 0 per glyph data 1" Obreve dx=0 dy=0 dh=-136 dv=0 dx=0 dy=0 dh=0 dv=0
PairPos2: "'kern' Horizontal Kerning in Latin lookup 0 per glyph data 1" omacron dx=0 dy=0 dh=-124 dv=0 dx=0 dy=0 dh=0 dv=0
PairPos2: "'kern' Horizontal Kerning in Latin lookup 0 per glyph data 1" Omacron dx=0 dy=0 dh=-136 dv=0 dx=0 dy=0 dh=0 dv=0
PairPos2: "'kern' Horizontal Kerning in Latin lookup 0 per glyph data 1" eng dx=0 dy=0 dh=-106 dv=0 dx=0 dy=0 dh=0 dv=0
PairPos2: "'kern' Horizontal Kerning in Latin lookup 0 per glyph data 1" Eng dx=0 dy=0 dh=-79 dv=0 dx=0 dy=0 dh=0 dv=0
PairPos2: "'kern' Horizontal Kerning in Latin lookup 0 per glyph data 1" ncaron dx=0 dy=0 dh=-106 dv=0 dx=0 dy=0 dh=0 dv=0
PairPos2: "'kern' Horizontal Kerning in Latin lookup 0 per glyph data 1" Ncaron dx=0 dy=0 dh=-79 dv=0 dx=0 dy=0 dh=0 dv=0
PairPos2: "'kern' Horizontal Kerning in Latin lookup 0 per glyph data 1" ncommaaccent dx=0 dy=0 dh=-106 dv=0 dx=0 dy=0 dh=0 dv=0
PairPos2: "'kern' Horizontal Kerning in Latin lookup 0 per glyph data 1" Ncommaaccent dx=0 dy=0 dh=-79 dv=0 dx=0 dy=0 dh=0 dv=0
PairPos2: "'kern' Horizontal Kerning in Latin lookup 0 per glyph data 1" nacute dx=0 dy=0 dh=-106 dv=0 dx=0 dy=0 dh=0 dv=0
PairPos2: "'kern' Horizontal Kerning in Latin lookup 0 per glyph data 1" Nacute dx=0 dy=0 dh=-79 dv=0 dx=0 dy=0 dh=0 dv=0
PairPos2: "'kern' Horizontal Kerning in Latin lookup 0 per glyph data 1" Lslash dx=0 dy=0 dh=-79 dv=0 dx=0 dy=0 dh=0 dv=0
PairPos2: "'kern' Horizontal Kerning in Latin lookup 0 per glyph data 1" Lcommaaccent dx=0 dy=0 dh=-79 dv=0 dx=0 dy=0 dh=0 dv=0
PairPos2: "'kern' Horizontal Kerning in Latin lookup 0 per glyph data 1" Lacute dx=0 dy=0 dh=-79 dv=0 dx=0 dy=0 dh=0 dv=0
PairPos2: "'kern' Horizontal Kerning in Latin lookup 0 per glyph data 1" Kcommaaccent dx=0 dy=0 dh=-79 dv=0 dx=0 dy=0 dh=0 dv=0
PairPos2: "'kern' Horizontal Kerning in Latin lookup 0 per glyph data 1" Jcircumflex dx=0 dy=0 dh=292 dv=0 dx=0 dy=0 dh=0 dv=0
PairPos2: "'kern' Horizontal Kerning in Latin lookup 0 per glyph data 1" dotlessi dx=0 dy=0 dh=-43 dv=0 dx=0 dy=0 dh=0 dv=0
PairPos2: "'kern' Horizontal Kerning in Latin lookup 0 per glyph data 1" Idotaccent dx=0 dy=0 dh=-79 dv=0 dx=0 dy=0 dh=0 dv=0
PairPos2: "'kern' Horizontal Kerning in Latin lookup 0 per glyph data 1" iogonek dx=0 dy=0 dh=-43 dv=0 dx=0 dy=0 dh=0 dv=0
PairPos2: "'kern' Horizontal Kerning in Latin lookup 0 per glyph data 1" Iogonek dx=0 dy=0 dh=-79 dv=0 dx=0 dy=0 dh=0 dv=0
PairPos2: "'kern' Horizontal Kerning in Latin lookup 0 per glyph data 1" ibreve dx=0 dy=0 dh=-43 dv=0 dx=0 dy=0 dh=0 dv=0
PairPos2: "'kern' Horizontal Kerning in Latin lookup 0 per glyph data 1" Ibreve dx=0 dy=0 dh=-79 dv=0 dx=0 dy=0 dh=0 dv=0
PairPos2: "'kern' Horizontal Kerning in Latin lookup 0 per glyph data 1" imacron dx=0 dy=0 dh=-43 dv=0 dx=0 dy=0 dh=0 dv=0
PairPos2: "'kern' Horizontal Kerning in Latin lookup 0 per glyph data 1" Imacron dx=0 dy=0 dh=-79 dv=0 dx=0 dy=0 dh=0 dv=0
PairPos2: "'kern' Horizontal Kerning in Latin lookup 0 per glyph data 1" itilde dx=0 dy=0 dh=-43 dv=0 dx=0 dy=0 dh=0 dv=0
PairPos2: "'kern' Horizontal Kerning in Latin lookup 0 per glyph data 1" Itilde dx=0 dy=0 dh=-79 dv=0 dx=0 dy=0 dh=0 dv=0
PairPos2: "'kern' Horizontal Kerning in Latin lookup 0 per glyph data 1" Hbar dx=0 dy=0 dh=-79 dv=0 dx=0 dy=0 dh=0 dv=0
PairPos2: "'kern' Horizontal Kerning in Latin lookup 0 per glyph data 1" Hcircumflex dx=0 dy=0 dh=-79 dv=0 dx=0 dy=0 dh=0 dv=0
PairPos2: "'kern' Horizontal Kerning in Latin lookup 0 per glyph data 1" Gcommaaccent dx=0 dy=0 dh=-144 dv=0 dx=0 dy=0 dh=0 dv=0
PairPos2: "'kern' Horizontal Kerning in Latin lookup 0 per glyph data 1" Gdotaccent dx=0 dy=0 dh=-144 dv=0 dx=0 dy=0 dh=0 dv=0
PairPos2: "'kern' Horizontal Kerning in Latin lookup 0 per glyph data 1" Gbreve dx=0 dy=0 dh=-144 dv=0 dx=0 dy=0 dh=0 dv=0
PairPos2: "'kern' Horizontal Kerning in Latin lookup 0 per glyph data 1" Gcircumflex dx=0 dy=0 dh=-144 dv=0 dx=0 dy=0 dh=0 dv=0
PairPos2: "'kern' Horizontal Kerning in Latin lookup 0 per glyph data 1" ecaron dx=0 dy=0 dh=-120 dv=0 dx=0 dy=0 dh=0 dv=0
PairPos2: "'kern' Horizontal Kerning in Latin lookup 0 per glyph data 1" Ecaron dx=0 dy=0 dh=-81 dv=0 dx=0 dy=0 dh=0 dv=0
PairPos2: "'kern' Horizontal Kerning in Latin lookup 0 per glyph data 1" eogonek dx=0 dy=0 dh=-120 dv=0 dx=0 dy=0 dh=0 dv=0
PairPos2: "'kern' Horizontal Kerning in Latin lookup 0 per glyph data 1" Eogonek dx=0 dy=0 dh=-81 dv=0 dx=0 dy=0 dh=0 dv=0
PairPos2: "'kern' Horizontal Kerning in Latin lookup 0 per glyph data 1" edotaccent dx=0 dy=0 dh=-120 dv=0 dx=0 dy=0 dh=0 dv=0
PairPos2: "'kern' Horizontal Kerning in Latin lookup 0 per glyph data 1" Edotaccent dx=0 dy=0 dh=-81 dv=0 dx=0 dy=0 dh=0 dv=0
PairPos2: "'kern' Horizontal Kerning in Latin lookup 0 per glyph data 1" ebreve dx=0 dy=0 dh=-120 dv=0 dx=0 dy=0 dh=0 dv=0
PairPos2: "'kern' Horizontal Kerning in Latin lookup 0 per glyph data 1" Ebreve dx=0 dy=0 dh=-81 dv=0 dx=0 dy=0 dh=0 dv=0
PairPos2: "'kern' Horizontal Kerning in Latin lookup 0 per glyph data 1" emacron dx=0 dy=0 dh=-120 dv=0 dx=0 dy=0 dh=0 dv=0
PairPos2: "'kern' Horizontal Kerning in Latin lookup 0 per glyph data 1" Emacron dx=0 dy=0 dh=-81 dv=0 dx=0 dy=0 dh=0 dv=0
PairPos2: "'kern' Horizontal Kerning in Latin lookup 0 per glyph data 1" Dcroat dx=0 dy=0 dh=-81 dv=0 dx=0 dy=0 dh=0 dv=0
PairPos2: "'kern' Horizontal Kerning in Latin lookup 0 per glyph data 1" dcaron dx=0 dy=0 dh=-124 dv=0 dx=0 dy=0 dh=0 dv=0
PairPos2: "'kern' Horizontal Kerning in Latin lookup 0 per glyph data 1" Dcaron dx=0 dy=0 dh=-81 dv=0 dx=0 dy=0 dh=0 dv=0
PairPos2: "'kern' Horizontal Kerning in Latin lookup 0 per glyph data 1" ccaron dx=0 dy=0 dh=-121 dv=0 dx=0 dy=0 dh=0 dv=0
PairPos2: "'kern' Horizontal Kerning in Latin lookup 0 per glyph data 1" Ccaron dx=0 dy=0 dh=-142 dv=0 dx=0 dy=0 dh=0 dv=0
PairPos2: "'kern' Horizontal Kerning in Latin lookup 0 per glyph data 1" cdotaccent dx=0 dy=0 dh=-121 dv=0 dx=0 dy=0 dh=0 dv=0
PairPos2: "'kern' Horizontal Kerning in Latin lookup 0 per glyph data 1" Cdotaccent dx=0 dy=0 dh=-142 dv=0 dx=0 dy=0 dh=0 dv=0
PairPos2: "'kern' Horizontal Kerning in Latin lookup 0 per glyph data 1" ccircumflex dx=0 dy=0 dh=-121 dv=0 dx=0 dy=0 dh=0 dv=0
PairPos2: "'kern' Horizontal Kerning in Latin lookup 0 per glyph data 1" Ccircumflex dx=0 dy=0 dh=-142 dv=0 dx=0 dy=0 dh=0 dv=0
PairPos2: "'kern' Horizontal Kerning in Latin lookup 0 per glyph data 1" cacute dx=0 dy=0 dh=-121 dv=0 dx=0 dy=0 dh=0 dv=0
PairPos2: "'kern' Horizontal Kerning in Latin lookup 0 per glyph data 1" Cacute dx=0 dy=0 dh=-142 dv=0 dx=0 dy=0 dh=0 dv=0
PairPos2: "'kern' Horizontal Kerning in Latin lookup 0 per glyph data 1" aogonek dx=0 dy=0 dh=-76 dv=0 dx=0 dy=0 dh=0 dv=0
PairPos2: "'kern' Horizontal Kerning in Latin lookup 0 per glyph data 1" abreve dx=0 dy=0 dh=-76 dv=0 dx=0 dy=0 dh=0 dv=0
PairPos2: "'kern' Horizontal Kerning in Latin lookup 0 per glyph data 1" amacron dx=0 dy=0 dh=-76 dv=0 dx=0 dy=0 dh=0 dv=0
PairPos2: "'kern' Horizontal Kerning in Latin lookup 0 per glyph data 1" ydieresis dx=0 dy=0 dh=-109 dv=0 dx=0 dy=0 dh=0 dv=0
PairPos2: "'kern' Horizontal Kerning in Latin lookup 0 per glyph data 1" yacute dx=0 dy=0 dh=-109 dv=0 dx=0 dy=0 dh=0 dv=0
PairPos2: "'kern' Horizontal Kerning in Latin lookup 0 per glyph data 1" udieresis dx=0 dy=0 dh=-112 dv=0 dx=0 dy=0 dh=0 dv=0
PairPos2: "'kern' Horizontal Kerning in Latin lookup 0 per glyph data 1" ucircumflex dx=0 dy=0 dh=-112 dv=0 dx=0 dy=0 dh=0 dv=0
PairPos2: "'kern' Horizontal Kerning in Latin lookup 0 per glyph data 1" uacute dx=0 dy=0 dh=-112 dv=0 dx=0 dy=0 dh=0 dv=0
PairPos2: "'kern' Horizontal Kerning in Latin lookup 0 per glyph data 1" ugrave dx=0 dy=0 dh=-112 dv=0 dx=0 dy=0 dh=0 dv=0
PairPos2: "'kern' Horizontal Kerning in Latin lookup 0 per glyph data 1" oslash dx=0 dy=0 dh=-124 dv=0 dx=0 dy=0 dh=0 dv=0
PairPos2: "'kern' Horizontal Kerning in Latin lookup 0 per glyph data 1" odieresis dx=0 dy=0 dh=-124 dv=0 dx=0 dy=0 dh=0 dv=0
PairPos2: "'kern' Horizontal Kerning in Latin lookup 0 per glyph data 1" otilde dx=0 dy=0 dh=-124 dv=0 dx=0 dy=0 dh=0 dv=0
PairPos2: "'kern' Horizontal Kerning in Latin lookup 0 per glyph data 1" ocircumflex dx=0 dy=0 dh=-124 dv=0 dx=0 dy=0 dh=0 dv=0
PairPos2: "'kern' Horizontal Kerning in Latin lookup 0 per glyph data 1" oacute dx=0 dy=0 dh=-124 dv=0 dx=0 dy=0 dh=0 dv=0
PairPos2: "'kern' Horizontal Kerning in Latin lookup 0 per glyph data 1" ograve dx=0 dy=0 dh=-124 dv=0 dx=0 dy=0 dh=0 dv=0
PairPos2: "'kern' Horizontal Kerning in Latin lookup 0 per glyph data 1" ntilde dx=0 dy=0 dh=-106 dv=0 dx=0 dy=0 dh=0 dv=0
PairPos2: "'kern' Horizontal Kerning in Latin lookup 0 per glyph data 1" eth dx=0 dy=0 dh=-124 dv=0 dx=0 dy=0 dh=0 dv=0
PairPos2: "'kern' Horizontal Kerning in Latin lookup 0 per glyph data 1" idieresis dx=0 dy=0 dh=-43 dv=0 dx=0 dy=0 dh=0 dv=0
PairPos2: "'kern' Horizontal Kerning in Latin lookup 0 per glyph data 1" icircumflex dx=0 dy=0 dh=-43 dv=0 dx=0 dy=0 dh=0 dv=0
PairPos2: "'kern' Horizontal Kerning in Latin lookup 0 per glyph data 1" iacute dx=0 dy=0 dh=-43 dv=0 dx=0 dy=0 dh=0 dv=0
PairPos2: "'kern' Horizontal Kerning in Latin lookup 0 per glyph data 1" igrave dx=0 dy=0 dh=-43 dv=0 dx=0 dy=0 dh=0 dv=0
PairPos2: "'kern' Horizontal Kerning in Latin lookup 0 per glyph data 1" edieresis dx=0 dy=0 dh=-120 dv=0 dx=0 dy=0 dh=0 dv=0
PairPos2: "'kern' Horizontal Kerning in Latin lookup 0 per glyph data 1" ecircumflex dx=0 dy=0 dh=-120 dv=0 dx=0 dy=0 dh=0 dv=0
PairPos2: "'kern' Horizontal Kerning in Latin lookup 0 per glyph data 1" eacute dx=0 dy=0 dh=-120 dv=0 dx=0 dy=0 dh=0 dv=0
PairPos2: "'kern' Horizontal Kerning in Latin lookup 0 per glyph data 1" egrave dx=0 dy=0 dh=-120 dv=0 dx=0 dy=0 dh=0 dv=0
PairPos2: "'kern' Horizontal Kerning in Latin lookup 0 per glyph data 1" ccedilla dx=0 dy=0 dh=-121 dv=0 dx=0 dy=0 dh=0 dv=0
PairPos2: "'kern' Horizontal Kerning in Latin lookup 0 per glyph data 1" ae dx=0 dy=0 dh=-76 dv=0 dx=0 dy=0 dh=0 dv=0
PairPos2: "'kern' Horizontal Kerning in Latin lookup 0 per glyph data 1" aring dx=0 dy=0 dh=-76 dv=0 dx=0 dy=0 dh=0 dv=0
PairPos2: "'kern' Horizontal Kerning in Latin lookup 0 per glyph data 1" adieresis dx=0 dy=0 dh=-76 dv=0 dx=0 dy=0 dh=0 dv=0
PairPos2: "'kern' Horizontal Kerning in Latin lookup 0 per glyph data 1" atilde dx=0 dy=0 dh=-76 dv=0 dx=0 dy=0 dh=0 dv=0
PairPos2: "'kern' Horizontal Kerning in Latin lookup 0 per glyph data 1" acircumflex dx=0 dy=0 dh=-76 dv=0 dx=0 dy=0 dh=0 dv=0
PairPos2: "'kern' Horizontal Kerning in Latin lookup 0 per glyph data 1" aacute dx=0 dy=0 dh=-76 dv=0 dx=0 dy=0 dh=0 dv=0
PairPos2: "'kern' Horizontal Kerning in Latin lookup 0 per glyph data 1" agrave dx=0 dy=0 dh=-76 dv=0 dx=0 dy=0 dh=0 dv=0
PairPos2: "'kern' Horizontal Kerning in Latin lookup 0 per glyph data 1" germandbls dx=0 dy=0 dh=-71 dv=0 dx=0 dy=0 dh=0 dv=0
PairPos2: "'kern' Horizontal Kerning in Latin lookup 0 per glyph data 1" Yacute dx=0 dy=0 dh=-74 dv=0 dx=0 dy=0 dh=0 dv=0
PairPos2: "'kern' Horizontal Kerning in Latin lookup 0 per glyph data 1" Udieresis dx=0 dy=0 dh=-104 dv=0 dx=0 dy=0 dh=0 dv=0
PairPos2: "'kern' Horizontal Kerning in Latin lookup 0 per glyph data 1" Ucircumflex dx=0 dy=0 dh=-104 dv=0 dx=0 dy=0 dh=0 dv=0
PairPos2: "'kern' Horizontal Kerning in Latin lookup 0 per glyph data 1" Uacute dx=0 dy=0 dh=-104 dv=0 dx=0 dy=0 dh=0 dv=0
PairPos2: "'kern' Horizontal Kerning in Latin lookup 0 per glyph data 1" Ugrave dx=0 dy=0 dh=-104 dv=0 dx=0 dy=0 dh=0 dv=0
PairPos2: "'kern' Horizontal Kerning in Latin lookup 0 per glyph data 1" Oslash dx=0 dy=0 dh=-136 dv=0 dx=0 dy=0 dh=0 dv=0
PairPos2: "'kern' Horizontal Kerning in Latin lookup 0 per glyph data 1" Odieresis dx=0 dy=0 dh=-136 dv=0 dx=0 dy=0 dh=0 dv=0
PairPos2: "'kern' Horizontal Kerning in Latin lookup 0 per glyph data 1" Otilde dx=0 dy=0 dh=-136 dv=0 dx=0 dy=0 dh=0 dv=0
PairPos2: "'kern' Horizontal Kerning in Latin lookup 0 per glyph data 1" Ocircumflex dx=0 dy=0 dh=-136 dv=0 dx=0 dy=0 dh=0 dv=0
PairPos2: "'kern' Horizontal Kerning in Latin lookup 0 per glyph data 1" Oacute dx=0 dy=0 dh=-136 dv=0 dx=0 dy=0 dh=0 dv=0
PairPos2: "'kern' Horizontal Kerning in Latin lookup 0 per glyph data 1" Ograve dx=0 dy=0 dh=-136 dv=0 dx=0 dy=0 dh=0 dv=0
PairPos2: "'kern' Horizontal Kerning in Latin lookup 0 per glyph data 1" Ntilde dx=0 dy=0 dh=-79 dv=0 dx=0 dy=0 dh=0 dv=0
PairPos2: "'kern' Horizontal Kerning in Latin lookup 0 per glyph data 1" Eth dx=0 dy=0 dh=-81 dv=0 dx=0 dy=0 dh=0 dv=0
PairPos2: "'kern' Horizontal Kerning in Latin lookup 0 per glyph data 1" Idieresis dx=0 dy=0 dh=-79 dv=0 dx=0 dy=0 dh=0 dv=0
PairPos2: "'kern' Horizontal Kerning in Latin lookup 0 per glyph data 1" Icircumflex dx=0 dy=0 dh=-79 dv=0 dx=0 dy=0 dh=0 dv=0
PairPos2: "'kern' Horizontal Kerning in Latin lookup 0 per glyph data 1" Iacute dx=0 dy=0 dh=-79 dv=0 dx=0 dy=0 dh=0 dv=0
PairPos2: "'kern' Horizontal Kerning in Latin lookup 0 per glyph data 1" Igrave dx=0 dy=0 dh=-79 dv=0 dx=0 dy=0 dh=0 dv=0
PairPos2: "'kern' Horizontal Kerning in Latin lookup 0 per glyph data 1" Edieresis dx=0 dy=0 dh=-81 dv=0 dx=0 dy=0 dh=0 dv=0
PairPos2: "'kern' Horizontal Kerning in Latin lookup 0 per glyph data 1" Ecircumflex dx=0 dy=0 dh=-81 dv=0 dx=0 dy=0 dh=0 dv=0
PairPos2: "'kern' Horizontal Kerning in Latin lookup 0 per glyph data 1" Eacute dx=0 dy=0 dh=-81 dv=0 dx=0 dy=0 dh=0 dv=0
PairPos2: "'kern' Horizontal Kerning in Latin lookup 0 per glyph data 1" Egrave dx=0 dy=0 dh=-81 dv=0 dx=0 dy=0 dh=0 dv=0
PairPos2: "'kern' Horizontal Kerning in Latin lookup 0 per glyph data 1" Ccedilla dx=0 dy=0 dh=-142 dv=0 dx=0 dy=0 dh=0 dv=0
PairPos2: "'kern' Horizontal Kerning in Latin lookup 0 per glyph data 1" braceleft dx=0 dy=0 dh=-49 dv=0 dx=0 dy=0 dh=0 dv=0
PairPos2: "'kern' Horizontal Kerning in Latin lookup 0 per glyph data 1" z dx=0 dy=0 dh=-53 dv=0 dx=0 dy=0 dh=0 dv=0
PairPos2: "'kern' Horizontal Kerning in Latin lookup 0 per glyph data 1" y dx=0 dy=0 dh=-109 dv=0 dx=0 dy=0 dh=0 dv=0
PairPos2: "'kern' Horizontal Kerning in Latin lookup 0 per glyph data 1" x dx=0 dy=0 dh=-23 dv=0 dx=0 dy=0 dh=0 dv=0
PairPos2: "'kern' Horizontal Kerning in Latin lookup 0 per glyph data 1" w dx=0 dy=0 dh=-156 dv=0 dx=0 dy=0 dh=0 dv=0
PairPos2: "'kern' Horizontal Kerning in Latin lookup 0 per glyph data 1" v dx=0 dy=0 dh=-156 dv=0 dx=0 dy=0 dh=0 dv=0
PairPos2: "'kern' Horizontal Kerning in Latin lookup 0 per glyph data 1" u dx=0 dy=0 dh=-112 dv=0 dx=0 dy=0 dh=0 dv=0
PairPos2: "'kern' Horizontal Kerning in Latin lookup 0 per glyph data 1" t dx=0 dy=0 dh=-123 dv=0 dx=0 dy=0 dh=0 dv=0
PairPos2: "'kern' Horizontal Kerning in Latin lookup 0 per glyph data 1" s dx=0 dy=0 dh=-73 dv=0 dx=0 dy=0 dh=0 dv=0
PairPos2: "'kern' Horizontal Kerning in Latin lookup 0 per glyph data 1" r dx=0 dy=0 dh=-106 dv=0 dx=0 dy=0 dh=0 dv=0
PairPos2: "'kern' Horizontal Kerning in Latin lookup 0 per glyph data 1" q dx=0 dy=0 dh=-124 dv=0 dx=0 dy=0 dh=0 dv=0
PairPos2: "'kern' Horizontal Kerning in Latin lookup 0 per glyph data 1" o dx=0 dy=0 dh=-124 dv=0 dx=0 dy=0 dh=0 dv=0
PairPos2: "'kern' Horizontal Kerning in Latin lookup 0 per glyph data 1" n dx=0 dy=0 dh=-106 dv=0 dx=0 dy=0 dh=0 dv=0
PairPos2: "'kern' Horizontal Kerning in Latin lookup 0 per glyph data 1" m dx=0 dy=0 dh=-106 dv=0 dx=0 dy=0 dh=0 dv=0
PairPos2: "'kern' Horizontal Kerning in Latin lookup 0 per glyph data 1" i dx=0 dy=0 dh=-43 dv=0 dx=0 dy=0 dh=0 dv=0
PairPos2: "'kern' Horizontal Kerning in Latin lookup 0 per glyph data 1" f dx=0 dy=0 dh=-71 dv=0 dx=0 dy=0 dh=0 dv=0
PairPos2: "'kern' Horizontal Kerning in Latin lookup 0 per glyph data 1" e dx=0 dy=0 dh=-120 dv=0 dx=0 dy=0 dh=0 dv=0
PairPos2: "'kern' Horizontal Kerning in Latin lookup 0 per glyph data 1" d dx=0 dy=0 dh=-124 dv=0 dx=0 dy=0 dh=0 dv=0
PairPos2: "'kern' Horizontal Kerning in Latin lookup 0 per glyph data 1" c dx=0 dy=0 dh=-121 dv=0 dx=0 dy=0 dh=0 dv=0
PairPos2: "'kern' Horizontal Kerning in Latin lookup 0 per glyph data 1" a dx=0 dy=0 dh=-76 dv=0 dx=0 dy=0 dh=0 dv=0
PairPos2: "'kern' Horizontal Kerning in Latin lookup 0 per glyph data 1" Z dx=0 dy=0 dh=-36 dv=0 dx=0 dy=0 dh=0 dv=0
PairPos2: "'kern' Horizontal Kerning in Latin lookup 0 per glyph data 1" Y dx=0 dy=0 dh=-74 dv=0 dx=0 dy=0 dh=0 dv=0
PairPos2: "'kern' Horizontal Kerning in Latin lookup 0 per glyph data 1" W dx=0 dy=0 dh=-89 dv=0 dx=0 dy=0 dh=0 dv=0
PairPos2: "'kern' Horizontal Kerning in Latin lookup 0 per glyph data 1" V dx=0 dy=0 dh=-93 dv=0 dx=0 dy=0 dh=0 dv=0
PairPos2: "'kern' Horizontal Kerning in Latin lookup 0 per glyph data 1" U dx=0 dy=0 dh=-104 dv=0 dx=0 dy=0 dh=0 dv=0
PairPos2: "'kern' Horizontal Kerning in Latin lookup 0 per glyph data 1" T dx=0 dy=0 dh=-107 dv=0 dx=0 dy=0 dh=0 dv=0
PairPos2: "'kern' Horizontal Kerning in Latin lookup 0 per glyph data 1" S dx=0 dy=0 dh=-86 dv=0 dx=0 dy=0 dh=0 dv=0
PairPos2: "'kern' Horizontal Kerning in Latin lookup 0 per glyph data 1" R dx=0 dy=0 dh=-81 dv=0 dx=0 dy=0 dh=0 dv=0
PairPos2: "'kern' Horizontal Kerning in Latin lookup 0 per glyph data 1" Q dx=0 dy=0 dh=-145 dv=0 dx=0 dy=0 dh=0 dv=0
PairPos2: "'kern' Horizontal Kerning in Latin lookup 0 per glyph data 1" P dx=0 dy=0 dh=-75 dv=0 dx=0 dy=0 dh=0 dv=0
PairPos2: "'kern' Horizontal Kerning in Latin lookup 0 per glyph data 1" O dx=0 dy=0 dh=-136 dv=0 dx=0 dy=0 dh=0 dv=0
PairPos2: "'kern' Horizontal Kerning in Latin lookup 0 per glyph data 1" N dx=0 dy=0 dh=-79 dv=0 dx=0 dy=0 dh=0 dv=0
PairPos2: "'kern' Horizontal Kerning in Latin lookup 0 per glyph data 1" M dx=0 dy=0 dh=-68 dv=0 dx=0 dy=0 dh=0 dv=0
PairPos2: "'kern' Horizontal Kerning in Latin lookup 0 per glyph data 1" L dx=0 dy=0 dh=-79 dv=0 dx=0 dy=0 dh=0 dv=0
PairPos2: "'kern' Horizontal Kerning in Latin lookup 0 per glyph data 1" K dx=0 dy=0 dh=-79 dv=0 dx=0 dy=0 dh=0 dv=0
PairPos2: "'kern' Horizontal Kerning in Latin lookup 0 per glyph data 1" J dx=0 dy=0 dh=292 dv=0 dx=0 dy=0 dh=0 dv=0
PairPos2: "'kern' Horizontal Kerning in Latin lookup 0 per glyph data 1" I dx=0 dy=0 dh=-79 dv=0 dx=0 dy=0 dh=0 dv=0
PairPos2: "'kern' Horizontal Kerning in Latin lookup 0 per glyph data 1" H dx=0 dy=0 dh=-79 dv=0 dx=0 dy=0 dh=0 dv=0
PairPos2: "'kern' Horizontal Kerning in Latin lookup 0 per glyph data 1" G dx=0 dy=0 dh=-144 dv=0 dx=0 dy=0 dh=0 dv=0
PairPos2: "'kern' Horizontal Kerning in Latin lookup 0 per glyph data 1" F dx=0 dy=0 dh=-81 dv=0 dx=0 dy=0 dh=0 dv=0
PairPos2: "'kern' Horizontal Kerning in Latin lookup 0 per glyph data 1" E dx=0 dy=0 dh=-81 dv=0 dx=0 dy=0 dh=0 dv=0
PairPos2: "'kern' Horizontal Kerning in Latin lookup 0 per glyph data 1" D dx=0 dy=0 dh=-81 dv=0 dx=0 dy=0 dh=0 dv=0
PairPos2: "'kern' Horizontal Kerning in Latin lookup 0 per glyph data 1" C dx=0 dy=0 dh=-142 dv=0 dx=0 dy=0 dh=0 dv=0
PairPos2: "'kern' Horizontal Kerning in Latin lookup 0 per glyph data 1" B dx=0 dy=0 dh=-81 dv=0 dx=0 dy=0 dh=0 dv=0
PairPos2: "'kern' Horizontal Kerning in Latin lookup 0 per glyph data 1" eight dx=0 dy=0 dh=-119 dv=0 dx=0 dy=0 dh=0 dv=0
PairPos2: "'kern' Horizontal Kerning in Latin lookup 0 per glyph data 1" seven dx=0 dy=0 dh=-49 dv=0 dx=0 dy=0 dh=0 dv=0
PairPos2: "'kern' Horizontal Kerning in Latin lookup 0 per glyph data 1" six dx=0 dy=0 dh=-132 dv=0 dx=0 dy=0 dh=0 dv=0
PairPos2: "'kern' Horizontal Kerning in Latin lookup 0 per glyph data 1" four dx=0 dy=0 dh=-139 dv=0 dx=0 dy=0 dh=0 dv=0
PairPos2: "'kern' Horizontal Kerning in Latin lookup 0 per glyph data 1" two dx=0 dy=0 dh=-54 dv=0 dx=0 dy=0 dh=0 dv=0
PairPos2: "'kern' Horizontal Kerning in Latin lookup 0 per glyph data 1" one dx=0 dy=0 dh=-98 dv=0 dx=0 dy=0 dh=0 dv=0
PairPos2: "'kern' Horizontal Kerning in Latin lookup 0 per glyph data 1" zero dx=0 dy=0 dh=-141 dv=0 dx=0 dy=0 dh=0 dv=0
PairPos2: "'kern' Horizontal Kerning in Latin lookup 0 per glyph data 1" parenleft dx=0 dy=0 dh=-84 dv=0 dx=0 dy=0 dh=0 dv=0
EndChar

StartChar: parenright
Encoding: 41 41 12
Width: 951
GlyphClass: 2
Flags: W
LayerCount: 2
Fore
SplineSet
866 923 m 128,-1,1
 883 826 883 826 883 717 c 128,-1,2
 883 608 883 608 851 488.5 c 128,-1,3
 819 369 819 369 761 262 c 128,-1,4
 703 155 703 155 622 62 c 128,-1,5
 541 -31 541 -31 442 -104 c 0,6,7
 238 -256 238 -256 -6 -306 c 1,8,9
 18 -297 18 -297 62 -257 c 0,10,11
 146 -182 146 -182 188 -170 c 0,12,13
 688 -30 688 -30 688 596 c 0,14,15
 688 795 688 795 604 1009 c 0,16,17
 460 1372 460 1372 194 1511 c 0,18,19
 101 1560 101 1560 -6 1568 c 1,20,21
 13 1574 13 1574 38 1596 c 128,-1,22
 63 1618 63 1618 90 1642 c 0,23,24
 160 1704 160 1704 188 1704 c 0,25,26
 234 1704 234 1704 316 1675 c 128,-1,27
 398 1646 398 1646 476.5 1589 c 128,-1,28
 555 1532 555 1532 619 1458 c 128,-1,29
 683 1384 683 1384 732.5 1296 c 128,-1,30
 782 1208 782 1208 815.5 1114 c 128,-1,0
 849 1020 849 1020 866 923 c 128,-1,1
EndSplineSet
EndChar

StartChar: asterisk
Encoding: 42 42 13
Width: 999
GlyphClass: 2
Flags: W
LayerCount: 2
Fore
SplineSet
909 1096 m 0,0,1
 909 1062 909 1062 671 1001 c 0,2,3
 602 983 602 983 558 976 c 1,4,5
 703 843 703 843 822 789 c 1,6,7
 861 776 861 776 861 767.5 c 128,-1,8
 861 759 861 759 853 743 c 128,-1,9
 845 727 845 727 832 707 c 128,-1,10
 819 687 819 687 803 666.5 c 128,-1,11
 787 646 787 646 772 629 c 0,12,13
 738 590 738 590 725 590 c 128,-1,14
 712 590 712 590 692 613 c 128,-1,15
 672 636 672 636 648 672 c 128,-1,16
 624 708 624 708 599 751.5 c 128,-1,17
 574 795 574 795 552 836 c 0,18,19
 505 924 505 924 499 954 c 1,20,21
 411 844 411 844 350 717 c 0,22,23
 330 674 330 674 324 650.5 c 128,-1,24
 318 627 318 627 311 626 c 0,25,26
 285 624 285 624 228 660 c 1,27,28
 121 725 121 725 121 748 c 0,29,30
 121 782 121 782 316 916 c 0,31,32
 384 963 384 963 410 977 c 1,33,34
 294 1000 294 1000 218 1029.5 c 128,-1,35
 142 1059 142 1059 122 1070.5 c 128,-1,36
 102 1082 102 1082 102 1092 c 0,37,38
 102 1111 102 1111 139 1161 c 0,39,40
 208 1253 208 1253 229 1253 c 0,41,42
 235 1253 235 1253 247.5 1235.5 c 128,-1,43
 260 1218 260 1218 288 1188.5 c 128,-1,44
 316 1159 316 1159 348 1130 c 1,45,46
 407 1079 407 1079 475 1033 c 1,47,48
 449 1255 449 1255 381 1371 c 0,49,50
 374 1383 374 1383 374 1389 c 128,-1,51
 374 1395 374 1395 386.5 1402.5 c 128,-1,52
 399 1410 399 1410 418.5 1416 c 128,-1,53
 438 1422 438 1422 461 1427.5 c 128,-1,54
 484 1433 484 1433 506 1436 c 0,55,56
 552 1444 552 1444 566.5 1444 c 128,-1,57
 581 1444 581 1444 589 1442.5 c 128,-1,58
 597 1441 597 1441 600 1436 c 0,59,60
 605 1430 605 1430 605 1397 c 128,-1,61
 605 1364 605 1364 600 1317.5 c 128,-1,62
 595 1271 595 1271 586 1223 c 0,63,64
 567 1113 567 1113 548 1052 c 1,65,66
 707 1164 707 1164 766 1252 c 0,67,68
 772 1260 772 1260 780 1260 c 128,-1,69
 788 1260 788 1260 810 1238 c 128,-1,70
 832 1216 832 1216 854 1188 c 0,71,72
 909 1118 909 1118 909 1096 c 0,0,1
EndSplineSet
PairPos2: "'kern' Horizontal Kerning in Latin lookup 0 per glyph data 1" ygrave dx=0 dy=0 dh=50 dv=0 dx=0 dy=0 dh=0 dv=0
PairPos2: "'kern' Horizontal Kerning in Latin lookup 0 per glyph data 1" Ygrave dx=0 dy=0 dh=110 dv=0 dx=0 dy=0 dh=0 dv=0
PairPos2: "'kern' Horizontal Kerning in Latin lookup 0 per glyph data 1" wdieresis dx=0 dy=0 dh=59 dv=0 dx=0 dy=0 dh=0 dv=0
PairPos2: "'kern' Horizontal Kerning in Latin lookup 0 per glyph data 1" Wdieresis dx=0 dy=0 dh=96 dv=0 dx=0 dy=0 dh=0 dv=0
PairPos2: "'kern' Horizontal Kerning in Latin lookup 0 per glyph data 1" wacute dx=0 dy=0 dh=59 dv=0 dx=0 dy=0 dh=0 dv=0
PairPos2: "'kern' Horizontal Kerning in Latin lookup 0 per glyph data 1" Wacute dx=0 dy=0 dh=96 dv=0 dx=0 dy=0 dh=0 dv=0
PairPos2: "'kern' Horizontal Kerning in Latin lookup 0 per glyph data 1" wgrave dx=0 dy=0 dh=59 dv=0 dx=0 dy=0 dh=0 dv=0
PairPos2: "'kern' Horizontal Kerning in Latin lookup 0 per glyph data 1" Wgrave dx=0 dy=0 dh=96 dv=0 dx=0 dy=0 dh=0 dv=0
PairPos2: "'kern' Horizontal Kerning in Latin lookup 0 per glyph data 1" AEacute dx=0 dy=0 dh=-43 dv=0 dx=0 dy=0 dh=0 dv=0
PairPos2: "'kern' Horizontal Kerning in Latin lookup 0 per glyph data 1" Zcaron dx=0 dy=0 dh=-19 dv=0 dx=0 dy=0 dh=0 dv=0
PairPos2: "'kern' Horizontal Kerning in Latin lookup 0 per glyph data 1" Zdotaccent dx=0 dy=0 dh=-19 dv=0 dx=0 dy=0 dh=0 dv=0
PairPos2: "'kern' Horizontal Kerning in Latin lookup 0 per glyph data 1" Zacute dx=0 dy=0 dh=-19 dv=0 dx=0 dy=0 dh=0 dv=0
PairPos2: "'kern' Horizontal Kerning in Latin lookup 0 per glyph data 1" Ydieresis dx=0 dy=0 dh=110 dv=0 dx=0 dy=0 dh=0 dv=0
PairPos2: "'kern' Horizontal Kerning in Latin lookup 0 per glyph data 1" ycircumflex dx=0 dy=0 dh=50 dv=0 dx=0 dy=0 dh=0 dv=0
PairPos2: "'kern' Horizontal Kerning in Latin lookup 0 per glyph data 1" Ycircumflex dx=0 dy=0 dh=110 dv=0 dx=0 dy=0 dh=0 dv=0
PairPos2: "'kern' Horizontal Kerning in Latin lookup 0 per glyph data 1" wcircumflex dx=0 dy=0 dh=59 dv=0 dx=0 dy=0 dh=0 dv=0
PairPos2: "'kern' Horizontal Kerning in Latin lookup 0 per glyph data 1" Wcircumflex dx=0 dy=0 dh=96 dv=0 dx=0 dy=0 dh=0 dv=0
PairPos2: "'kern' Horizontal Kerning in Latin lookup 0 per glyph data 1" uogonek dx=0 dy=0 dh=62 dv=0 dx=0 dy=0 dh=0 dv=0
PairPos2: "'kern' Horizontal Kerning in Latin lookup 0 per glyph data 1" Uogonek dx=0 dy=0 dh=22 dv=0 dx=0 dy=0 dh=0 dv=0
PairPos2: "'kern' Horizontal Kerning in Latin lookup 0 per glyph data 1" uhungarumlaut dx=0 dy=0 dh=62 dv=0 dx=0 dy=0 dh=0 dv=0
PairPos2: "'kern' Horizontal Kerning in Latin lookup 0 per glyph data 1" Uhungarumlaut dx=0 dy=0 dh=22 dv=0 dx=0 dy=0 dh=0 dv=0
PairPos2: "'kern' Horizontal Kerning in Latin lookup 0 per glyph data 1" uring dx=0 dy=0 dh=62 dv=0 dx=0 dy=0 dh=0 dv=0
PairPos2: "'kern' Horizontal Kerning in Latin lookup 0 per glyph data 1" Uring dx=0 dy=0 dh=22 dv=0 dx=0 dy=0 dh=0 dv=0
PairPos2: "'kern' Horizontal Kerning in Latin lookup 0 per glyph data 1" ubreve dx=0 dy=0 dh=62 dv=0 dx=0 dy=0 dh=0 dv=0
PairPos2: "'kern' Horizontal Kerning in Latin lookup 0 per glyph data 1" Ubreve dx=0 dy=0 dh=22 dv=0 dx=0 dy=0 dh=0 dv=0
PairPos2: "'kern' Horizontal Kerning in Latin lookup 0 per glyph data 1" umacron dx=0 dy=0 dh=62 dv=0 dx=0 dy=0 dh=0 dv=0
PairPos2: "'kern' Horizontal Kerning in Latin lookup 0 per glyph data 1" Umacron dx=0 dy=0 dh=22 dv=0 dx=0 dy=0 dh=0 dv=0
PairPos2: "'kern' Horizontal Kerning in Latin lookup 0 per glyph data 1" utilde dx=0 dy=0 dh=62 dv=0 dx=0 dy=0 dh=0 dv=0
PairPos2: "'kern' Horizontal Kerning in Latin lookup 0 per glyph data 1" Utilde dx=0 dy=0 dh=22 dv=0 dx=0 dy=0 dh=0 dv=0
PairPos2: "'kern' Horizontal Kerning in Latin lookup 0 per glyph data 1" Tbar dx=0 dy=0 dh=44 dv=0 dx=0 dy=0 dh=0 dv=0
PairPos2: "'kern' Horizontal Kerning in Latin lookup 0 per glyph data 1" Tcaron dx=0 dy=0 dh=44 dv=0 dx=0 dy=0 dh=0 dv=0
PairPos2: "'kern' Horizontal Kerning in Latin lookup 0 per glyph data 1" Tcommaaccent dx=0 dy=0 dh=44 dv=0 dx=0 dy=0 dh=0 dv=0
PairPos2: "'kern' Horizontal Kerning in Latin lookup 0 per glyph data 1" rcaron dx=0 dy=0 dh=55 dv=0 dx=0 dy=0 dh=0 dv=0
PairPos2: "'kern' Horizontal Kerning in Latin lookup 0 per glyph data 1" Rcaron dx=0 dy=0 dh=23 dv=0 dx=0 dy=0 dh=0 dv=0
PairPos2: "'kern' Horizontal Kerning in Latin lookup 0 per glyph data 1" rcommaaccent dx=0 dy=0 dh=55 dv=0 dx=0 dy=0 dh=0 dv=0
PairPos2: "'kern' Horizontal Kerning in Latin lookup 0 per glyph data 1" Rcommaaccent dx=0 dy=0 dh=23 dv=0 dx=0 dy=0 dh=0 dv=0
PairPos2: "'kern' Horizontal Kerning in Latin lookup 0 per glyph data 1" racute dx=0 dy=0 dh=55 dv=0 dx=0 dy=0 dh=0 dv=0
PairPos2: "'kern' Horizontal Kerning in Latin lookup 0 per glyph data 1" Racute dx=0 dy=0 dh=23 dv=0 dx=0 dy=0 dh=0 dv=0
PairPos2: "'kern' Horizontal Kerning in Latin lookup 0 per glyph data 1" eng dx=0 dy=0 dh=55 dv=0 dx=0 dy=0 dh=0 dv=0
PairPos2: "'kern' Horizontal Kerning in Latin lookup 0 per glyph data 1" Eng dx=0 dy=0 dh=34 dv=0 dx=0 dy=0 dh=0 dv=0
PairPos2: "'kern' Horizontal Kerning in Latin lookup 0 per glyph data 1" ncaron dx=0 dy=0 dh=55 dv=0 dx=0 dy=0 dh=0 dv=0
PairPos2: "'kern' Horizontal Kerning in Latin lookup 0 per glyph data 1" Ncaron dx=0 dy=0 dh=34 dv=0 dx=0 dy=0 dh=0 dv=0
PairPos2: "'kern' Horizontal Kerning in Latin lookup 0 per glyph data 1" ncommaaccent dx=0 dy=0 dh=55 dv=0 dx=0 dy=0 dh=0 dv=0
PairPos2: "'kern' Horizontal Kerning in Latin lookup 0 per glyph data 1" Ncommaaccent dx=0 dy=0 dh=34 dv=0 dx=0 dy=0 dh=0 dv=0
PairPos2: "'kern' Horizontal Kerning in Latin lookup 0 per glyph data 1" nacute dx=0 dy=0 dh=55 dv=0 dx=0 dy=0 dh=0 dv=0
PairPos2: "'kern' Horizontal Kerning in Latin lookup 0 per glyph data 1" Nacute dx=0 dy=0 dh=34 dv=0 dx=0 dy=0 dh=0 dv=0
PairPos2: "'kern' Horizontal Kerning in Latin lookup 0 per glyph data 1" Jcircumflex dx=0 dy=0 dh=18 dv=0 dx=0 dy=0 dh=0 dv=0
PairPos2: "'kern' Horizontal Kerning in Latin lookup 0 per glyph data 1" Dcroat dx=0 dy=0 dh=23 dv=0 dx=0 dy=0 dh=0 dv=0
PairPos2: "'kern' Horizontal Kerning in Latin lookup 0 per glyph data 1" Dcaron dx=0 dy=0 dh=23 dv=0 dx=0 dy=0 dh=0 dv=0
PairPos2: "'kern' Horizontal Kerning in Latin lookup 0 per glyph data 1" Aogonek dx=0 dy=0 dh=-43 dv=0 dx=0 dy=0 dh=0 dv=0
PairPos2: "'kern' Horizontal Kerning in Latin lookup 0 per glyph data 1" Abreve dx=0 dy=0 dh=-43 dv=0 dx=0 dy=0 dh=0 dv=0
PairPos2: "'kern' Horizontal Kerning in Latin lookup 0 per glyph data 1" Amacron dx=0 dy=0 dh=-43 dv=0 dx=0 dy=0 dh=0 dv=0
PairPos2: "'kern' Horizontal Kerning in Latin lookup 0 per glyph data 1" ydieresis dx=0 dy=0 dh=50 dv=0 dx=0 dy=0 dh=0 dv=0
PairPos2: "'kern' Horizontal Kerning in Latin lookup 0 per glyph data 1" yacute dx=0 dy=0 dh=50 dv=0 dx=0 dy=0 dh=0 dv=0
PairPos2: "'kern' Horizontal Kerning in Latin lookup 0 per glyph data 1" udieresis dx=0 dy=0 dh=62 dv=0 dx=0 dy=0 dh=0 dv=0
PairPos2: "'kern' Horizontal Kerning in Latin lookup 0 per glyph data 1" ucircumflex dx=0 dy=0 dh=62 dv=0 dx=0 dy=0 dh=0 dv=0
PairPos2: "'kern' Horizontal Kerning in Latin lookup 0 per glyph data 1" uacute dx=0 dy=0 dh=62 dv=0 dx=0 dy=0 dh=0 dv=0
PairPos2: "'kern' Horizontal Kerning in Latin lookup 0 per glyph data 1" ugrave dx=0 dy=0 dh=62 dv=0 dx=0 dy=0 dh=0 dv=0
PairPos2: "'kern' Horizontal Kerning in Latin lookup 0 per glyph data 1" ntilde dx=0 dy=0 dh=55 dv=0 dx=0 dy=0 dh=0 dv=0
PairPos2: "'kern' Horizontal Kerning in Latin lookup 0 per glyph data 1" Yacute dx=0 dy=0 dh=110 dv=0 dx=0 dy=0 dh=0 dv=0
PairPos2: "'kern' Horizontal Kerning in Latin lookup 0 per glyph data 1" Udieresis dx=0 dy=0 dh=22 dv=0 dx=0 dy=0 dh=0 dv=0
PairPos2: "'kern' Horizontal Kerning in Latin lookup 0 per glyph data 1" Ucircumflex dx=0 dy=0 dh=22 dv=0 dx=0 dy=0 dh=0 dv=0
PairPos2: "'kern' Horizontal Kerning in Latin lookup 0 per glyph data 1" Uacute dx=0 dy=0 dh=22 dv=0 dx=0 dy=0 dh=0 dv=0
PairPos2: "'kern' Horizontal Kerning in Latin lookup 0 per glyph data 1" Ugrave dx=0 dy=0 dh=22 dv=0 dx=0 dy=0 dh=0 dv=0
PairPos2: "'kern' Horizontal Kerning in Latin lookup 0 per glyph data 1" Ntilde dx=0 dy=0 dh=34 dv=0 dx=0 dy=0 dh=0 dv=0
PairPos2: "'kern' Horizontal Kerning in Latin lookup 0 per glyph data 1" Eth dx=0 dy=0 dh=23 dv=0 dx=0 dy=0 dh=0 dv=0
PairPos2: "'kern' Horizontal Kerning in Latin lookup 0 per glyph data 1" AE dx=0 dy=0 dh=-43 dv=0 dx=0 dy=0 dh=0 dv=0
PairPos2: "'kern' Horizontal Kerning in Latin lookup 0 per glyph data 1" Aring dx=0 dy=0 dh=-43 dv=0 dx=0 dy=0 dh=0 dv=0
PairPos2: "'kern' Horizontal Kerning in Latin lookup 0 per glyph data 1" Adieresis dx=0 dy=0 dh=-43 dv=0 dx=0 dy=0 dh=0 dv=0
PairPos2: "'kern' Horizontal Kerning in Latin lookup 0 per glyph data 1" Atilde dx=0 dy=0 dh=-43 dv=0 dx=0 dy=0 dh=0 dv=0
PairPos2: "'kern' Horizontal Kerning in Latin lookup 0 per glyph data 1" Acircumflex dx=0 dy=0 dh=-43 dv=0 dx=0 dy=0 dh=0 dv=0
PairPos2: "'kern' Horizontal Kerning in Latin lookup 0 per glyph data 1" Aacute dx=0 dy=0 dh=-43 dv=0 dx=0 dy=0 dh=0 dv=0
PairPos2: "'kern' Horizontal Kerning in Latin lookup 0 per glyph data 1" Agrave dx=0 dy=0 dh=-43 dv=0 dx=0 dy=0 dh=0 dv=0
PairPos2: "'kern' Horizontal Kerning in Latin lookup 0 per glyph data 1" y dx=0 dy=0 dh=50 dv=0 dx=0 dy=0 dh=0 dv=0
PairPos2: "'kern' Horizontal Kerning in Latin lookup 0 per glyph data 1" x dx=0 dy=0 dh=15 dv=0 dx=0 dy=0 dh=0 dv=0
PairPos2: "'kern' Horizontal Kerning in Latin lookup 0 per glyph data 1" w dx=0 dy=0 dh=59 dv=0 dx=0 dy=0 dh=0 dv=0
PairPos2: "'kern' Horizontal Kerning in Latin lookup 0 per glyph data 1" v dx=0 dy=0 dh=70 dv=0 dx=0 dy=0 dh=0 dv=0
PairPos2: "'kern' Horizontal Kerning in Latin lookup 0 per glyph data 1" u dx=0 dy=0 dh=62 dv=0 dx=0 dy=0 dh=0 dv=0
PairPos2: "'kern' Horizontal Kerning in Latin lookup 0 per glyph data 1" r dx=0 dy=0 dh=55 dv=0 dx=0 dy=0 dh=0 dv=0
PairPos2: "'kern' Horizontal Kerning in Latin lookup 0 per glyph data 1" p dx=0 dy=0 dh=53 dv=0 dx=0 dy=0 dh=0 dv=0
PairPos2: "'kern' Horizontal Kerning in Latin lookup 0 per glyph data 1" n dx=0 dy=0 dh=55 dv=0 dx=0 dy=0 dh=0 dv=0
PairPos2: "'kern' Horizontal Kerning in Latin lookup 0 per glyph data 1" m dx=0 dy=0 dh=55 dv=0 dx=0 dy=0 dh=0 dv=0
PairPos2: "'kern' Horizontal Kerning in Latin lookup 0 per glyph data 1" Z dx=0 dy=0 dh=-19 dv=0 dx=0 dy=0 dh=0 dv=0
PairPos2: "'kern' Horizontal Kerning in Latin lookup 0 per glyph data 1" Y dx=0 dy=0 dh=110 dv=0 dx=0 dy=0 dh=0 dv=0
PairPos2: "'kern' Horizontal Kerning in Latin lookup 0 per glyph data 1" X dx=0 dy=0 dh=36 dv=0 dx=0 dy=0 dh=0 dv=0
PairPos2: "'kern' Horizontal Kerning in Latin lookup 0 per glyph data 1" W dx=0 dy=0 dh=96 dv=0 dx=0 dy=0 dh=0 dv=0
PairPos2: "'kern' Horizontal Kerning in Latin lookup 0 per glyph data 1" V dx=0 dy=0 dh=92 dv=0 dx=0 dy=0 dh=0 dv=0
PairPos2: "'kern' Horizontal Kerning in Latin lookup 0 per glyph data 1" U dx=0 dy=0 dh=22 dv=0 dx=0 dy=0 dh=0 dv=0
PairPos2: "'kern' Horizontal Kerning in Latin lookup 0 per glyph data 1" T dx=0 dy=0 dh=44 dv=0 dx=0 dy=0 dh=0 dv=0
PairPos2: "'kern' Horizontal Kerning in Latin lookup 0 per glyph data 1" R dx=0 dy=0 dh=23 dv=0 dx=0 dy=0 dh=0 dv=0
PairPos2: "'kern' Horizontal Kerning in Latin lookup 0 per glyph data 1" P dx=0 dy=0 dh=33 dv=0 dx=0 dy=0 dh=0 dv=0
PairPos2: "'kern' Horizontal Kerning in Latin lookup 0 per glyph data 1" N dx=0 dy=0 dh=34 dv=0 dx=0 dy=0 dh=0 dv=0
PairPos2: "'kern' Horizontal Kerning in Latin lookup 0 per glyph data 1" M dx=0 dy=0 dh=15 dv=0 dx=0 dy=0 dh=0 dv=0
PairPos2: "'kern' Horizontal Kerning in Latin lookup 0 per glyph data 1" J dx=0 dy=0 dh=18 dv=0 dx=0 dy=0 dh=0 dv=0
PairPos2: "'kern' Horizontal Kerning in Latin lookup 0 per glyph data 1" F dx=0 dy=0 dh=18 dv=0 dx=0 dy=0 dh=0 dv=0
PairPos2: "'kern' Horizontal Kerning in Latin lookup 0 per glyph data 1" D dx=0 dy=0 dh=23 dv=0 dx=0 dy=0 dh=0 dv=0
PairPos2: "'kern' Horizontal Kerning in Latin lookup 0 per glyph data 1" B dx=0 dy=0 dh=23 dv=0 dx=0 dy=0 dh=0 dv=0
PairPos2: "'kern' Horizontal Kerning in Latin lookup 0 per glyph data 1" A dx=0 dy=0 dh=-43 dv=0 dx=0 dy=0 dh=0 dv=0
EndChar

StartChar: plus
Encoding: 43 43 14
Width: 1030
GlyphClass: 2
Flags: W
LayerCount: 2
Fore
SplineSet
978 615 m 1,0,1
 965 614 965 614 912 567 c 0,2,3
 811 479 811 479 784 479 c 2,4,-1
 617 479 l 1,5,-1
 617 254 l 2,6,7
 617 236 617 236 557.5 201 c 128,-1,8
 498 166 498 166 476 153 c 0,9,10
 425 123 425 123 423 118 c 1,11,-1
 423 479 l 1,12,-1
 62 479 l 1,13,14
 76 480 76 480 128 527 c 1,15,16
 229 615 229 615 256 615 c 2,17,-1
 423 615 l 1,18,-1
 423 840 l 2,19,20
 423 853 423 853 458 875.5 c 128,-1,21
 493 898 493 898 517.5 913 c 128,-1,22
 542 928 542 928 564 940 c 0,23,24
 613 968 613 968 617 976 c 1,25,-1
 617 615 l 1,26,-1
 978 615 l 1,0,1
EndSplineSet
EndChar

StartChar: comma
Encoding: 44 44 15
Width: 483
GlyphClass: 2
Flags: W
LayerCount: 2
Fore
SplineSet
187 -280 m 1,0,1
 290 -177 290 -177 290 -68 c 0,2,3
 290 -27 290 -27 274.5 -14.5 c 128,-1,4
 259 -2 259 -2 246.5 -2 c 128,-1,5
 234 -2 234 -2 223.5 -9.5 c 128,-1,6
 213 -17 213 -17 206 -21 c 0,7,8
 190 -31 190 -31 190 -30 c 2,9,-1
 85 137 l 1,10,11
 81 141 81 141 117 167 c 128,-1,12
 153 193 153 193 178.5 210 c 128,-1,13
 204 227 204 227 226 242 c 0,14,15
 278 275 278 275 280 273 c 0,16,17
 293 252 293 252 307.5 230.5 c 128,-1,18
 322 209 322 209 336 188 c 0,19,20
 368 136 368 136 379 96 c 128,-1,21
 390 56 390 56 388 13.5 c 128,-1,22
 386 -29 386 -29 372 -70 c 0,23,24
 344 -154 344 -154 282 -216 c 0,25,26
 264 -234 264 -234 229 -253.5 c 128,-1,27
 194 -273 194 -273 187 -280 c 1,0,1
EndSplineSet
PairPos2: "'kern' Horizontal Kerning in Latin lookup 0 per glyph data 1" quotedblright dx=0 dy=0 dh=-210 dv=0 dx=0 dy=0 dh=0 dv=0
PairPos2: "'kern' Horizontal Kerning in Latin lookup 0 per glyph data 1" quotedblleft dx=0 dy=0 dh=-207 dv=0 dx=0 dy=0 dh=0 dv=0
PairPos2: "'kern' Horizontal Kerning in Latin lookup 0 per glyph data 1" quoteright dx=0 dy=0 dh=-210 dv=0 dx=0 dy=0 dh=0 dv=0
PairPos2: "'kern' Horizontal Kerning in Latin lookup 0 per glyph data 1" quoteleft dx=0 dy=0 dh=-207 dv=0 dx=0 dy=0 dh=0 dv=0
PairPos2: "'kern' Horizontal Kerning in Latin lookup 0 per glyph data 1" Ygrave dx=0 dy=0 dh=-118 dv=0 dx=0 dy=0 dh=0 dv=0
PairPos2: "'kern' Horizontal Kerning in Latin lookup 0 per glyph data 1" wdieresis dx=0 dy=0 dh=-64 dv=0 dx=0 dy=0 dh=0 dv=0
PairPos2: "'kern' Horizontal Kerning in Latin lookup 0 per glyph data 1" Wdieresis dx=0 dy=0 dh=-129 dv=0 dx=0 dy=0 dh=0 dv=0
PairPos2: "'kern' Horizontal Kerning in Latin lookup 0 per glyph data 1" wacute dx=0 dy=0 dh=-64 dv=0 dx=0 dy=0 dh=0 dv=0
PairPos2: "'kern' Horizontal Kerning in Latin lookup 0 per glyph data 1" Wacute dx=0 dy=0 dh=-129 dv=0 dx=0 dy=0 dh=0 dv=0
PairPos2: "'kern' Horizontal Kerning in Latin lookup 0 per glyph data 1" wgrave dx=0 dy=0 dh=-64 dv=0 dx=0 dy=0 dh=0 dv=0
PairPos2: "'kern' Horizontal Kerning in Latin lookup 0 per glyph data 1" Wgrave dx=0 dy=0 dh=-129 dv=0 dx=0 dy=0 dh=0 dv=0
PairPos2: "'kern' Horizontal Kerning in Latin lookup 0 per glyph data 1" Ydieresis dx=0 dy=0 dh=-118 dv=0 dx=0 dy=0 dh=0 dv=0
PairPos2: "'kern' Horizontal Kerning in Latin lookup 0 per glyph data 1" Ycircumflex dx=0 dy=0 dh=-118 dv=0 dx=0 dy=0 dh=0 dv=0
PairPos2: "'kern' Horizontal Kerning in Latin lookup 0 per glyph data 1" wcircumflex dx=0 dy=0 dh=-64 dv=0 dx=0 dy=0 dh=0 dv=0
PairPos2: "'kern' Horizontal Kerning in Latin lookup 0 per glyph data 1" Wcircumflex dx=0 dy=0 dh=-129 dv=0 dx=0 dy=0 dh=0 dv=0
PairPos2: "'kern' Horizontal Kerning in Latin lookup 0 per glyph data 1" Uogonek dx=0 dy=0 dh=-29 dv=0 dx=0 dy=0 dh=0 dv=0
PairPos2: "'kern' Horizontal Kerning in Latin lookup 0 per glyph data 1" Uhungarumlaut dx=0 dy=0 dh=-29 dv=0 dx=0 dy=0 dh=0 dv=0
PairPos2: "'kern' Horizontal Kerning in Latin lookup 0 per glyph data 1" Uring dx=0 dy=0 dh=-29 dv=0 dx=0 dy=0 dh=0 dv=0
PairPos2: "'kern' Horizontal Kerning in Latin lookup 0 per glyph data 1" Ubreve dx=0 dy=0 dh=-29 dv=0 dx=0 dy=0 dh=0 dv=0
PairPos2: "'kern' Horizontal Kerning in Latin lookup 0 per glyph data 1" Umacron dx=0 dy=0 dh=-29 dv=0 dx=0 dy=0 dh=0 dv=0
PairPos2: "'kern' Horizontal Kerning in Latin lookup 0 per glyph data 1" Utilde dx=0 dy=0 dh=-29 dv=0 dx=0 dy=0 dh=0 dv=0
PairPos2: "'kern' Horizontal Kerning in Latin lookup 0 per glyph data 1" Tbar dx=0 dy=0 dh=-114 dv=0 dx=0 dy=0 dh=0 dv=0
PairPos2: "'kern' Horizontal Kerning in Latin lookup 0 per glyph data 1" Tcaron dx=0 dy=0 dh=-114 dv=0 dx=0 dy=0 dh=0 dv=0
PairPos2: "'kern' Horizontal Kerning in Latin lookup 0 per glyph data 1" Tcommaaccent dx=0 dy=0 dh=-114 dv=0 dx=0 dy=0 dh=0 dv=0
PairPos2: "'kern' Horizontal Kerning in Latin lookup 0 per glyph data 1" Jcircumflex dx=0 dy=0 dh=101 dv=0 dx=0 dy=0 dh=0 dv=0
PairPos2: "'kern' Horizontal Kerning in Latin lookup 0 per glyph data 1" Yacute dx=0 dy=0 dh=-118 dv=0 dx=0 dy=0 dh=0 dv=0
PairPos2: "'kern' Horizontal Kerning in Latin lookup 0 per glyph data 1" Udieresis dx=0 dy=0 dh=-29 dv=0 dx=0 dy=0 dh=0 dv=0
PairPos2: "'kern' Horizontal Kerning in Latin lookup 0 per glyph data 1" Ucircumflex dx=0 dy=0 dh=-29 dv=0 dx=0 dy=0 dh=0 dv=0
PairPos2: "'kern' Horizontal Kerning in Latin lookup 0 per glyph data 1" Uacute dx=0 dy=0 dh=-29 dv=0 dx=0 dy=0 dh=0 dv=0
PairPos2: "'kern' Horizontal Kerning in Latin lookup 0 per glyph data 1" Ugrave dx=0 dy=0 dh=-29 dv=0 dx=0 dy=0 dh=0 dv=0
PairPos2: "'kern' Horizontal Kerning in Latin lookup 0 per glyph data 1" w dx=0 dy=0 dh=-64 dv=0 dx=0 dy=0 dh=0 dv=0
PairPos2: "'kern' Horizontal Kerning in Latin lookup 0 per glyph data 1" v dx=0 dy=0 dh=-68 dv=0 dx=0 dy=0 dh=0 dv=0
PairPos2: "'kern' Horizontal Kerning in Latin lookup 0 per glyph data 1" Y dx=0 dy=0 dh=-118 dv=0 dx=0 dy=0 dh=0 dv=0
PairPos2: "'kern' Horizontal Kerning in Latin lookup 0 per glyph data 1" W dx=0 dy=0 dh=-129 dv=0 dx=0 dy=0 dh=0 dv=0
PairPos2: "'kern' Horizontal Kerning in Latin lookup 0 per glyph data 1" V dx=0 dy=0 dh=-134 dv=0 dx=0 dy=0 dh=0 dv=0
PairPos2: "'kern' Horizontal Kerning in Latin lookup 0 per glyph data 1" U dx=0 dy=0 dh=-29 dv=0 dx=0 dy=0 dh=0 dv=0
PairPos2: "'kern' Horizontal Kerning in Latin lookup 0 per glyph data 1" T dx=0 dy=0 dh=-114 dv=0 dx=0 dy=0 dh=0 dv=0
PairPos2: "'kern' Horizontal Kerning in Latin lookup 0 per glyph data 1" J dx=0 dy=0 dh=101 dv=0 dx=0 dy=0 dh=0 dv=0
PairPos2: "'kern' Horizontal Kerning in Latin lookup 0 per glyph data 1" nine dx=0 dy=0 dh=-22 dv=0 dx=0 dy=0 dh=0 dv=0
PairPos2: "'kern' Horizontal Kerning in Latin lookup 0 per glyph data 1" seven dx=0 dy=0 dh=-122 dv=0 dx=0 dy=0 dh=0 dv=0
PairPos2: "'kern' Horizontal Kerning in Latin lookup 0 per glyph data 1" five dx=0 dy=0 dh=-29 dv=0 dx=0 dy=0 dh=0 dv=0
PairPos2: "'kern' Horizontal Kerning in Latin lookup 0 per glyph data 1" three dx=0 dy=0 dh=-77 dv=0 dx=0 dy=0 dh=0 dv=0
PairPos2: "'kern' Horizontal Kerning in Latin lookup 0 per glyph data 1" quotesingle dx=0 dy=0 dh=-199 dv=0 dx=0 dy=0 dh=0 dv=0
PairPos2: "'kern' Horizontal Kerning in Latin lookup 0 per glyph data 1" quotedbl dx=0 dy=0 dh=-207 dv=0 dx=0 dy=0 dh=0 dv=0
EndChar

StartChar: hyphen
Encoding: 45 45 16
Width: 1179
GlyphClass: 2
Flags: W
LayerCount: 2
Fore
SplineSet
1054 615 m 1,0,1
 1041 614 1041 614 988 567 c 0,2,3
 887 479 887 479 860 479 c 2,4,-1
 138 479 l 1,5,6
 150 480 150 480 203.5 526.5 c 128,-1,7
 257 573 257 573 285.5 594 c 128,-1,8
 314 615 314 615 332 615 c 2,9,-1
 1054 615 l 1,0,1
EndSplineSet
EndChar

StartChar: period
Encoding: 46 46 17
Width: 471
GlyphClass: 2
Flags: W
LayerCount: 2
Fore
SplineSet
383 106 m 1,0,-1
 189 -30 l 1,1,-1
 84 137 l 1,2,-1
 278 273 l 1,3,-1
 383 106 l 1,0,-1
EndSplineSet
PairPos2: "'kern' Horizontal Kerning in Latin lookup 0 per glyph data 1" quotedblright dx=0 dy=0 dh=-210 dv=0 dx=0 dy=0 dh=0 dv=0
PairPos2: "'kern' Horizontal Kerning in Latin lookup 0 per glyph data 1" quotedblleft dx=0 dy=0 dh=-207 dv=0 dx=0 dy=0 dh=0 dv=0
PairPos2: "'kern' Horizontal Kerning in Latin lookup 0 per glyph data 1" quoteright dx=0 dy=0 dh=-210 dv=0 dx=0 dy=0 dh=0 dv=0
PairPos2: "'kern' Horizontal Kerning in Latin lookup 0 per glyph data 1" quoteleft dx=0 dy=0 dh=-207 dv=0 dx=0 dy=0 dh=0 dv=0
PairPos2: "'kern' Horizontal Kerning in Latin lookup 0 per glyph data 1" Ygrave dx=0 dy=0 dh=-118 dv=0 dx=0 dy=0 dh=0 dv=0
PairPos2: "'kern' Horizontal Kerning in Latin lookup 0 per glyph data 1" wdieresis dx=0 dy=0 dh=-64 dv=0 dx=0 dy=0 dh=0 dv=0
PairPos2: "'kern' Horizontal Kerning in Latin lookup 0 per glyph data 1" Wdieresis dx=0 dy=0 dh=-129 dv=0 dx=0 dy=0 dh=0 dv=0
PairPos2: "'kern' Horizontal Kerning in Latin lookup 0 per glyph data 1" wacute dx=0 dy=0 dh=-64 dv=0 dx=0 dy=0 dh=0 dv=0
PairPos2: "'kern' Horizontal Kerning in Latin lookup 0 per glyph data 1" Wacute dx=0 dy=0 dh=-129 dv=0 dx=0 dy=0 dh=0 dv=0
PairPos2: "'kern' Horizontal Kerning in Latin lookup 0 per glyph data 1" wgrave dx=0 dy=0 dh=-64 dv=0 dx=0 dy=0 dh=0 dv=0
PairPos2: "'kern' Horizontal Kerning in Latin lookup 0 per glyph data 1" Wgrave dx=0 dy=0 dh=-129 dv=0 dx=0 dy=0 dh=0 dv=0
PairPos2: "'kern' Horizontal Kerning in Latin lookup 0 per glyph data 1" Ydieresis dx=0 dy=0 dh=-118 dv=0 dx=0 dy=0 dh=0 dv=0
PairPos2: "'kern' Horizontal Kerning in Latin lookup 0 per glyph data 1" Ycircumflex dx=0 dy=0 dh=-118 dv=0 dx=0 dy=0 dh=0 dv=0
PairPos2: "'kern' Horizontal Kerning in Latin lookup 0 per glyph data 1" wcircumflex dx=0 dy=0 dh=-64 dv=0 dx=0 dy=0 dh=0 dv=0
PairPos2: "'kern' Horizontal Kerning in Latin lookup 0 per glyph data 1" Wcircumflex dx=0 dy=0 dh=-129 dv=0 dx=0 dy=0 dh=0 dv=0
PairPos2: "'kern' Horizontal Kerning in Latin lookup 0 per glyph data 1" Uogonek dx=0 dy=0 dh=-29 dv=0 dx=0 dy=0 dh=0 dv=0
PairPos2: "'kern' Horizontal Kerning in Latin lookup 0 per glyph data 1" Uhungarumlaut dx=0 dy=0 dh=-29 dv=0 dx=0 dy=0 dh=0 dv=0
PairPos2: "'kern' Horizontal Kerning in Latin lookup 0 per glyph data 1" Uring dx=0 dy=0 dh=-29 dv=0 dx=0 dy=0 dh=0 dv=0
PairPos2: "'kern' Horizontal Kerning in Latin lookup 0 per glyph data 1" Ubreve dx=0 dy=0 dh=-29 dv=0 dx=0 dy=0 dh=0 dv=0
PairPos2: "'kern' Horizontal Kerning in Latin lookup 0 per glyph data 1" Umacron dx=0 dy=0 dh=-29 dv=0 dx=0 dy=0 dh=0 dv=0
PairPos2: "'kern' Horizontal Kerning in Latin lookup 0 per glyph data 1" Utilde dx=0 dy=0 dh=-29 dv=0 dx=0 dy=0 dh=0 dv=0
PairPos2: "'kern' Horizontal Kerning in Latin lookup 0 per glyph data 1" Tbar dx=0 dy=0 dh=-114 dv=0 dx=0 dy=0 dh=0 dv=0
PairPos2: "'kern' Horizontal Kerning in Latin lookup 0 per glyph data 1" Tcaron dx=0 dy=0 dh=-114 dv=0 dx=0 dy=0 dh=0 dv=0
PairPos2: "'kern' Horizontal Kerning in Latin lookup 0 per glyph data 1" Tcommaaccent dx=0 dy=0 dh=-114 dv=0 dx=0 dy=0 dh=0 dv=0
PairPos2: "'kern' Horizontal Kerning in Latin lookup 0 per glyph data 1" Jcircumflex dx=0 dy=0 dh=-16 dv=0 dx=0 dy=0 dh=0 dv=0
PairPos2: "'kern' Horizontal Kerning in Latin lookup 0 per glyph data 1" Yacute dx=0 dy=0 dh=-118 dv=0 dx=0 dy=0 dh=0 dv=0
PairPos2: "'kern' Horizontal Kerning in Latin lookup 0 per glyph data 1" Udieresis dx=0 dy=0 dh=-29 dv=0 dx=0 dy=0 dh=0 dv=0
PairPos2: "'kern' Horizontal Kerning in Latin lookup 0 per glyph data 1" Ucircumflex dx=0 dy=0 dh=-29 dv=0 dx=0 dy=0 dh=0 dv=0
PairPos2: "'kern' Horizontal Kerning in Latin lookup 0 per glyph data 1" Uacute dx=0 dy=0 dh=-29 dv=0 dx=0 dy=0 dh=0 dv=0
PairPos2: "'kern' Horizontal Kerning in Latin lookup 0 per glyph data 1" Ugrave dx=0 dy=0 dh=-29 dv=0 dx=0 dy=0 dh=0 dv=0
PairPos2: "'kern' Horizontal Kerning in Latin lookup 0 per glyph data 1" w dx=0 dy=0 dh=-64 dv=0 dx=0 dy=0 dh=0 dv=0
PairPos2: "'kern' Horizontal Kerning in Latin lookup 0 per glyph data 1" v dx=0 dy=0 dh=-68 dv=0 dx=0 dy=0 dh=0 dv=0
PairPos2: "'kern' Horizontal Kerning in Latin lookup 0 per glyph data 1" Y dx=0 dy=0 dh=-118 dv=0 dx=0 dy=0 dh=0 dv=0
PairPos2: "'kern' Horizontal Kerning in Latin lookup 0 per glyph data 1" W dx=0 dy=0 dh=-129 dv=0 dx=0 dy=0 dh=0 dv=0
PairPos2: "'kern' Horizontal Kerning in Latin lookup 0 per glyph data 1" V dx=0 dy=0 dh=-134 dv=0 dx=0 dy=0 dh=0 dv=0
PairPos2: "'kern' Horizontal Kerning in Latin lookup 0 per glyph data 1" U dx=0 dy=0 dh=-29 dv=0 dx=0 dy=0 dh=0 dv=0
PairPos2: "'kern' Horizontal Kerning in Latin lookup 0 per glyph data 1" T dx=0 dy=0 dh=-114 dv=0 dx=0 dy=0 dh=0 dv=0
PairPos2: "'kern' Horizontal Kerning in Latin lookup 0 per glyph data 1" J dx=0 dy=0 dh=-16 dv=0 dx=0 dy=0 dh=0 dv=0
PairPos2: "'kern' Horizontal Kerning in Latin lookup 0 per glyph data 1" nine dx=0 dy=0 dh=-22 dv=0 dx=0 dy=0 dh=0 dv=0
PairPos2: "'kern' Horizontal Kerning in Latin lookup 0 per glyph data 1" seven dx=0 dy=0 dh=-122 dv=0 dx=0 dy=0 dh=0 dv=0
PairPos2: "'kern' Horizontal Kerning in Latin lookup 0 per glyph data 1" five dx=0 dy=0 dh=-29 dv=0 dx=0 dy=0 dh=0 dv=0
PairPos2: "'kern' Horizontal Kerning in Latin lookup 0 per glyph data 1" three dx=0 dy=0 dh=-77 dv=0 dx=0 dy=0 dh=0 dv=0
PairPos2: "'kern' Horizontal Kerning in Latin lookup 0 per glyph data 1" quotesingle dx=0 dy=0 dh=-199 dv=0 dx=0 dy=0 dh=0 dv=0
PairPos2: "'kern' Horizontal Kerning in Latin lookup 0 per glyph data 1" quotedbl dx=0 dy=0 dh=-207 dv=0 dx=0 dy=0 dh=0 dv=0
EndChar

StartChar: slash
Encoding: 47 47 18
Width: 928
GlyphClass: 2
Flags: W
LayerCount: 2
Fore
SplineSet
850 1439 m 1,0,1
 635 774 635 774 257 136 c 1,2,3
 230 99 230 99 182 74 c 0,4,5
 86 24 86 24 63 0 c 1,6,7
 355 477 355 477 572 1064 c 0,8,9
 607 1159 607 1159 656 1303 c 1,10,11
 671 1334 671 1334 724 1362 c 0,12,13
 828 1417 828 1417 850 1439 c 1,0,1
EndSplineSet
PairPos2: "'kern' Horizontal Kerning in Latin lookup 0 per glyph data 1" Ygrave dx=0 dy=0 dh=59 dv=0 dx=0 dy=0 dh=0 dv=0
PairPos2: "'kern' Horizontal Kerning in Latin lookup 0 per glyph data 1" Wdieresis dx=0 dy=0 dh=45 dv=0 dx=0 dy=0 dh=0 dv=0
PairPos2: "'kern' Horizontal Kerning in Latin lookup 0 per glyph data 1" Wacute dx=0 dy=0 dh=45 dv=0 dx=0 dy=0 dh=0 dv=0
PairPos2: "'kern' Horizontal Kerning in Latin lookup 0 per glyph data 1" Wgrave dx=0 dy=0 dh=45 dv=0 dx=0 dy=0 dh=0 dv=0
PairPos2: "'kern' Horizontal Kerning in Latin lookup 0 per glyph data 1" oslashacute dx=0 dy=0 dh=-66 dv=0 dx=0 dy=0 dh=0 dv=0
PairPos2: "'kern' Horizontal Kerning in Latin lookup 0 per glyph data 1" Oslashacute dx=0 dy=0 dh=-22 dv=0 dx=0 dy=0 dh=0 dv=0
PairPos2: "'kern' Horizontal Kerning in Latin lookup 0 per glyph data 1" aeacute dx=0 dy=0 dh=-58 dv=0 dx=0 dy=0 dh=0 dv=0
PairPos2: "'kern' Horizontal Kerning in Latin lookup 0 per glyph data 1" AEacute dx=0 dy=0 dh=-33 dv=0 dx=0 dy=0 dh=0 dv=0
PairPos2: "'kern' Horizontal Kerning in Latin lookup 0 per glyph data 1" zcaron dx=0 dy=0 dh=-28 dv=0 dx=0 dy=0 dh=0 dv=0
PairPos2: "'kern' Horizontal Kerning in Latin lookup 0 per glyph data 1" zdotaccent dx=0 dy=0 dh=-28 dv=0 dx=0 dy=0 dh=0 dv=0
PairPos2: "'kern' Horizontal Kerning in Latin lookup 0 per glyph data 1" zacute dx=0 dy=0 dh=-28 dv=0 dx=0 dy=0 dh=0 dv=0
PairPos2: "'kern' Horizontal Kerning in Latin lookup 0 per glyph data 1" Ydieresis dx=0 dy=0 dh=59 dv=0 dx=0 dy=0 dh=0 dv=0
PairPos2: "'kern' Horizontal Kerning in Latin lookup 0 per glyph data 1" Ycircumflex dx=0 dy=0 dh=59 dv=0 dx=0 dy=0 dh=0 dv=0
PairPos2: "'kern' Horizontal Kerning in Latin lookup 0 per glyph data 1" Wcircumflex dx=0 dy=0 dh=45 dv=0 dx=0 dy=0 dh=0 dv=0
PairPos2: "'kern' Horizontal Kerning in Latin lookup 0 per glyph data 1" scaron dx=0 dy=0 dh=-54 dv=0 dx=0 dy=0 dh=0 dv=0
PairPos2: "'kern' Horizontal Kerning in Latin lookup 0 per glyph data 1" scedilla dx=0 dy=0 dh=-54 dv=0 dx=0 dy=0 dh=0 dv=0
PairPos2: "'kern' Horizontal Kerning in Latin lookup 0 per glyph data 1" scircumflex dx=0 dy=0 dh=-54 dv=0 dx=0 dy=0 dh=0 dv=0
PairPos2: "'kern' Horizontal Kerning in Latin lookup 0 per glyph data 1" sacute dx=0 dy=0 dh=-54 dv=0 dx=0 dy=0 dh=0 dv=0
PairPos2: "'kern' Horizontal Kerning in Latin lookup 0 per glyph data 1" oe dx=0 dy=0 dh=-66 dv=0 dx=0 dy=0 dh=0 dv=0
PairPos2: "'kern' Horizontal Kerning in Latin lookup 0 per glyph data 1" OE dx=0 dy=0 dh=-22 dv=0 dx=0 dy=0 dh=0 dv=0
PairPos2: "'kern' Horizontal Kerning in Latin lookup 0 per glyph data 1" ohungarumlaut dx=0 dy=0 dh=-66 dv=0 dx=0 dy=0 dh=0 dv=0
PairPos2: "'kern' Horizontal Kerning in Latin lookup 0 per glyph data 1" Ohungarumlaut dx=0 dy=0 dh=-22 dv=0 dx=0 dy=0 dh=0 dv=0
PairPos2: "'kern' Horizontal Kerning in Latin lookup 0 per glyph data 1" obreve dx=0 dy=0 dh=-66 dv=0 dx=0 dy=0 dh=0 dv=0
PairPos2: "'kern' Horizontal Kerning in Latin lookup 0 per glyph data 1" Obreve dx=0 dy=0 dh=-22 dv=0 dx=0 dy=0 dh=0 dv=0
PairPos2: "'kern' Horizontal Kerning in Latin lookup 0 per glyph data 1" omacron dx=0 dy=0 dh=-66 dv=0 dx=0 dy=0 dh=0 dv=0
PairPos2: "'kern' Horizontal Kerning in Latin lookup 0 per glyph data 1" Omacron dx=0 dy=0 dh=-22 dv=0 dx=0 dy=0 dh=0 dv=0
PairPos2: "'kern' Horizontal Kerning in Latin lookup 0 per glyph data 1" gcommaaccent dx=0 dy=0 dh=-61 dv=0 dx=0 dy=0 dh=0 dv=0
PairPos2: "'kern' Horizontal Kerning in Latin lookup 0 per glyph data 1" gdotaccent dx=0 dy=0 dh=-61 dv=0 dx=0 dy=0 dh=0 dv=0
PairPos2: "'kern' Horizontal Kerning in Latin lookup 0 per glyph data 1" gbreve dx=0 dy=0 dh=-61 dv=0 dx=0 dy=0 dh=0 dv=0
PairPos2: "'kern' Horizontal Kerning in Latin lookup 0 per glyph data 1" gcircumflex dx=0 dy=0 dh=-61 dv=0 dx=0 dy=0 dh=0 dv=0
PairPos2: "'kern' Horizontal Kerning in Latin lookup 0 per glyph data 1" ecaron dx=0 dy=0 dh=-69 dv=0 dx=0 dy=0 dh=0 dv=0
PairPos2: "'kern' Horizontal Kerning in Latin lookup 0 per glyph data 1" eogonek dx=0 dy=0 dh=-69 dv=0 dx=0 dy=0 dh=0 dv=0
PairPos2: "'kern' Horizontal Kerning in Latin lookup 0 per glyph data 1" edotaccent dx=0 dy=0 dh=-69 dv=0 dx=0 dy=0 dh=0 dv=0
PairPos2: "'kern' Horizontal Kerning in Latin lookup 0 per glyph data 1" ebreve dx=0 dy=0 dh=-69 dv=0 dx=0 dy=0 dh=0 dv=0
PairPos2: "'kern' Horizontal Kerning in Latin lookup 0 per glyph data 1" emacron dx=0 dy=0 dh=-69 dv=0 dx=0 dy=0 dh=0 dv=0
PairPos2: "'kern' Horizontal Kerning in Latin lookup 0 per glyph data 1" dcaron dx=0 dy=0 dh=-66 dv=0 dx=0 dy=0 dh=0 dv=0
PairPos2: "'kern' Horizontal Kerning in Latin lookup 0 per glyph data 1" ccaron dx=0 dy=0 dh=-68 dv=0 dx=0 dy=0 dh=0 dv=0
PairPos2: "'kern' Horizontal Kerning in Latin lookup 0 per glyph data 1" Ccaron dx=0 dy=0 dh=-23 dv=0 dx=0 dy=0 dh=0 dv=0
PairPos2: "'kern' Horizontal Kerning in Latin lookup 0 per glyph data 1" cdotaccent dx=0 dy=0 dh=-68 dv=0 dx=0 dy=0 dh=0 dv=0
PairPos2: "'kern' Horizontal Kerning in Latin lookup 0 per glyph data 1" Cdotaccent dx=0 dy=0 dh=-23 dv=0 dx=0 dy=0 dh=0 dv=0
PairPos2: "'kern' Horizontal Kerning in Latin lookup 0 per glyph data 1" ccircumflex dx=0 dy=0 dh=-68 dv=0 dx=0 dy=0 dh=0 dv=0
PairPos2: "'kern' Horizontal Kerning in Latin lookup 0 per glyph data 1" Ccircumflex dx=0 dy=0 dh=-23 dv=0 dx=0 dy=0 dh=0 dv=0
PairPos2: "'kern' Horizontal Kerning in Latin lookup 0 per glyph data 1" cacute dx=0 dy=0 dh=-68 dv=0 dx=0 dy=0 dh=0 dv=0
PairPos2: "'kern' Horizontal Kerning in Latin lookup 0 per glyph data 1" Cacute dx=0 dy=0 dh=-23 dv=0 dx=0 dy=0 dh=0 dv=0
PairPos2: "'kern' Horizontal Kerning in Latin lookup 0 per glyph data 1" aogonek dx=0 dy=0 dh=-58 dv=0 dx=0 dy=0 dh=0 dv=0
PairPos2: "'kern' Horizontal Kerning in Latin lookup 0 per glyph data 1" Aogonek dx=0 dy=0 dh=-33 dv=0 dx=0 dy=0 dh=0 dv=0
PairPos2: "'kern' Horizontal Kerning in Latin lookup 0 per glyph data 1" abreve dx=0 dy=0 dh=-58 dv=0 dx=0 dy=0 dh=0 dv=0
PairPos2: "'kern' Horizontal Kerning in Latin lookup 0 per glyph data 1" Abreve dx=0 dy=0 dh=-33 dv=0 dx=0 dy=0 dh=0 dv=0
PairPos2: "'kern' Horizontal Kerning in Latin lookup 0 per glyph data 1" amacron dx=0 dy=0 dh=-58 dv=0 dx=0 dy=0 dh=0 dv=0
PairPos2: "'kern' Horizontal Kerning in Latin lookup 0 per glyph data 1" Amacron dx=0 dy=0 dh=-33 dv=0 dx=0 dy=0 dh=0 dv=0
PairPos2: "'kern' Horizontal Kerning in Latin lookup 0 per glyph data 1" oslash dx=0 dy=0 dh=-66 dv=0 dx=0 dy=0 dh=0 dv=0
PairPos2: "'kern' Horizontal Kerning in Latin lookup 0 per glyph data 1" odieresis dx=0 dy=0 dh=-66 dv=0 dx=0 dy=0 dh=0 dv=0
PairPos2: "'kern' Horizontal Kerning in Latin lookup 0 per glyph data 1" otilde dx=0 dy=0 dh=-66 dv=0 dx=0 dy=0 dh=0 dv=0
PairPos2: "'kern' Horizontal Kerning in Latin lookup 0 per glyph data 1" ocircumflex dx=0 dy=0 dh=-66 dv=0 dx=0 dy=0 dh=0 dv=0
PairPos2: "'kern' Horizontal Kerning in Latin lookup 0 per glyph data 1" oacute dx=0 dy=0 dh=-66 dv=0 dx=0 dy=0 dh=0 dv=0
PairPos2: "'kern' Horizontal Kerning in Latin lookup 0 per glyph data 1" ograve dx=0 dy=0 dh=-66 dv=0 dx=0 dy=0 dh=0 dv=0
PairPos2: "'kern' Horizontal Kerning in Latin lookup 0 per glyph data 1" eth dx=0 dy=0 dh=-66 dv=0 dx=0 dy=0 dh=0 dv=0
PairPos2: "'kern' Horizontal Kerning in Latin lookup 0 per glyph data 1" edieresis dx=0 dy=0 dh=-69 dv=0 dx=0 dy=0 dh=0 dv=0
PairPos2: "'kern' Horizontal Kerning in Latin lookup 0 per glyph data 1" ecircumflex dx=0 dy=0 dh=-69 dv=0 dx=0 dy=0 dh=0 dv=0
PairPos2: "'kern' Horizontal Kerning in Latin lookup 0 per glyph data 1" eacute dx=0 dy=0 dh=-69 dv=0 dx=0 dy=0 dh=0 dv=0
PairPos2: "'kern' Horizontal Kerning in Latin lookup 0 per glyph data 1" egrave dx=0 dy=0 dh=-69 dv=0 dx=0 dy=0 dh=0 dv=0
PairPos2: "'kern' Horizontal Kerning in Latin lookup 0 per glyph data 1" ccedilla dx=0 dy=0 dh=-68 dv=0 dx=0 dy=0 dh=0 dv=0
PairPos2: "'kern' Horizontal Kerning in Latin lookup 0 per glyph data 1" ae dx=0 dy=0 dh=-58 dv=0 dx=0 dy=0 dh=0 dv=0
PairPos2: "'kern' Horizontal Kerning in Latin lookup 0 per glyph data 1" aring dx=0 dy=0 dh=-58 dv=0 dx=0 dy=0 dh=0 dv=0
PairPos2: "'kern' Horizontal Kerning in Latin lookup 0 per glyph data 1" adieresis dx=0 dy=0 dh=-58 dv=0 dx=0 dy=0 dh=0 dv=0
PairPos2: "'kern' Horizontal Kerning in Latin lookup 0 per glyph data 1" atilde dx=0 dy=0 dh=-58 dv=0 dx=0 dy=0 dh=0 dv=0
PairPos2: "'kern' Horizontal Kerning in Latin lookup 0 per glyph data 1" acircumflex dx=0 dy=0 dh=-58 dv=0 dx=0 dy=0 dh=0 dv=0
PairPos2: "'kern' Horizontal Kerning in Latin lookup 0 per glyph data 1" aacute dx=0 dy=0 dh=-58 dv=0 dx=0 dy=0 dh=0 dv=0
PairPos2: "'kern' Horizontal Kerning in Latin lookup 0 per glyph data 1" agrave dx=0 dy=0 dh=-58 dv=0 dx=0 dy=0 dh=0 dv=0
PairPos2: "'kern' Horizontal Kerning in Latin lookup 0 per glyph data 1" Yacute dx=0 dy=0 dh=59 dv=0 dx=0 dy=0 dh=0 dv=0
PairPos2: "'kern' Horizontal Kerning in Latin lookup 0 per glyph data 1" Oslash dx=0 dy=0 dh=-22 dv=0 dx=0 dy=0 dh=0 dv=0
PairPos2: "'kern' Horizontal Kerning in Latin lookup 0 per glyph data 1" Odieresis dx=0 dy=0 dh=-22 dv=0 dx=0 dy=0 dh=0 dv=0
PairPos2: "'kern' Horizontal Kerning in Latin lookup 0 per glyph data 1" Otilde dx=0 dy=0 dh=-22 dv=0 dx=0 dy=0 dh=0 dv=0
PairPos2: "'kern' Horizontal Kerning in Latin lookup 0 per glyph data 1" Ocircumflex dx=0 dy=0 dh=-22 dv=0 dx=0 dy=0 dh=0 dv=0
PairPos2: "'kern' Horizontal Kerning in Latin lookup 0 per glyph data 1" Oacute dx=0 dy=0 dh=-22 dv=0 dx=0 dy=0 dh=0 dv=0
PairPos2: "'kern' Horizontal Kerning in Latin lookup 0 per glyph data 1" Ograve dx=0 dy=0 dh=-22 dv=0 dx=0 dy=0 dh=0 dv=0
PairPos2: "'kern' Horizontal Kerning in Latin lookup 0 per glyph data 1" Ccedilla dx=0 dy=0 dh=-23 dv=0 dx=0 dy=0 dh=0 dv=0
PairPos2: "'kern' Horizontal Kerning in Latin lookup 0 per glyph data 1" AE dx=0 dy=0 dh=-33 dv=0 dx=0 dy=0 dh=0 dv=0
PairPos2: "'kern' Horizontal Kerning in Latin lookup 0 per glyph data 1" Aring dx=0 dy=0 dh=-33 dv=0 dx=0 dy=0 dh=0 dv=0
PairPos2: "'kern' Horizontal Kerning in Latin lookup 0 per glyph data 1" Adieresis dx=0 dy=0 dh=-33 dv=0 dx=0 dy=0 dh=0 dv=0
PairPos2: "'kern' Horizontal Kerning in Latin lookup 0 per glyph data 1" Atilde dx=0 dy=0 dh=-33 dv=0 dx=0 dy=0 dh=0 dv=0
PairPos2: "'kern' Horizontal Kerning in Latin lookup 0 per glyph data 1" Acircumflex dx=0 dy=0 dh=-33 dv=0 dx=0 dy=0 dh=0 dv=0
PairPos2: "'kern' Horizontal Kerning in Latin lookup 0 per glyph data 1" Aacute dx=0 dy=0 dh=-33 dv=0 dx=0 dy=0 dh=0 dv=0
PairPos2: "'kern' Horizontal Kerning in Latin lookup 0 per glyph data 1" Agrave dx=0 dy=0 dh=-33 dv=0 dx=0 dy=0 dh=0 dv=0
PairPos2: "'kern' Horizontal Kerning in Latin lookup 0 per glyph data 1" z dx=0 dy=0 dh=-28 dv=0 dx=0 dy=0 dh=0 dv=0
PairPos2: "'kern' Horizontal Kerning in Latin lookup 0 per glyph data 1" s dx=0 dy=0 dh=-54 dv=0 dx=0 dy=0 dh=0 dv=0
PairPos2: "'kern' Horizontal Kerning in Latin lookup 0 per glyph data 1" q dx=0 dy=0 dh=-66 dv=0 dx=0 dy=0 dh=0 dv=0
PairPos2: "'kern' Horizontal Kerning in Latin lookup 0 per glyph data 1" o dx=0 dy=0 dh=-66 dv=0 dx=0 dy=0 dh=0 dv=0
PairPos2: "'kern' Horizontal Kerning in Latin lookup 0 per glyph data 1" g dx=0 dy=0 dh=-61 dv=0 dx=0 dy=0 dh=0 dv=0
PairPos2: "'kern' Horizontal Kerning in Latin lookup 0 per glyph data 1" e dx=0 dy=0 dh=-69 dv=0 dx=0 dy=0 dh=0 dv=0
PairPos2: "'kern' Horizontal Kerning in Latin lookup 0 per glyph data 1" d dx=0 dy=0 dh=-66 dv=0 dx=0 dy=0 dh=0 dv=0
PairPos2: "'kern' Horizontal Kerning in Latin lookup 0 per glyph data 1" c dx=0 dy=0 dh=-68 dv=0 dx=0 dy=0 dh=0 dv=0
PairPos2: "'kern' Horizontal Kerning in Latin lookup 0 per glyph data 1" b dx=0 dy=0 dh=21 dv=0 dx=0 dy=0 dh=0 dv=0
PairPos2: "'kern' Horizontal Kerning in Latin lookup 0 per glyph data 1" a dx=0 dy=0 dh=-58 dv=0 dx=0 dy=0 dh=0 dv=0
PairPos2: "'kern' Horizontal Kerning in Latin lookup 0 per glyph data 1" Y dx=0 dy=0 dh=59 dv=0 dx=0 dy=0 dh=0 dv=0
PairPos2: "'kern' Horizontal Kerning in Latin lookup 0 per glyph data 1" W dx=0 dy=0 dh=45 dv=0 dx=0 dy=0 dh=0 dv=0
PairPos2: "'kern' Horizontal Kerning in Latin lookup 0 per glyph data 1" V dx=0 dy=0 dh=17 dv=0 dx=0 dy=0 dh=0 dv=0
PairPos2: "'kern' Horizontal Kerning in Latin lookup 0 per glyph data 1" Q dx=0 dy=0 dh=-21 dv=0 dx=0 dy=0 dh=0 dv=0
PairPos2: "'kern' Horizontal Kerning in Latin lookup 0 per glyph data 1" O dx=0 dy=0 dh=-22 dv=0 dx=0 dy=0 dh=0 dv=0
PairPos2: "'kern' Horizontal Kerning in Latin lookup 0 per glyph data 1" C dx=0 dy=0 dh=-23 dv=0 dx=0 dy=0 dh=0 dv=0
PairPos2: "'kern' Horizontal Kerning in Latin lookup 0 per glyph data 1" A dx=0 dy=0 dh=-33 dv=0 dx=0 dy=0 dh=0 dv=0
PairPos2: "'kern' Horizontal Kerning in Latin lookup 0 per glyph data 1" nine dx=0 dy=0 dh=-46 dv=0 dx=0 dy=0 dh=0 dv=0
PairPos2: "'kern' Horizontal Kerning in Latin lookup 0 per glyph data 1" eight dx=0 dy=0 dh=-24 dv=0 dx=0 dy=0 dh=0 dv=0
PairPos2: "'kern' Horizontal Kerning in Latin lookup 0 per glyph data 1" six dx=0 dy=0 dh=-23 dv=0 dx=0 dy=0 dh=0 dv=0
PairPos2: "'kern' Horizontal Kerning in Latin lookup 0 per glyph data 1" five dx=0 dy=0 dh=-46 dv=0 dx=0 dy=0 dh=0 dv=0
PairPos2: "'kern' Horizontal Kerning in Latin lookup 0 per glyph data 1" four dx=0 dy=0 dh=-72 dv=0 dx=0 dy=0 dh=0 dv=0
PairPos2: "'kern' Horizontal Kerning in Latin lookup 0 per glyph data 1" three dx=0 dy=0 dh=-41 dv=0 dx=0 dy=0 dh=0 dv=0
PairPos2: "'kern' Horizontal Kerning in Latin lookup 0 per glyph data 1" slash dx=0 dy=0 dh=-363 dv=0 dx=0 dy=0 dh=0 dv=0
EndChar

StartChar: zero
Encoding: 48 48 19
Width: 1476
GlyphClass: 2
Flags: W
LayerCount: 2
Fore
SplineSet
1382 822 m 0,0,1
 1382 393 1382 393 1006 127 c 0,2,3
 790 -26 790 -26 630 -26 c 0,4,5
 380 -26 380 -26 231 183 c 0,6,7
 96 372 96 372 96 628 c 0,8,9
 96 962 96 962 300 1172 c 0,10,11
 395 1270 395 1270 550 1365 c 0,12,13
 707 1462 707 1462 848 1462 c 0,14,15
 1010 1462 1010 1462 1138 1364 c 0,16,17
 1314 1230 1314 1230 1366 976 c 0,18,19
 1382 899 1382 899 1382 822 c 0,0,1
1188 709 m 0,20,21
 1188 773 1188 773 1171.5 848 c 128,-1,22
 1155 923 1155 923 1123.5 992.5 c 128,-1,23
 1092 1062 1092 1062 1046.5 1122.5 c 128,-1,24
 1001 1183 1001 1183 943 1228 c 0,25,26
 818 1325 818 1325 664 1325 c 0,27,28
 392 1325 392 1325 316 1025 c 0,29,30
 289 915 289 915 289 802.5 c 128,-1,31
 289 690 289 690 304.5 611 c 128,-1,32
 320 532 320 532 351 458.5 c 128,-1,33
 382 385 382 385 428 321 c 128,-1,34
 474 257 474 257 534 210 c 0,35,36
 662 108 662 108 830 108 c 0,37,38
 961 108 961 108 1049 212 c 0,39,40
 1188 378 1188 378 1188 709 c 0,20,21
EndSplineSet
PairPos2: "'kern' Horizontal Kerning in Latin lookup 0 per glyph data 1" fraction dx=0 dy=0 dh=-95 dv=0 dx=0 dy=0 dh=0 dv=0
PairPos2: "'kern' Horizontal Kerning in Latin lookup 0 per glyph data 1" ellipsis dx=0 dy=0 dh=-46 dv=0 dx=0 dy=0 dh=0 dv=0
PairPos2: "'kern' Horizontal Kerning in Latin lookup 0 per glyph data 1" quotedblbase dx=0 dy=0 dh=-46 dv=0 dx=0 dy=0 dh=0 dv=0
PairPos2: "'kern' Horizontal Kerning in Latin lookup 0 per glyph data 1" quotesinglbase dx=0 dy=0 dh=-46 dv=0 dx=0 dy=0 dh=0 dv=0
PairPos2: "'kern' Horizontal Kerning in Latin lookup 0 per glyph data 1" AEacute dx=0 dy=0 dh=-32 dv=0 dx=0 dy=0 dh=0 dv=0
PairPos2: "'kern' Horizontal Kerning in Latin lookup 0 per glyph data 1" Zcaron dx=0 dy=0 dh=-28 dv=0 dx=0 dy=0 dh=0 dv=0
PairPos2: "'kern' Horizontal Kerning in Latin lookup 0 per glyph data 1" Zdotaccent dx=0 dy=0 dh=-28 dv=0 dx=0 dy=0 dh=0 dv=0
PairPos2: "'kern' Horizontal Kerning in Latin lookup 0 per glyph data 1" Zacute dx=0 dy=0 dh=-28 dv=0 dx=0 dy=0 dh=0 dv=0
PairPos2: "'kern' Horizontal Kerning in Latin lookup 0 per glyph data 1" Tbar dx=0 dy=0 dh=-30 dv=0 dx=0 dy=0 dh=0 dv=0
PairPos2: "'kern' Horizontal Kerning in Latin lookup 0 per glyph data 1" Tcaron dx=0 dy=0 dh=-30 dv=0 dx=0 dy=0 dh=0 dv=0
PairPos2: "'kern' Horizontal Kerning in Latin lookup 0 per glyph data 1" Tcommaaccent dx=0 dy=0 dh=-30 dv=0 dx=0 dy=0 dh=0 dv=0
PairPos2: "'kern' Horizontal Kerning in Latin lookup 0 per glyph data 1" Aogonek dx=0 dy=0 dh=-32 dv=0 dx=0 dy=0 dh=0 dv=0
PairPos2: "'kern' Horizontal Kerning in Latin lookup 0 per glyph data 1" Abreve dx=0 dy=0 dh=-32 dv=0 dx=0 dy=0 dh=0 dv=0
PairPos2: "'kern' Horizontal Kerning in Latin lookup 0 per glyph data 1" Amacron dx=0 dy=0 dh=-32 dv=0 dx=0 dy=0 dh=0 dv=0
PairPos2: "'kern' Horizontal Kerning in Latin lookup 0 per glyph data 1" AE dx=0 dy=0 dh=-32 dv=0 dx=0 dy=0 dh=0 dv=0
PairPos2: "'kern' Horizontal Kerning in Latin lookup 0 per glyph data 1" Aring dx=0 dy=0 dh=-32 dv=0 dx=0 dy=0 dh=0 dv=0
PairPos2: "'kern' Horizontal Kerning in Latin lookup 0 per glyph data 1" Adieresis dx=0 dy=0 dh=-32 dv=0 dx=0 dy=0 dh=0 dv=0
PairPos2: "'kern' Horizontal Kerning in Latin lookup 0 per glyph data 1" Atilde dx=0 dy=0 dh=-32 dv=0 dx=0 dy=0 dh=0 dv=0
PairPos2: "'kern' Horizontal Kerning in Latin lookup 0 per glyph data 1" Acircumflex dx=0 dy=0 dh=-32 dv=0 dx=0 dy=0 dh=0 dv=0
PairPos2: "'kern' Horizontal Kerning in Latin lookup 0 per glyph data 1" Aacute dx=0 dy=0 dh=-32 dv=0 dx=0 dy=0 dh=0 dv=0
PairPos2: "'kern' Horizontal Kerning in Latin lookup 0 per glyph data 1" Agrave dx=0 dy=0 dh=-32 dv=0 dx=0 dy=0 dh=0 dv=0
PairPos2: "'kern' Horizontal Kerning in Latin lookup 0 per glyph data 1" braceright dx=0 dy=0 dh=-102 dv=0 dx=0 dy=0 dh=0 dv=0
PairPos2: "'kern' Horizontal Kerning in Latin lookup 0 per glyph data 1" bracketright dx=0 dy=0 dh=-66 dv=0 dx=0 dy=0 dh=0 dv=0
PairPos2: "'kern' Horizontal Kerning in Latin lookup 0 per glyph data 1" Z dx=0 dy=0 dh=-28 dv=0 dx=0 dy=0 dh=0 dv=0
PairPos2: "'kern' Horizontal Kerning in Latin lookup 0 per glyph data 1" T dx=0 dy=0 dh=-30 dv=0 dx=0 dy=0 dh=0 dv=0
PairPos2: "'kern' Horizontal Kerning in Latin lookup 0 per glyph data 1" A dx=0 dy=0 dh=-32 dv=0 dx=0 dy=0 dh=0 dv=0
PairPos2: "'kern' Horizontal Kerning in Latin lookup 0 per glyph data 1" slash dx=0 dy=0 dh=-34 dv=0 dx=0 dy=0 dh=0 dv=0
PairPos2: "'kern' Horizontal Kerning in Latin lookup 0 per glyph data 1" period dx=0 dy=0 dh=-46 dv=0 dx=0 dy=0 dh=0 dv=0
PairPos2: "'kern' Horizontal Kerning in Latin lookup 0 per glyph data 1" comma dx=0 dy=0 dh=-46 dv=0 dx=0 dy=0 dh=0 dv=0
PairPos2: "'kern' Horizontal Kerning in Latin lookup 0 per glyph data 1" parenright dx=0 dy=0 dh=-132 dv=0 dx=0 dy=0 dh=0 dv=0
EndChar

StartChar: one
Encoding: 49 49 20
Width: 754
GlyphClass: 2
Flags: W
LayerCount: 2
Fore
SplineSet
449 370 m 2,0,1
 449 216 449 216 369 136 c 1,2,-1
 738 136 l 1,3,4
 572 0 572 0 544 0 c 2,5,-1
 156 0 l 1,6,-1
 158 4 l 1,7,8
 207 49 207 49 231 94 c 128,-1,9
 255 139 255 139 255 204 c 2,10,-1
 255 938 l 1,11,-1
 50 818 l 1,12,-1
 50 849 l 1,13,-1
 449 1089 l 1,14,-1
 449 370 l 2,0,1
EndSplineSet
Substitution2: "'sups' Superscript in Latin lookup 1 subtable" onesuperior
Substitution2: "'aalt' Access All Alternates in Latin lookup 0 subtable" onesuperior
PairPos2: "'kern' Horizontal Kerning in Latin lookup 0 per glyph data 1" emdash dx=0 dy=0 dh=-65 dv=0 dx=0 dy=0 dh=0 dv=0
PairPos2: "'kern' Horizontal Kerning in Latin lookup 0 per glyph data 1" endash dx=0 dy=0 dh=-65 dv=0 dx=0 dy=0 dh=0 dv=0
PairPos2: "'kern' Horizontal Kerning in Latin lookup 0 per glyph data 1" Ygrave dx=0 dy=0 dh=-96 dv=0 dx=0 dy=0 dh=0 dv=0
PairPos2: "'kern' Horizontal Kerning in Latin lookup 0 per glyph data 1" wdieresis dx=0 dy=0 dh=-25 dv=0 dx=0 dy=0 dh=0 dv=0
PairPos2: "'kern' Horizontal Kerning in Latin lookup 0 per glyph data 1" Wdieresis dx=0 dy=0 dh=-92 dv=0 dx=0 dy=0 dh=0 dv=0
PairPos2: "'kern' Horizontal Kerning in Latin lookup 0 per glyph data 1" wacute dx=0 dy=0 dh=-25 dv=0 dx=0 dy=0 dh=0 dv=0
PairPos2: "'kern' Horizontal Kerning in Latin lookup 0 per glyph data 1" Wacute dx=0 dy=0 dh=-92 dv=0 dx=0 dy=0 dh=0 dv=0
PairPos2: "'kern' Horizontal Kerning in Latin lookup 0 per glyph data 1" wgrave dx=0 dy=0 dh=-25 dv=0 dx=0 dy=0 dh=0 dv=0
PairPos2: "'kern' Horizontal Kerning in Latin lookup 0 per glyph data 1" Wgrave dx=0 dy=0 dh=-92 dv=0 dx=0 dy=0 dh=0 dv=0
PairPos2: "'kern' Horizontal Kerning in Latin lookup 0 per glyph data 1" aeacute dx=0 dy=0 dh=17 dv=0 dx=0 dy=0 dh=0 dv=0
PairPos2: "'kern' Horizontal Kerning in Latin lookup 0 per glyph data 1" AEacute dx=0 dy=0 dh=11 dv=0 dx=0 dy=0 dh=0 dv=0
PairPos2: "'kern' Horizontal Kerning in Latin lookup 0 per glyph data 1" Ydieresis dx=0 dy=0 dh=-96 dv=0 dx=0 dy=0 dh=0 dv=0
PairPos2: "'kern' Horizontal Kerning in Latin lookup 0 per glyph data 1" Ycircumflex dx=0 dy=0 dh=-96 dv=0 dx=0 dy=0 dh=0 dv=0
PairPos2: "'kern' Horizontal Kerning in Latin lookup 0 per glyph data 1" wcircumflex dx=0 dy=0 dh=-25 dv=0 dx=0 dy=0 dh=0 dv=0
PairPos2: "'kern' Horizontal Kerning in Latin lookup 0 per glyph data 1" Wcircumflex dx=0 dy=0 dh=-92 dv=0 dx=0 dy=0 dh=0 dv=0
PairPos2: "'kern' Horizontal Kerning in Latin lookup 0 per glyph data 1" Uogonek dx=0 dy=0 dh=-24 dv=0 dx=0 dy=0 dh=0 dv=0
PairPos2: "'kern' Horizontal Kerning in Latin lookup 0 per glyph data 1" Uhungarumlaut dx=0 dy=0 dh=-24 dv=0 dx=0 dy=0 dh=0 dv=0
PairPos2: "'kern' Horizontal Kerning in Latin lookup 0 per glyph data 1" Uring dx=0 dy=0 dh=-24 dv=0 dx=0 dy=0 dh=0 dv=0
PairPos2: "'kern' Horizontal Kerning in Latin lookup 0 per glyph data 1" Ubreve dx=0 dy=0 dh=-24 dv=0 dx=0 dy=0 dh=0 dv=0
PairPos2: "'kern' Horizontal Kerning in Latin lookup 0 per glyph data 1" Umacron dx=0 dy=0 dh=-24 dv=0 dx=0 dy=0 dh=0 dv=0
PairPos2: "'kern' Horizontal Kerning in Latin lookup 0 per glyph data 1" Utilde dx=0 dy=0 dh=-24 dv=0 dx=0 dy=0 dh=0 dv=0
PairPos2: "'kern' Horizontal Kerning in Latin lookup 0 per glyph data 1" Tbar dx=0 dy=0 dh=-109 dv=0 dx=0 dy=0 dh=0 dv=0
PairPos2: "'kern' Horizontal Kerning in Latin lookup 0 per glyph data 1" Tcaron dx=0 dy=0 dh=-109 dv=0 dx=0 dy=0 dh=0 dv=0
PairPos2: "'kern' Horizontal Kerning in Latin lookup 0 per glyph data 1" Tcommaaccent dx=0 dy=0 dh=-109 dv=0 dx=0 dy=0 dh=0 dv=0
PairPos2: "'kern' Horizontal Kerning in Latin lookup 0 per glyph data 1" scaron dx=0 dy=0 dh=22 dv=0 dx=0 dy=0 dh=0 dv=0
PairPos2: "'kern' Horizontal Kerning in Latin lookup 0 per glyph data 1" scedilla dx=0 dy=0 dh=22 dv=0 dx=0 dy=0 dh=0 dv=0
PairPos2: "'kern' Horizontal Kerning in Latin lookup 0 per glyph data 1" scircumflex dx=0 dy=0 dh=22 dv=0 dx=0 dy=0 dh=0 dv=0
PairPos2: "'kern' Horizontal Kerning in Latin lookup 0 per glyph data 1" sacute dx=0 dy=0 dh=22 dv=0 dx=0 dy=0 dh=0 dv=0
PairPos2: "'kern' Horizontal Kerning in Latin lookup 0 per glyph data 1" aogonek dx=0 dy=0 dh=17 dv=0 dx=0 dy=0 dh=0 dv=0
PairPos2: "'kern' Horizontal Kerning in Latin lookup 0 per glyph data 1" Aogonek dx=0 dy=0 dh=11 dv=0 dx=0 dy=0 dh=0 dv=0
PairPos2: "'kern' Horizontal Kerning in Latin lookup 0 per glyph data 1" abreve dx=0 dy=0 dh=17 dv=0 dx=0 dy=0 dh=0 dv=0
PairPos2: "'kern' Horizontal Kerning in Latin lookup 0 per glyph data 1" Abreve dx=0 dy=0 dh=11 dv=0 dx=0 dy=0 dh=0 dv=0
PairPos2: "'kern' Horizontal Kerning in Latin lookup 0 per glyph data 1" amacron dx=0 dy=0 dh=17 dv=0 dx=0 dy=0 dh=0 dv=0
PairPos2: "'kern' Horizontal Kerning in Latin lookup 0 per glyph data 1" Amacron dx=0 dy=0 dh=11 dv=0 dx=0 dy=0 dh=0 dv=0
PairPos2: "'kern' Horizontal Kerning in Latin lookup 0 per glyph data 1" ae dx=0 dy=0 dh=17 dv=0 dx=0 dy=0 dh=0 dv=0
PairPos2: "'kern' Horizontal Kerning in Latin lookup 0 per glyph data 1" aring dx=0 dy=0 dh=17 dv=0 dx=0 dy=0 dh=0 dv=0
PairPos2: "'kern' Horizontal Kerning in Latin lookup 0 per glyph data 1" adieresis dx=0 dy=0 dh=17 dv=0 dx=0 dy=0 dh=0 dv=0
PairPos2: "'kern' Horizontal Kerning in Latin lookup 0 per glyph data 1" atilde dx=0 dy=0 dh=17 dv=0 dx=0 dy=0 dh=0 dv=0
PairPos2: "'kern' Horizontal Kerning in Latin lookup 0 per glyph data 1" acircumflex dx=0 dy=0 dh=17 dv=0 dx=0 dy=0 dh=0 dv=0
PairPos2: "'kern' Horizontal Kerning in Latin lookup 0 per glyph data 1" aacute dx=0 dy=0 dh=17 dv=0 dx=0 dy=0 dh=0 dv=0
PairPos2: "'kern' Horizontal Kerning in Latin lookup 0 per glyph data 1" agrave dx=0 dy=0 dh=17 dv=0 dx=0 dy=0 dh=0 dv=0
PairPos2: "'kern' Horizontal Kerning in Latin lookup 0 per glyph data 1" Yacute dx=0 dy=0 dh=-96 dv=0 dx=0 dy=0 dh=0 dv=0
PairPos2: "'kern' Horizontal Kerning in Latin lookup 0 per glyph data 1" Udieresis dx=0 dy=0 dh=-24 dv=0 dx=0 dy=0 dh=0 dv=0
PairPos2: "'kern' Horizontal Kerning in Latin lookup 0 per glyph data 1" Ucircumflex dx=0 dy=0 dh=-24 dv=0 dx=0 dy=0 dh=0 dv=0
PairPos2: "'kern' Horizontal Kerning in Latin lookup 0 per glyph data 1" Uacute dx=0 dy=0 dh=-24 dv=0 dx=0 dy=0 dh=0 dv=0
PairPos2: "'kern' Horizontal Kerning in Latin lookup 0 per glyph data 1" Ugrave dx=0 dy=0 dh=-24 dv=0 dx=0 dy=0 dh=0 dv=0
PairPos2: "'kern' Horizontal Kerning in Latin lookup 0 per glyph data 1" AE dx=0 dy=0 dh=11 dv=0 dx=0 dy=0 dh=0 dv=0
PairPos2: "'kern' Horizontal Kerning in Latin lookup 0 per glyph data 1" Aring dx=0 dy=0 dh=11 dv=0 dx=0 dy=0 dh=0 dv=0
PairPos2: "'kern' Horizontal Kerning in Latin lookup 0 per glyph data 1" Adieresis dx=0 dy=0 dh=11 dv=0 dx=0 dy=0 dh=0 dv=0
PairPos2: "'kern' Horizontal Kerning in Latin lookup 0 per glyph data 1" Atilde dx=0 dy=0 dh=11 dv=0 dx=0 dy=0 dh=0 dv=0
PairPos2: "'kern' Horizontal Kerning in Latin lookup 0 per glyph data 1" Acircumflex dx=0 dy=0 dh=11 dv=0 dx=0 dy=0 dh=0 dv=0
PairPos2: "'kern' Horizontal Kerning in Latin lookup 0 per glyph data 1" Aacute dx=0 dy=0 dh=11 dv=0 dx=0 dy=0 dh=0 dv=0
PairPos2: "'kern' Horizontal Kerning in Latin lookup 0 per glyph data 1" Agrave dx=0 dy=0 dh=11 dv=0 dx=0 dy=0 dh=0 dv=0
PairPos2: "'kern' Horizontal Kerning in Latin lookup 0 per glyph data 1" periodcentered dx=0 dy=0 dh=-47 dv=0 dx=0 dy=0 dh=0 dv=0
PairPos2: "'kern' Horizontal Kerning in Latin lookup 0 per glyph data 1" braceright dx=0 dy=0 dh=-101 dv=0 dx=0 dy=0 dh=0 dv=0
PairPos2: "'kern' Horizontal Kerning in Latin lookup 0 per glyph data 1" w dx=0 dy=0 dh=-25 dv=0 dx=0 dy=0 dh=0 dv=0
PairPos2: "'kern' Horizontal Kerning in Latin lookup 0 per glyph data 1" v dx=0 dy=0 dh=-25 dv=0 dx=0 dy=0 dh=0 dv=0
PairPos2: "'kern' Horizontal Kerning in Latin lookup 0 per glyph data 1" s dx=0 dy=0 dh=22 dv=0 dx=0 dy=0 dh=0 dv=0
PairPos2: "'kern' Horizontal Kerning in Latin lookup 0 per glyph data 1" a dx=0 dy=0 dh=17 dv=0 dx=0 dy=0 dh=0 dv=0
PairPos2: "'kern' Horizontal Kerning in Latin lookup 0 per glyph data 1" bracketright dx=0 dy=0 dh=-69 dv=0 dx=0 dy=0 dh=0 dv=0
PairPos2: "'kern' Horizontal Kerning in Latin lookup 0 per glyph data 1" backslash dx=0 dy=0 dh=-60 dv=0 dx=0 dy=0 dh=0 dv=0
PairPos2: "'kern' Horizontal Kerning in Latin lookup 0 per glyph data 1" Y dx=0 dy=0 dh=-96 dv=0 dx=0 dy=0 dh=0 dv=0
PairPos2: "'kern' Horizontal Kerning in Latin lookup 0 per glyph data 1" W dx=0 dy=0 dh=-92 dv=0 dx=0 dy=0 dh=0 dv=0
PairPos2: "'kern' Horizontal Kerning in Latin lookup 0 per glyph data 1" V dx=0 dy=0 dh=-98 dv=0 dx=0 dy=0 dh=0 dv=0
PairPos2: "'kern' Horizontal Kerning in Latin lookup 0 per glyph data 1" U dx=0 dy=0 dh=-24 dv=0 dx=0 dy=0 dh=0 dv=0
PairPos2: "'kern' Horizontal Kerning in Latin lookup 0 per glyph data 1" T dx=0 dy=0 dh=-109 dv=0 dx=0 dy=0 dh=0 dv=0
PairPos2: "'kern' Horizontal Kerning in Latin lookup 0 per glyph data 1" A dx=0 dy=0 dh=11 dv=0 dx=0 dy=0 dh=0 dv=0
PairPos2: "'kern' Horizontal Kerning in Latin lookup 0 per glyph data 1" equal dx=0 dy=0 dh=-31 dv=0 dx=0 dy=0 dh=0 dv=0
PairPos2: "'kern' Horizontal Kerning in Latin lookup 0 per glyph data 1" seven dx=0 dy=0 dh=-42 dv=0 dx=0 dy=0 dh=0 dv=0
PairPos2: "'kern' Horizontal Kerning in Latin lookup 0 per glyph data 1" five dx=0 dy=0 dh=-31 dv=0 dx=0 dy=0 dh=0 dv=0
PairPos2: "'kern' Horizontal Kerning in Latin lookup 0 per glyph data 1" three dx=0 dy=0 dh=-61 dv=0 dx=0 dy=0 dh=0 dv=0
PairPos2: "'kern' Horizontal Kerning in Latin lookup 0 per glyph data 1" hyphen dx=0 dy=0 dh=-65 dv=0 dx=0 dy=0 dh=0 dv=0
PairPos2: "'kern' Horizontal Kerning in Latin lookup 0 per glyph data 1" plus dx=0 dy=0 dh=-30 dv=0 dx=0 dy=0 dh=0 dv=0
PairPos2: "'kern' Horizontal Kerning in Latin lookup 0 per glyph data 1" parenright dx=0 dy=0 dh=-124 dv=0 dx=0 dy=0 dh=0 dv=0
EndChar

StartChar: two
Encoding: 50 50 21
Width: 1096
GlyphClass: 2
Flags: W
LayerCount: 2
Fore
SplineSet
343 965 m 1,0,-1
 149 829 l 1,1,2
 111 900 111 900 111 974.5 c 128,-1,3
 111 1049 111 1049 131 1100 c 128,-1,4
 151 1151 151 1151 186 1192 c 0,5,6
 230 1245 230 1245 314.5 1304 c 128,-1,7
 399 1363 399 1363 433.5 1387 c 128,-1,8
 468 1411 468 1411 504 1429 c 0,9,10
 586 1469 586 1469 656.5 1469 c 128,-1,11
 727 1469 727 1469 788 1450.5 c 128,-1,12
 849 1432 849 1432 898 1396 c 0,13,14
 1006 1317 1006 1317 1006 1189 c 0,15,16
 1006 1010 1006 1010 827 824 c 0,17,18
 778 773 778 773 740 738.5 c 128,-1,19
 702 704 702 704 656 660 c 128,-1,20
 610 616 610 616 557 561.5 c 128,-1,21
 504 507 504 507 449.5 446.5 c 128,-1,22
 395 386 395 386 351 328 c 0,23,24
 252 197 252 197 250 136 c 1,25,-1
 999 136 l 1,26,27
 980 132 980 132 933.5 90 c 128,-1,28
 887 48 887 48 868 34 c 1,29,30
 826 0 826 0 805 0 c 2,31,-1
 52 0 l 1,32,33
 135 186 135 186 261 323 c 0,34,35
 305 371 305 371 363 424 c 128,-1,36
 421 477 421 477 482 534 c 128,-1,37
 543 591 543 591 602 652 c 128,-1,38
 661 713 661 713 707 778 c 0,39,40
 810 924 810 924 810 1053 c 0,41,42
 810 1171 810 1171 710 1254 c 1,43,44
 615 1335 615 1335 495 1335 c 0,45,46
 386 1335 386 1335 346 1284 c 1,47,48
 306 1236 306 1236 306 1135.5 c 128,-1,49
 306 1035 306 1035 343 965 c 1,0,-1
EndSplineSet
Substitution2: "'sups' Superscript in Latin lookup 1 subtable" twosuperior
Substitution2: "'aalt' Access All Alternates in Latin lookup 0 subtable" twosuperior
PairPos2: "'kern' Horizontal Kerning in Latin lookup 0 per glyph data 1" fraction dx=0 dy=0 dh=-21 dv=0 dx=0 dy=0 dh=0 dv=0
PairPos2: "'kern' Horizontal Kerning in Latin lookup 0 per glyph data 1" emdash dx=0 dy=0 dh=-68 dv=0 dx=0 dy=0 dh=0 dv=0
PairPos2: "'kern' Horizontal Kerning in Latin lookup 0 per glyph data 1" endash dx=0 dy=0 dh=-68 dv=0 dx=0 dy=0 dh=0 dv=0
PairPos2: "'kern' Horizontal Kerning in Latin lookup 0 per glyph data 1" Ygrave dx=0 dy=0 dh=82 dv=0 dx=0 dy=0 dh=0 dv=0
PairPos2: "'kern' Horizontal Kerning in Latin lookup 0 per glyph data 1" Wdieresis dx=0 dy=0 dh=46 dv=0 dx=0 dy=0 dh=0 dv=0
PairPos2: "'kern' Horizontal Kerning in Latin lookup 0 per glyph data 1" Wacute dx=0 dy=0 dh=46 dv=0 dx=0 dy=0 dh=0 dv=0
PairPos2: "'kern' Horizontal Kerning in Latin lookup 0 per glyph data 1" Wgrave dx=0 dy=0 dh=46 dv=0 dx=0 dy=0 dh=0 dv=0
PairPos2: "'kern' Horizontal Kerning in Latin lookup 0 per glyph data 1" Ydieresis dx=0 dy=0 dh=82 dv=0 dx=0 dy=0 dh=0 dv=0
PairPos2: "'kern' Horizontal Kerning in Latin lookup 0 per glyph data 1" Ycircumflex dx=0 dy=0 dh=82 dv=0 dx=0 dy=0 dh=0 dv=0
PairPos2: "'kern' Horizontal Kerning in Latin lookup 0 per glyph data 1" Wcircumflex dx=0 dy=0 dh=46 dv=0 dx=0 dy=0 dh=0 dv=0
PairPos2: "'kern' Horizontal Kerning in Latin lookup 0 per glyph data 1" Tbar dx=0 dy=0 dh=19 dv=0 dx=0 dy=0 dh=0 dv=0
PairPos2: "'kern' Horizontal Kerning in Latin lookup 0 per glyph data 1" Tcaron dx=0 dy=0 dh=19 dv=0 dx=0 dy=0 dh=0 dv=0
PairPos2: "'kern' Horizontal Kerning in Latin lookup 0 per glyph data 1" Tcommaaccent dx=0 dy=0 dh=19 dv=0 dx=0 dy=0 dh=0 dv=0
PairPos2: "'kern' Horizontal Kerning in Latin lookup 0 per glyph data 1" gcommaaccent dx=0 dy=0 dh=-27 dv=0 dx=0 dy=0 dh=0 dv=0
PairPos2: "'kern' Horizontal Kerning in Latin lookup 0 per glyph data 1" gdotaccent dx=0 dy=0 dh=-27 dv=0 dx=0 dy=0 dh=0 dv=0
PairPos2: "'kern' Horizontal Kerning in Latin lookup 0 per glyph data 1" gbreve dx=0 dy=0 dh=-27 dv=0 dx=0 dy=0 dh=0 dv=0
PairPos2: "'kern' Horizontal Kerning in Latin lookup 0 per glyph data 1" gcircumflex dx=0 dy=0 dh=-27 dv=0 dx=0 dy=0 dh=0 dv=0
PairPos2: "'kern' Horizontal Kerning in Latin lookup 0 per glyph data 1" Yacute dx=0 dy=0 dh=82 dv=0 dx=0 dy=0 dh=0 dv=0
PairPos2: "'kern' Horizontal Kerning in Latin lookup 0 per glyph data 1" periodcentered dx=0 dy=0 dh=-38 dv=0 dx=0 dy=0 dh=0 dv=0
PairPos2: "'kern' Horizontal Kerning in Latin lookup 0 per glyph data 1" cent dx=0 dy=0 dh=-27 dv=0 dx=0 dy=0 dh=0 dv=0
PairPos2: "'kern' Horizontal Kerning in Latin lookup 0 per glyph data 1" braceright dx=0 dy=0 dh=-70 dv=0 dx=0 dy=0 dh=0 dv=0
PairPos2: "'kern' Horizontal Kerning in Latin lookup 0 per glyph data 1" g dx=0 dy=0 dh=-27 dv=0 dx=0 dy=0 dh=0 dv=0
PairPos2: "'kern' Horizontal Kerning in Latin lookup 0 per glyph data 1" bracketright dx=0 dy=0 dh=-48 dv=0 dx=0 dy=0 dh=0 dv=0
PairPos2: "'kern' Horizontal Kerning in Latin lookup 0 per glyph data 1" Y dx=0 dy=0 dh=82 dv=0 dx=0 dy=0 dh=0 dv=0
PairPos2: "'kern' Horizontal Kerning in Latin lookup 0 per glyph data 1" W dx=0 dy=0 dh=46 dv=0 dx=0 dy=0 dh=0 dv=0
PairPos2: "'kern' Horizontal Kerning in Latin lookup 0 per glyph data 1" V dx=0 dy=0 dh=63 dv=0 dx=0 dy=0 dh=0 dv=0
PairPos2: "'kern' Horizontal Kerning in Latin lookup 0 per glyph data 1" T dx=0 dy=0 dh=19 dv=0 dx=0 dy=0 dh=0 dv=0
PairPos2: "'kern' Horizontal Kerning in Latin lookup 0 per glyph data 1" equal dx=0 dy=0 dh=-38 dv=0 dx=0 dy=0 dh=0 dv=0
PairPos2: "'kern' Horizontal Kerning in Latin lookup 0 per glyph data 1" nine dx=0 dy=0 dh=-25 dv=0 dx=0 dy=0 dh=0 dv=0
PairPos2: "'kern' Horizontal Kerning in Latin lookup 0 per glyph data 1" five dx=0 dy=0 dh=-20 dv=0 dx=0 dy=0 dh=0 dv=0
PairPos2: "'kern' Horizontal Kerning in Latin lookup 0 per glyph data 1" three dx=0 dy=0 dh=-26 dv=0 dx=0 dy=0 dh=0 dv=0
PairPos2: "'kern' Horizontal Kerning in Latin lookup 0 per glyph data 1" hyphen dx=0 dy=0 dh=-68 dv=0 dx=0 dy=0 dh=0 dv=0
PairPos2: "'kern' Horizontal Kerning in Latin lookup 0 per glyph data 1" plus dx=0 dy=0 dh=-51 dv=0 dx=0 dy=0 dh=0 dv=0
PairPos2: "'kern' Horizontal Kerning in Latin lookup 0 per glyph data 1" parenright dx=0 dy=0 dh=-73 dv=0 dx=0 dy=0 dh=0 dv=0
EndChar

StartChar: three
Encoding: 51 51 22
Width: 1102
GlyphClass: 2
Flags: W
LayerCount: 2
Fore
SplineSet
139 953 m 1,0,1
 305 1089 305 1089 333 1089 c 2,2,-1
 1008 1089 l 1,3,4
 810 797 810 797 673 652 c 0,5,6
 610 585 610 585 540 527 c 1,7,8
 780 518 780 518 893 440 c 0,9,10
 1031 344 1031 344 1031 123 c 0,11,12
 1031 -73 1031 -73 874 -194 c 0,13,14
 740 -298 740 -298 652 -340 c 0,15,16
 486 -420 486 -420 347 -420 c 0,17,18
 259 -420 259 -420 188 -402 c 128,-1,19
 117 -384 117 -384 86 -370 c 0,20,21
 18 -339 18 -339 18 -292 c 0,22,23
 18 -241 18 -241 104 -176 c 1,24,25
 147 -145 147 -145 239 -95 c 1,26,27
 211 -128 211 -128 211 -155.5 c 128,-1,28
 211 -183 211 -183 230.5 -202 c 128,-1,29
 250 -221 250 -221 280.5 -235 c 128,-1,30
 311 -249 311 -249 349 -258 c 128,-1,31
 387 -267 387 -267 424 -272 c 0,32,33
 488 -282 488 -282 541.5 -282 c 128,-1,34
 595 -282 595 -282 647 -271 c 128,-1,35
 699 -260 699 -260 742 -230 c 0,36,37
 839 -161 839 -161 839 -23.5 c 128,-1,38
 839 114 839 114 800.5 190.5 c 128,-1,39
 762 267 762 267 694 310 c 0,40,41
 580 384 580 384 343 391 c 1,42,43
 367 414 367 414 392.5 435 c 128,-1,44
 418 456 418 456 455.5 492.5 c 128,-1,45
 493 529 493 529 541.5 587 c 128,-1,46
 590 645 590 645 635.5 706.5 c 128,-1,47
 681 768 681 768 725 830.5 c 128,-1,48
 769 893 769 893 811 952 c 1,49,-1
 139 953 l 1,0,1
EndSplineSet
Substitution2: "'sups' Superscript in Latin lookup 1 subtable" threesuperior
Substitution2: "'aalt' Access All Alternates in Latin lookup 0 subtable" threesuperior
PairPos2: "'kern' Horizontal Kerning in Latin lookup 0 per glyph data 1" emdash dx=0 dy=0 dh=-33 dv=0 dx=0 dy=0 dh=0 dv=0
PairPos2: "'kern' Horizontal Kerning in Latin lookup 0 per glyph data 1" endash dx=0 dy=0 dh=-33 dv=0 dx=0 dy=0 dh=0 dv=0
PairPos2: "'kern' Horizontal Kerning in Latin lookup 0 per glyph data 1" Ygrave dx=0 dy=0 dh=-57 dv=0 dx=0 dy=0 dh=0 dv=0
PairPos2: "'kern' Horizontal Kerning in Latin lookup 0 per glyph data 1" wdieresis dx=0 dy=0 dh=-22 dv=0 dx=0 dy=0 dh=0 dv=0
PairPos2: "'kern' Horizontal Kerning in Latin lookup 0 per glyph data 1" Wdieresis dx=0 dy=0 dh=-54 dv=0 dx=0 dy=0 dh=0 dv=0
PairPos2: "'kern' Horizontal Kerning in Latin lookup 0 per glyph data 1" wacute dx=0 dy=0 dh=-22 dv=0 dx=0 dy=0 dh=0 dv=0
PairPos2: "'kern' Horizontal Kerning in Latin lookup 0 per glyph data 1" Wacute dx=0 dy=0 dh=-54 dv=0 dx=0 dy=0 dh=0 dv=0
PairPos2: "'kern' Horizontal Kerning in Latin lookup 0 per glyph data 1" wgrave dx=0 dy=0 dh=-22 dv=0 dx=0 dy=0 dh=0 dv=0
PairPos2: "'kern' Horizontal Kerning in Latin lookup 0 per glyph data 1" Wgrave dx=0 dy=0 dh=-54 dv=0 dx=0 dy=0 dh=0 dv=0
PairPos2: "'kern' Horizontal Kerning in Latin lookup 0 per glyph data 1" AEacute dx=0 dy=0 dh=19 dv=0 dx=0 dy=0 dh=0 dv=0
PairPos2: "'kern' Horizontal Kerning in Latin lookup 0 per glyph data 1" Zcaron dx=0 dy=0 dh=15 dv=0 dx=0 dy=0 dh=0 dv=0
PairPos2: "'kern' Horizontal Kerning in Latin lookup 0 per glyph data 1" Zdotaccent dx=0 dy=0 dh=15 dv=0 dx=0 dy=0 dh=0 dv=0
PairPos2: "'kern' Horizontal Kerning in Latin lookup 0 per glyph data 1" Zacute dx=0 dy=0 dh=15 dv=0 dx=0 dy=0 dh=0 dv=0
PairPos2: "'kern' Horizontal Kerning in Latin lookup 0 per glyph data 1" Ydieresis dx=0 dy=0 dh=-57 dv=0 dx=0 dy=0 dh=0 dv=0
PairPos2: "'kern' Horizontal Kerning in Latin lookup 0 per glyph data 1" Ycircumflex dx=0 dy=0 dh=-57 dv=0 dx=0 dy=0 dh=0 dv=0
PairPos2: "'kern' Horizontal Kerning in Latin lookup 0 per glyph data 1" wcircumflex dx=0 dy=0 dh=-22 dv=0 dx=0 dy=0 dh=0 dv=0
PairPos2: "'kern' Horizontal Kerning in Latin lookup 0 per glyph data 1" Wcircumflex dx=0 dy=0 dh=-54 dv=0 dx=0 dy=0 dh=0 dv=0
PairPos2: "'kern' Horizontal Kerning in Latin lookup 0 per glyph data 1" Tbar dx=0 dy=0 dh=-102 dv=0 dx=0 dy=0 dh=0 dv=0
PairPos2: "'kern' Horizontal Kerning in Latin lookup 0 per glyph data 1" Tcaron dx=0 dy=0 dh=-102 dv=0 dx=0 dy=0 dh=0 dv=0
PairPos2: "'kern' Horizontal Kerning in Latin lookup 0 per glyph data 1" Tcommaaccent dx=0 dy=0 dh=-102 dv=0 dx=0 dy=0 dh=0 dv=0
PairPos2: "'kern' Horizontal Kerning in Latin lookup 0 per glyph data 1" Aogonek dx=0 dy=0 dh=19 dv=0 dx=0 dy=0 dh=0 dv=0
PairPos2: "'kern' Horizontal Kerning in Latin lookup 0 per glyph data 1" Abreve dx=0 dy=0 dh=19 dv=0 dx=0 dy=0 dh=0 dv=0
PairPos2: "'kern' Horizontal Kerning in Latin lookup 0 per glyph data 1" Amacron dx=0 dy=0 dh=19 dv=0 dx=0 dy=0 dh=0 dv=0
PairPos2: "'kern' Horizontal Kerning in Latin lookup 0 per glyph data 1" Yacute dx=0 dy=0 dh=-57 dv=0 dx=0 dy=0 dh=0 dv=0
PairPos2: "'kern' Horizontal Kerning in Latin lookup 0 per glyph data 1" AE dx=0 dy=0 dh=19 dv=0 dx=0 dy=0 dh=0 dv=0
PairPos2: "'kern' Horizontal Kerning in Latin lookup 0 per glyph data 1" Aring dx=0 dy=0 dh=19 dv=0 dx=0 dy=0 dh=0 dv=0
PairPos2: "'kern' Horizontal Kerning in Latin lookup 0 per glyph data 1" Adieresis dx=0 dy=0 dh=19 dv=0 dx=0 dy=0 dh=0 dv=0
PairPos2: "'kern' Horizontal Kerning in Latin lookup 0 per glyph data 1" Atilde dx=0 dy=0 dh=19 dv=0 dx=0 dy=0 dh=0 dv=0
PairPos2: "'kern' Horizontal Kerning in Latin lookup 0 per glyph data 1" Acircumflex dx=0 dy=0 dh=19 dv=0 dx=0 dy=0 dh=0 dv=0
PairPos2: "'kern' Horizontal Kerning in Latin lookup 0 per glyph data 1" Aacute dx=0 dy=0 dh=19 dv=0 dx=0 dy=0 dh=0 dv=0
PairPos2: "'kern' Horizontal Kerning in Latin lookup 0 per glyph data 1" Agrave dx=0 dy=0 dh=19 dv=0 dx=0 dy=0 dh=0 dv=0
PairPos2: "'kern' Horizontal Kerning in Latin lookup 0 per glyph data 1" periodcentered dx=0 dy=0 dh=-52 dv=0 dx=0 dy=0 dh=0 dv=0
PairPos2: "'kern' Horizontal Kerning in Latin lookup 0 per glyph data 1" braceright dx=0 dy=0 dh=-42 dv=0 dx=0 dy=0 dh=0 dv=0
PairPos2: "'kern' Horizontal Kerning in Latin lookup 0 per glyph data 1" w dx=0 dy=0 dh=-22 dv=0 dx=0 dy=0 dh=0 dv=0
PairPos2: "'kern' Horizontal Kerning in Latin lookup 0 per glyph data 1" v dx=0 dy=0 dh=-25 dv=0 dx=0 dy=0 dh=0 dv=0
PairPos2: "'kern' Horizontal Kerning in Latin lookup 0 per glyph data 1" bracketright dx=0 dy=0 dh=-39 dv=0 dx=0 dy=0 dh=0 dv=0
PairPos2: "'kern' Horizontal Kerning in Latin lookup 0 per glyph data 1" Z dx=0 dy=0 dh=15 dv=0 dx=0 dy=0 dh=0 dv=0
PairPos2: "'kern' Horizontal Kerning in Latin lookup 0 per glyph data 1" Y dx=0 dy=0 dh=-57 dv=0 dx=0 dy=0 dh=0 dv=0
PairPos2: "'kern' Horizontal Kerning in Latin lookup 0 per glyph data 1" W dx=0 dy=0 dh=-54 dv=0 dx=0 dy=0 dh=0 dv=0
PairPos2: "'kern' Horizontal Kerning in Latin lookup 0 per glyph data 1" V dx=0 dy=0 dh=-60 dv=0 dx=0 dy=0 dh=0 dv=0
PairPos2: "'kern' Horizontal Kerning in Latin lookup 0 per glyph data 1" T dx=0 dy=0 dh=-102 dv=0 dx=0 dy=0 dh=0 dv=0
PairPos2: "'kern' Horizontal Kerning in Latin lookup 0 per glyph data 1" A dx=0 dy=0 dh=19 dv=0 dx=0 dy=0 dh=0 dv=0
PairPos2: "'kern' Horizontal Kerning in Latin lookup 0 per glyph data 1" hyphen dx=0 dy=0 dh=-33 dv=0 dx=0 dy=0 dh=0 dv=0
PairPos2: "'kern' Horizontal Kerning in Latin lookup 0 per glyph data 1" plus dx=0 dy=0 dh=-21 dv=0 dx=0 dy=0 dh=0 dv=0
PairPos2: "'kern' Horizontal Kerning in Latin lookup 0 per glyph data 1" parenright dx=0 dy=0 dh=-51 dv=0 dx=0 dy=0 dh=0 dv=0
EndChar

StartChar: four
Encoding: 52 52 23
Width: 1359
GlyphClass: 2
Flags: W
LayerCount: 2
Fore
SplineSet
974 340 m 2,0,1
 974 224 974 224 872 136 c 1,2,-1
 1198 136 l 1,3,4
 1186 134 1186 134 1132 87.5 c 128,-1,5
 1078 41 1078 41 1050 20.5 c 128,-1,6
 1022 0 1022 0 1004 0 c 2,7,-1
 674 0 l 1,8,9
 751 39 751 39 768 102 c 0,10,11
 780 143 780 143 780 315 c 2,12,-1
 780 343 l 1,13,-1
 293 343 l 2,14,15
 150 343 150 343 2 344 c 1,16,17
 502 840 502 840 661 1099 c 0,18,19
 693 1150 693 1150 721.5 1201.5 c 128,-1,20
 750 1253 750 1253 768.5 1285.5 c 128,-1,21
 787 1318 787 1318 804 1331 c 128,-1,22
 821 1344 821 1344 842.5 1357 c 128,-1,23
 864 1370 864 1370 887 1383 c 128,-1,24
 910 1396 910 1396 928 1409 c 2,25,-1
 974 1441 l 1,26,-1
 974 479 l 1,27,-1
 1055 479 l 2,28,29
 1183 479 1183 479 1285 527 c 0,30,31
 1321 544 1321 544 1347 569 c 1,32,33
 1163 391 1163 391 974 355 c 1,34,-1
 974 340 l 2,0,1
780 480 m 1,35,-1
 780 1115 l 1,36,37
 597 847 597 847 314 583 c 0,38,39
 305 575 305 575 275 548 c 1,40,41
 231 505 231 505 200 480 c 1,42,-1
 780 480 l 1,35,-1
EndSplineSet
PairPos2: "'kern' Horizontal Kerning in Latin lookup 0 per glyph data 1" fraction dx=0 dy=0 dh=-42 dv=0 dx=0 dy=0 dh=0 dv=0
PairPos2: "'kern' Horizontal Kerning in Latin lookup 0 per glyph data 1" Ygrave dx=0 dy=0 dh=-27 dv=0 dx=0 dy=0 dh=0 dv=0
PairPos2: "'kern' Horizontal Kerning in Latin lookup 0 per glyph data 1" Wdieresis dx=0 dy=0 dh=-31 dv=0 dx=0 dy=0 dh=0 dv=0
PairPos2: "'kern' Horizontal Kerning in Latin lookup 0 per glyph data 1" Wacute dx=0 dy=0 dh=-31 dv=0 dx=0 dy=0 dh=0 dv=0
PairPos2: "'kern' Horizontal Kerning in Latin lookup 0 per glyph data 1" Wgrave dx=0 dy=0 dh=-31 dv=0 dx=0 dy=0 dh=0 dv=0
PairPos2: "'kern' Horizontal Kerning in Latin lookup 0 per glyph data 1" Ydieresis dx=0 dy=0 dh=-27 dv=0 dx=0 dy=0 dh=0 dv=0
PairPos2: "'kern' Horizontal Kerning in Latin lookup 0 per glyph data 1" Ycircumflex dx=0 dy=0 dh=-27 dv=0 dx=0 dy=0 dh=0 dv=0
PairPos2: "'kern' Horizontal Kerning in Latin lookup 0 per glyph data 1" Wcircumflex dx=0 dy=0 dh=-31 dv=0 dx=0 dy=0 dh=0 dv=0
PairPos2: "'kern' Horizontal Kerning in Latin lookup 0 per glyph data 1" Tbar dx=0 dy=0 dh=-61 dv=0 dx=0 dy=0 dh=0 dv=0
PairPos2: "'kern' Horizontal Kerning in Latin lookup 0 per glyph data 1" Tcaron dx=0 dy=0 dh=-61 dv=0 dx=0 dy=0 dh=0 dv=0
PairPos2: "'kern' Horizontal Kerning in Latin lookup 0 per glyph data 1" Tcommaaccent dx=0 dy=0 dh=-61 dv=0 dx=0 dy=0 dh=0 dv=0
PairPos2: "'kern' Horizontal Kerning in Latin lookup 0 per glyph data 1" Yacute dx=0 dy=0 dh=-27 dv=0 dx=0 dy=0 dh=0 dv=0
PairPos2: "'kern' Horizontal Kerning in Latin lookup 0 per glyph data 1" degree dx=0 dy=0 dh=-49 dv=0 dx=0 dy=0 dh=0 dv=0
PairPos2: "'kern' Horizontal Kerning in Latin lookup 0 per glyph data 1" braceright dx=0 dy=0 dh=-92 dv=0 dx=0 dy=0 dh=0 dv=0
PairPos2: "'kern' Horizontal Kerning in Latin lookup 0 per glyph data 1" bracketright dx=0 dy=0 dh=-56 dv=0 dx=0 dy=0 dh=0 dv=0
PairPos2: "'kern' Horizontal Kerning in Latin lookup 0 per glyph data 1" backslash dx=0 dy=0 dh=-35 dv=0 dx=0 dy=0 dh=0 dv=0
PairPos2: "'kern' Horizontal Kerning in Latin lookup 0 per glyph data 1" Y dx=0 dy=0 dh=-27 dv=0 dx=0 dy=0 dh=0 dv=0
PairPos2: "'kern' Horizontal Kerning in Latin lookup 0 per glyph data 1" W dx=0 dy=0 dh=-31 dv=0 dx=0 dy=0 dh=0 dv=0
PairPos2: "'kern' Horizontal Kerning in Latin lookup 0 per glyph data 1" V dx=0 dy=0 dh=-34 dv=0 dx=0 dy=0 dh=0 dv=0
PairPos2: "'kern' Horizontal Kerning in Latin lookup 0 per glyph data 1" T dx=0 dy=0 dh=-61 dv=0 dx=0 dy=0 dh=0 dv=0
PairPos2: "'kern' Horizontal Kerning in Latin lookup 0 per glyph data 1" three dx=0 dy=0 dh=-51 dv=0 dx=0 dy=0 dh=0 dv=0
PairPos2: "'kern' Horizontal Kerning in Latin lookup 0 per glyph data 1" parenright dx=0 dy=0 dh=-114 dv=0 dx=0 dy=0 dh=0 dv=0
PairPos2: "'kern' Horizontal Kerning in Latin lookup 0 per glyph data 1" quotesingle dx=0 dy=0 dh=-49 dv=0 dx=0 dy=0 dh=0 dv=0
PairPos2: "'kern' Horizontal Kerning in Latin lookup 0 per glyph data 1" quotedbl dx=0 dy=0 dh=-49 dv=0 dx=0 dy=0 dh=0 dv=0
EndChar

StartChar: five
Encoding: 53 53 24
Width: 1109
GlyphClass: 2
Flags: W
LayerCount: 2
Fore
SplineSet
314 -44 m 1,0,1
 263 -95 263 -95 263 -123.5 c 128,-1,2
 263 -152 263 -152 281.5 -167.5 c 128,-1,3
 300 -183 300 -183 329 -195.5 c 128,-1,4
 358 -208 358 -208 394 -217 c 128,-1,5
 430 -226 430 -226 464 -232 c 0,6,7
 532 -244 532 -244 562 -244 c 0,8,9
 646 -244 646 -244 724 -172 c 0,10,11
 823 -82 823 -82 823 43 c 0,12,13
 823 317 823 317 616 399 c 0,14,15
 547 426 547 426 479.5 426 c 128,-1,16
 412 426 412 426 368 418.5 c 128,-1,17
 324 411 324 411 281 399.5 c 128,-1,18
 238 388 238 388 195 375 c 128,-1,19
 152 362 152 362 109 351 c 1,20,21
 162 551 162 551 168 953 c 1,22,-1
 363 1089 l 1,23,-1
 1075 1089 l 1,24,25
 912 953 912 953 880 953 c 2,26,-1
 360 953 l 1,27,28
 349 694 349 694 308 504 c 1,29,30
 413 558 413 558 646 558 c 0,31,32
 819 558 819 558 916 462 c 1,33,34
 1015 366 1015 366 1015 193 c 0,35,36
 1015 28 1015 28 905 -90 c 0,37,38
 723 -286 723 -286 517 -354 c 0,39,40
 442 -378 442 -378 396 -378 c 128,-1,41
 350 -378 350 -378 323 -374.5 c 128,-1,42
 296 -371 296 -371 263 -365 c 128,-1,43
 230 -359 230 -359 195 -350 c 128,-1,44
 160 -341 160 -341 132 -329 c 0,45,46
 66 -301 66 -301 66 -272 c 0,47,48
 66 -231 66 -231 125 -172 c 0,49,50
 154 -143 154 -143 199 -119 c 0,51,52
 286 -72 286 -72 314 -44 c 1,0,1
EndSplineSet
PairPos2: "'kern' Horizontal Kerning in Latin lookup 0 per glyph data 1" emdash dx=0 dy=0 dh=-31 dv=0 dx=0 dy=0 dh=0 dv=0
PairPos2: "'kern' Horizontal Kerning in Latin lookup 0 per glyph data 1" endash dx=0 dy=0 dh=-31 dv=0 dx=0 dy=0 dh=0 dv=0
PairPos2: "'kern' Horizontal Kerning in Latin lookup 0 per glyph data 1" Ygrave dx=0 dy=0 dh=-32 dv=0 dx=0 dy=0 dh=0 dv=0
PairPos2: "'kern' Horizontal Kerning in Latin lookup 0 per glyph data 1" wdieresis dx=0 dy=0 dh=-32 dv=0 dx=0 dy=0 dh=0 dv=0
PairPos2: "'kern' Horizontal Kerning in Latin lookup 0 per glyph data 1" Wdieresis dx=0 dy=0 dh=-26 dv=0 dx=0 dy=0 dh=0 dv=0
PairPos2: "'kern' Horizontal Kerning in Latin lookup 0 per glyph data 1" wacute dx=0 dy=0 dh=-32 dv=0 dx=0 dy=0 dh=0 dv=0
PairPos2: "'kern' Horizontal Kerning in Latin lookup 0 per glyph data 1" Wacute dx=0 dy=0 dh=-26 dv=0 dx=0 dy=0 dh=0 dv=0
PairPos2: "'kern' Horizontal Kerning in Latin lookup 0 per glyph data 1" wgrave dx=0 dy=0 dh=-32 dv=0 dx=0 dy=0 dh=0 dv=0
PairPos2: "'kern' Horizontal Kerning in Latin lookup 0 per glyph data 1" Wgrave dx=0 dy=0 dh=-26 dv=0 dx=0 dy=0 dh=0 dv=0
PairPos2: "'kern' Horizontal Kerning in Latin lookup 0 per glyph data 1" Ydieresis dx=0 dy=0 dh=-32 dv=0 dx=0 dy=0 dh=0 dv=0
PairPos2: "'kern' Horizontal Kerning in Latin lookup 0 per glyph data 1" Ycircumflex dx=0 dy=0 dh=-32 dv=0 dx=0 dy=0 dh=0 dv=0
PairPos2: "'kern' Horizontal Kerning in Latin lookup 0 per glyph data 1" wcircumflex dx=0 dy=0 dh=-32 dv=0 dx=0 dy=0 dh=0 dv=0
PairPos2: "'kern' Horizontal Kerning in Latin lookup 0 per glyph data 1" Wcircumflex dx=0 dy=0 dh=-26 dv=0 dx=0 dy=0 dh=0 dv=0
PairPos2: "'kern' Horizontal Kerning in Latin lookup 0 per glyph data 1" Tbar dx=0 dy=0 dh=-89 dv=0 dx=0 dy=0 dh=0 dv=0
PairPos2: "'kern' Horizontal Kerning in Latin lookup 0 per glyph data 1" Tcaron dx=0 dy=0 dh=-89 dv=0 dx=0 dy=0 dh=0 dv=0
PairPos2: "'kern' Horizontal Kerning in Latin lookup 0 per glyph data 1" Tcommaaccent dx=0 dy=0 dh=-89 dv=0 dx=0 dy=0 dh=0 dv=0
PairPos2: "'kern' Horizontal Kerning in Latin lookup 0 per glyph data 1" Yacute dx=0 dy=0 dh=-32 dv=0 dx=0 dy=0 dh=0 dv=0
PairPos2: "'kern' Horizontal Kerning in Latin lookup 0 per glyph data 1" periodcentered dx=0 dy=0 dh=-53 dv=0 dx=0 dy=0 dh=0 dv=0
PairPos2: "'kern' Horizontal Kerning in Latin lookup 0 per glyph data 1" braceright dx=0 dy=0 dh=-59 dv=0 dx=0 dy=0 dh=0 dv=0
PairPos2: "'kern' Horizontal Kerning in Latin lookup 0 per glyph data 1" w dx=0 dy=0 dh=-32 dv=0 dx=0 dy=0 dh=0 dv=0
PairPos2: "'kern' Horizontal Kerning in Latin lookup 0 per glyph data 1" v dx=0 dy=0 dh=-35 dv=0 dx=0 dy=0 dh=0 dv=0
PairPos2: "'kern' Horizontal Kerning in Latin lookup 0 per glyph data 1" bracketright dx=0 dy=0 dh=-47 dv=0 dx=0 dy=0 dh=0 dv=0
PairPos2: "'kern' Horizontal Kerning in Latin lookup 0 per glyph data 1" Y dx=0 dy=0 dh=-32 dv=0 dx=0 dy=0 dh=0 dv=0
PairPos2: "'kern' Horizontal Kerning in Latin lookup 0 per glyph data 1" W dx=0 dy=0 dh=-26 dv=0 dx=0 dy=0 dh=0 dv=0
PairPos2: "'kern' Horizontal Kerning in Latin lookup 0 per glyph data 1" V dx=0 dy=0 dh=-34 dv=0 dx=0 dy=0 dh=0 dv=0
PairPos2: "'kern' Horizontal Kerning in Latin lookup 0 per glyph data 1" T dx=0 dy=0 dh=-89 dv=0 dx=0 dy=0 dh=0 dv=0
PairPos2: "'kern' Horizontal Kerning in Latin lookup 0 per glyph data 1" three dx=0 dy=0 dh=-25 dv=0 dx=0 dy=0 dh=0 dv=0
PairPos2: "'kern' Horizontal Kerning in Latin lookup 0 per glyph data 1" hyphen dx=0 dy=0 dh=-31 dv=0 dx=0 dy=0 dh=0 dv=0
PairPos2: "'kern' Horizontal Kerning in Latin lookup 0 per glyph data 1" parenright dx=0 dy=0 dh=-73 dv=0 dx=0 dy=0 dh=0 dv=0
EndChar

StartChar: six
Encoding: 54 54 25
Width: 1288
GlyphClass: 2
Flags: W
LayerCount: 2
Fore
SplineSet
998 1255 m 0,0,1
 998 1342 998 1342 708 1342 c 0,2,3
 492 1342 492 1342 382 1111 c 0,4,5
 291 921 291 921 295 692 c 1,6,-1
 295 664 l 1,7,8
 459 820 459 820 646 890 c 0,9,10
 712 914 712 914 766.5 914 c 128,-1,11
 821 914 821 914 873 899 c 128,-1,12
 925 884 925 884 972.5 857.5 c 128,-1,13
 1020 831 1020 831 1061.5 794 c 128,-1,14
 1103 757 1103 757 1133 712 c 0,15,16
 1198 616 1198 616 1198 523.5 c 128,-1,17
 1198 431 1198 431 1166 362 c 128,-1,18
 1134 293 1134 293 1082 235 c 0,19,20
 997 138 997 138 841 42 c 1,21,22
 707 -39 707 -39 564 -39 c 0,23,24
 393 -39 393 -39 272 72 c 0,25,26
 95 235 95 235 95 539 c 0,27,28
 95 809 95 809 226 1039 c 0,29,30
 301 1170 301 1170 464 1294 c 0,31,32
 700 1474 700 1474 945.5 1474 c 128,-1,33
 1191 1474 1191 1474 1191 1393 c 0,34,35
 1191 1370 1191 1370 1170 1341 c 1,36,37
 1153 1331 1153 1331 1125.5 1315 c 128,-1,38
 1098 1299 1098 1299 1070 1280 c 1,39,40
 1002 1237 1002 1237 981 1212 c 1,41,42
 998 1234 998 1234 998 1255 c 0,0,1
1001 358 m 0,43,44
 1001 407 1001 407 986 458.5 c 128,-1,45
 971 510 971 510 944.5 557.5 c 128,-1,46
 918 605 918 605 881 646.5 c 128,-1,47
 844 688 844 688 800 718 c 0,48,49
 706 784 706 784 623 784 c 128,-1,50
 540 784 540 784 492 758 c 128,-1,51
 444 732 444 732 409 690 c 0,52,53
 343 611 343 611 316 488 c 1,54,55
 354 316 354 316 464 210 c 1,56,57
 583 97 583 97 752 97 c 0,58,59
 870 97 870 97 939 178 c 0,60,61
 1001 252 1001 252 1001 358 c 0,43,44
EndSplineSet
PairPos2: "'kern' Horizontal Kerning in Latin lookup 0 per glyph data 1" fraction dx=0 dy=0 dh=-63 dv=0 dx=0 dy=0 dh=0 dv=0
PairPos2: "'kern' Horizontal Kerning in Latin lookup 0 per glyph data 1" Ygrave dx=0 dy=0 dh=59 dv=0 dx=0 dy=0 dh=0 dv=0
PairPos2: "'kern' Horizontal Kerning in Latin lookup 0 per glyph data 1" Wdieresis dx=0 dy=0 dh=32 dv=0 dx=0 dy=0 dh=0 dv=0
PairPos2: "'kern' Horizontal Kerning in Latin lookup 0 per glyph data 1" Wacute dx=0 dy=0 dh=32 dv=0 dx=0 dy=0 dh=0 dv=0
PairPos2: "'kern' Horizontal Kerning in Latin lookup 0 per glyph data 1" Wgrave dx=0 dy=0 dh=32 dv=0 dx=0 dy=0 dh=0 dv=0
PairPos2: "'kern' Horizontal Kerning in Latin lookup 0 per glyph data 1" Ydieresis dx=0 dy=0 dh=59 dv=0 dx=0 dy=0 dh=0 dv=0
PairPos2: "'kern' Horizontal Kerning in Latin lookup 0 per glyph data 1" Ycircumflex dx=0 dy=0 dh=59 dv=0 dx=0 dy=0 dh=0 dv=0
PairPos2: "'kern' Horizontal Kerning in Latin lookup 0 per glyph data 1" Wcircumflex dx=0 dy=0 dh=32 dv=0 dx=0 dy=0 dh=0 dv=0
PairPos2: "'kern' Horizontal Kerning in Latin lookup 0 per glyph data 1" Tbar dx=0 dy=0 dh=13 dv=0 dx=0 dy=0 dh=0 dv=0
PairPos2: "'kern' Horizontal Kerning in Latin lookup 0 per glyph data 1" Tcaron dx=0 dy=0 dh=13 dv=0 dx=0 dy=0 dh=0 dv=0
PairPos2: "'kern' Horizontal Kerning in Latin lookup 0 per glyph data 1" Tcommaaccent dx=0 dy=0 dh=13 dv=0 dx=0 dy=0 dh=0 dv=0
PairPos2: "'kern' Horizontal Kerning in Latin lookup 0 per glyph data 1" Yacute dx=0 dy=0 dh=59 dv=0 dx=0 dy=0 dh=0 dv=0
PairPos2: "'kern' Horizontal Kerning in Latin lookup 0 per glyph data 1" braceright dx=0 dy=0 dh=-56 dv=0 dx=0 dy=0 dh=0 dv=0
PairPos2: "'kern' Horizontal Kerning in Latin lookup 0 per glyph data 1" bracketright dx=0 dy=0 dh=-40 dv=0 dx=0 dy=0 dh=0 dv=0
PairPos2: "'kern' Horizontal Kerning in Latin lookup 0 per glyph data 1" Y dx=0 dy=0 dh=59 dv=0 dx=0 dy=0 dh=0 dv=0
PairPos2: "'kern' Horizontal Kerning in Latin lookup 0 per glyph data 1" W dx=0 dy=0 dh=32 dv=0 dx=0 dy=0 dh=0 dv=0
PairPos2: "'kern' Horizontal Kerning in Latin lookup 0 per glyph data 1" V dx=0 dy=0 dh=34 dv=0 dx=0 dy=0 dh=0 dv=0
PairPos2: "'kern' Horizontal Kerning in Latin lookup 0 per glyph data 1" T dx=0 dy=0 dh=13 dv=0 dx=0 dy=0 dh=0 dv=0
PairPos2: "'kern' Horizontal Kerning in Latin lookup 0 per glyph data 1" seven dx=0 dy=0 dh=-37 dv=0 dx=0 dy=0 dh=0 dv=0
PairPos2: "'kern' Horizontal Kerning in Latin lookup 0 per glyph data 1" three dx=0 dy=0 dh=-60 dv=0 dx=0 dy=0 dh=0 dv=0
PairPos2: "'kern' Horizontal Kerning in Latin lookup 0 per glyph data 1" parenright dx=0 dy=0 dh=-51 dv=0 dx=0 dy=0 dh=0 dv=0
EndChar

StartChar: seven
Encoding: 55 55 26
Width: 980
GlyphClass: 2
Flags: W
LayerCount: 2
Fore
SplineSet
977 1089 m 1,0,1
 909 873 909 873 866 742 c 128,-1,2
 823 611 823 611 797 531.5 c 128,-1,3
 771 452 771 452 746 382 c 0,4,5
 693 231 693 231 660.5 162.5 c 128,-1,6
 628 94 628 94 561.5 2 c 128,-1,7
 495 -90 495 -90 414 -175 c 0,8,9
 234 -364 234 -364 67 -431 c 1,10,-1
 63 -423 l 1,11,12
 72 -418 72 -418 79.5 -413 c 128,-1,13
 87 -408 87 -408 94.5 -403.5 c 128,-1,14
 102 -399 102 -399 137.5 -372 c 128,-1,15
 173 -345 173 -345 225.5 -300.5 c 128,-1,16
 278 -256 278 -256 322 -206 c 0,17,18
 410 -106 410 -106 465.5 20 c 128,-1,19
 521 146 521 146 560.5 260.5 c 128,-1,20
 600 375 600 375 636.5 492 c 128,-1,21
 673 609 673 609 708.5 726 c 128,-1,22
 744 843 744 843 784 953 c 1,23,-1
 16 953 l 1,24,25
 27 961 27 961 54 983.5 c 128,-1,26
 81 1006 81 1006 112 1030 c 0,27,28
 190 1089 190 1089 210 1089 c 2,29,-1
 977 1089 l 1,0,1
EndSplineSet
PairPos2: "'kern' Horizontal Kerning in Latin lookup 0 per glyph data 1" fraction dx=0 dy=0 dh=-82 dv=0 dx=0 dy=0 dh=0 dv=0
PairPos2: "'kern' Horizontal Kerning in Latin lookup 0 per glyph data 1" ellipsis dx=0 dy=0 dh=-62 dv=0 dx=0 dy=0 dh=0 dv=0
PairPos2: "'kern' Horizontal Kerning in Latin lookup 0 per glyph data 1" quotedblbase dx=0 dy=0 dh=-62 dv=0 dx=0 dy=0 dh=0 dv=0
PairPos2: "'kern' Horizontal Kerning in Latin lookup 0 per glyph data 1" quotesinglbase dx=0 dy=0 dh=-62 dv=0 dx=0 dy=0 dh=0 dv=0
PairPos2: "'kern' Horizontal Kerning in Latin lookup 0 per glyph data 1" emdash dx=0 dy=0 dh=-27 dv=0 dx=0 dy=0 dh=0 dv=0
PairPos2: "'kern' Horizontal Kerning in Latin lookup 0 per glyph data 1" endash dx=0 dy=0 dh=-27 dv=0 dx=0 dy=0 dh=0 dv=0
PairPos2: "'kern' Horizontal Kerning in Latin lookup 0 per glyph data 1" Ygrave dx=0 dy=0 dh=-30 dv=0 dx=0 dy=0 dh=0 dv=0
PairPos2: "'kern' Horizontal Kerning in Latin lookup 0 per glyph data 1" Wdieresis dx=0 dy=0 dh=-26 dv=0 dx=0 dy=0 dh=0 dv=0
PairPos2: "'kern' Horizontal Kerning in Latin lookup 0 per glyph data 1" Wacute dx=0 dy=0 dh=-26 dv=0 dx=0 dy=0 dh=0 dv=0
PairPos2: "'kern' Horizontal Kerning in Latin lookup 0 per glyph data 1" Wgrave dx=0 dy=0 dh=-26 dv=0 dx=0 dy=0 dh=0 dv=0
PairPos2: "'kern' Horizontal Kerning in Latin lookup 0 per glyph data 1" oslashacute dx=0 dy=0 dh=-22 dv=0 dx=0 dy=0 dh=0 dv=0
PairPos2: "'kern' Horizontal Kerning in Latin lookup 0 per glyph data 1" AEacute dx=0 dy=0 dh=-25 dv=0 dx=0 dy=0 dh=0 dv=0
PairPos2: "'kern' Horizontal Kerning in Latin lookup 0 per glyph data 1" Zcaron dx=0 dy=0 dh=-21 dv=0 dx=0 dy=0 dh=0 dv=0
PairPos2: "'kern' Horizontal Kerning in Latin lookup 0 per glyph data 1" Zdotaccent dx=0 dy=0 dh=-21 dv=0 dx=0 dy=0 dh=0 dv=0
PairPos2: "'kern' Horizontal Kerning in Latin lookup 0 per glyph data 1" Zacute dx=0 dy=0 dh=-21 dv=0 dx=0 dy=0 dh=0 dv=0
PairPos2: "'kern' Horizontal Kerning in Latin lookup 0 per glyph data 1" Ydieresis dx=0 dy=0 dh=-30 dv=0 dx=0 dy=0 dh=0 dv=0
PairPos2: "'kern' Horizontal Kerning in Latin lookup 0 per glyph data 1" Ycircumflex dx=0 dy=0 dh=-30 dv=0 dx=0 dy=0 dh=0 dv=0
PairPos2: "'kern' Horizontal Kerning in Latin lookup 0 per glyph data 1" Wcircumflex dx=0 dy=0 dh=-26 dv=0 dx=0 dy=0 dh=0 dv=0
PairPos2: "'kern' Horizontal Kerning in Latin lookup 0 per glyph data 1" Tbar dx=0 dy=0 dh=-85 dv=0 dx=0 dy=0 dh=0 dv=0
PairPos2: "'kern' Horizontal Kerning in Latin lookup 0 per glyph data 1" Tcaron dx=0 dy=0 dh=-85 dv=0 dx=0 dy=0 dh=0 dv=0
PairPos2: "'kern' Horizontal Kerning in Latin lookup 0 per glyph data 1" Tcommaaccent dx=0 dy=0 dh=-85 dv=0 dx=0 dy=0 dh=0 dv=0
PairPos2: "'kern' Horizontal Kerning in Latin lookup 0 per glyph data 1" oe dx=0 dy=0 dh=-22 dv=0 dx=0 dy=0 dh=0 dv=0
PairPos2: "'kern' Horizontal Kerning in Latin lookup 0 per glyph data 1" ohungarumlaut dx=0 dy=0 dh=-22 dv=0 dx=0 dy=0 dh=0 dv=0
PairPos2: "'kern' Horizontal Kerning in Latin lookup 0 per glyph data 1" obreve dx=0 dy=0 dh=-22 dv=0 dx=0 dy=0 dh=0 dv=0
PairPos2: "'kern' Horizontal Kerning in Latin lookup 0 per glyph data 1" omacron dx=0 dy=0 dh=-22 dv=0 dx=0 dy=0 dh=0 dv=0
PairPos2: "'kern' Horizontal Kerning in Latin lookup 0 per glyph data 1" ecaron dx=0 dy=0 dh=-24 dv=0 dx=0 dy=0 dh=0 dv=0
PairPos2: "'kern' Horizontal Kerning in Latin lookup 0 per glyph data 1" eogonek dx=0 dy=0 dh=-24 dv=0 dx=0 dy=0 dh=0 dv=0
PairPos2: "'kern' Horizontal Kerning in Latin lookup 0 per glyph data 1" edotaccent dx=0 dy=0 dh=-24 dv=0 dx=0 dy=0 dh=0 dv=0
PairPos2: "'kern' Horizontal Kerning in Latin lookup 0 per glyph data 1" ebreve dx=0 dy=0 dh=-24 dv=0 dx=0 dy=0 dh=0 dv=0
PairPos2: "'kern' Horizontal Kerning in Latin lookup 0 per glyph data 1" emacron dx=0 dy=0 dh=-24 dv=0 dx=0 dy=0 dh=0 dv=0
PairPos2: "'kern' Horizontal Kerning in Latin lookup 0 per glyph data 1" dcaron dx=0 dy=0 dh=-22 dv=0 dx=0 dy=0 dh=0 dv=0
PairPos2: "'kern' Horizontal Kerning in Latin lookup 0 per glyph data 1" ccaron dx=0 dy=0 dh=-23 dv=0 dx=0 dy=0 dh=0 dv=0
PairPos2: "'kern' Horizontal Kerning in Latin lookup 0 per glyph data 1" cdotaccent dx=0 dy=0 dh=-23 dv=0 dx=0 dy=0 dh=0 dv=0
PairPos2: "'kern' Horizontal Kerning in Latin lookup 0 per glyph data 1" ccircumflex dx=0 dy=0 dh=-23 dv=0 dx=0 dy=0 dh=0 dv=0
PairPos2: "'kern' Horizontal Kerning in Latin lookup 0 per glyph data 1" cacute dx=0 dy=0 dh=-23 dv=0 dx=0 dy=0 dh=0 dv=0
PairPos2: "'kern' Horizontal Kerning in Latin lookup 0 per glyph data 1" Aogonek dx=0 dy=0 dh=-25 dv=0 dx=0 dy=0 dh=0 dv=0
PairPos2: "'kern' Horizontal Kerning in Latin lookup 0 per glyph data 1" Abreve dx=0 dy=0 dh=-25 dv=0 dx=0 dy=0 dh=0 dv=0
PairPos2: "'kern' Horizontal Kerning in Latin lookup 0 per glyph data 1" Amacron dx=0 dy=0 dh=-25 dv=0 dx=0 dy=0 dh=0 dv=0
PairPos2: "'kern' Horizontal Kerning in Latin lookup 0 per glyph data 1" oslash dx=0 dy=0 dh=-22 dv=0 dx=0 dy=0 dh=0 dv=0
PairPos2: "'kern' Horizontal Kerning in Latin lookup 0 per glyph data 1" odieresis dx=0 dy=0 dh=-22 dv=0 dx=0 dy=0 dh=0 dv=0
PairPos2: "'kern' Horizontal Kerning in Latin lookup 0 per glyph data 1" otilde dx=0 dy=0 dh=-22 dv=0 dx=0 dy=0 dh=0 dv=0
PairPos2: "'kern' Horizontal Kerning in Latin lookup 0 per glyph data 1" ocircumflex dx=0 dy=0 dh=-22 dv=0 dx=0 dy=0 dh=0 dv=0
PairPos2: "'kern' Horizontal Kerning in Latin lookup 0 per glyph data 1" oacute dx=0 dy=0 dh=-22 dv=0 dx=0 dy=0 dh=0 dv=0
PairPos2: "'kern' Horizontal Kerning in Latin lookup 0 per glyph data 1" ograve dx=0 dy=0 dh=-22 dv=0 dx=0 dy=0 dh=0 dv=0
PairPos2: "'kern' Horizontal Kerning in Latin lookup 0 per glyph data 1" eth dx=0 dy=0 dh=-22 dv=0 dx=0 dy=0 dh=0 dv=0
PairPos2: "'kern' Horizontal Kerning in Latin lookup 0 per glyph data 1" edieresis dx=0 dy=0 dh=-24 dv=0 dx=0 dy=0 dh=0 dv=0
PairPos2: "'kern' Horizontal Kerning in Latin lookup 0 per glyph data 1" ecircumflex dx=0 dy=0 dh=-24 dv=0 dx=0 dy=0 dh=0 dv=0
PairPos2: "'kern' Horizontal Kerning in Latin lookup 0 per glyph data 1" eacute dx=0 dy=0 dh=-24 dv=0 dx=0 dy=0 dh=0 dv=0
PairPos2: "'kern' Horizontal Kerning in Latin lookup 0 per glyph data 1" egrave dx=0 dy=0 dh=-24 dv=0 dx=0 dy=0 dh=0 dv=0
PairPos2: "'kern' Horizontal Kerning in Latin lookup 0 per glyph data 1" ccedilla dx=0 dy=0 dh=-23 dv=0 dx=0 dy=0 dh=0 dv=0
PairPos2: "'kern' Horizontal Kerning in Latin lookup 0 per glyph data 1" Yacute dx=0 dy=0 dh=-30 dv=0 dx=0 dy=0 dh=0 dv=0
PairPos2: "'kern' Horizontal Kerning in Latin lookup 0 per glyph data 1" AE dx=0 dy=0 dh=-25 dv=0 dx=0 dy=0 dh=0 dv=0
PairPos2: "'kern' Horizontal Kerning in Latin lookup 0 per glyph data 1" Aring dx=0 dy=0 dh=-25 dv=0 dx=0 dy=0 dh=0 dv=0
PairPos2: "'kern' Horizontal Kerning in Latin lookup 0 per glyph data 1" Adieresis dx=0 dy=0 dh=-25 dv=0 dx=0 dy=0 dh=0 dv=0
PairPos2: "'kern' Horizontal Kerning in Latin lookup 0 per glyph data 1" Atilde dx=0 dy=0 dh=-25 dv=0 dx=0 dy=0 dh=0 dv=0
PairPos2: "'kern' Horizontal Kerning in Latin lookup 0 per glyph data 1" Acircumflex dx=0 dy=0 dh=-25 dv=0 dx=0 dy=0 dh=0 dv=0
PairPos2: "'kern' Horizontal Kerning in Latin lookup 0 per glyph data 1" Aacute dx=0 dy=0 dh=-25 dv=0 dx=0 dy=0 dh=0 dv=0
PairPos2: "'kern' Horizontal Kerning in Latin lookup 0 per glyph data 1" Agrave dx=0 dy=0 dh=-25 dv=0 dx=0 dy=0 dh=0 dv=0
PairPos2: "'kern' Horizontal Kerning in Latin lookup 0 per glyph data 1" braceright dx=0 dy=0 dh=-103 dv=0 dx=0 dy=0 dh=0 dv=0
PairPos2: "'kern' Horizontal Kerning in Latin lookup 0 per glyph data 1" q dx=0 dy=0 dh=-22 dv=0 dx=0 dy=0 dh=0 dv=0
PairPos2: "'kern' Horizontal Kerning in Latin lookup 0 per glyph data 1" o dx=0 dy=0 dh=-22 dv=0 dx=0 dy=0 dh=0 dv=0
PairPos2: "'kern' Horizontal Kerning in Latin lookup 0 per glyph data 1" e dx=0 dy=0 dh=-24 dv=0 dx=0 dy=0 dh=0 dv=0
PairPos2: "'kern' Horizontal Kerning in Latin lookup 0 per glyph data 1" d dx=0 dy=0 dh=-22 dv=0 dx=0 dy=0 dh=0 dv=0
PairPos2: "'kern' Horizontal Kerning in Latin lookup 0 per glyph data 1" c dx=0 dy=0 dh=-23 dv=0 dx=0 dy=0 dh=0 dv=0
PairPos2: "'kern' Horizontal Kerning in Latin lookup 0 per glyph data 1" bracketright dx=0 dy=0 dh=-63 dv=0 dx=0 dy=0 dh=0 dv=0
PairPos2: "'kern' Horizontal Kerning in Latin lookup 0 per glyph data 1" Z dx=0 dy=0 dh=-21 dv=0 dx=0 dy=0 dh=0 dv=0
PairPos2: "'kern' Horizontal Kerning in Latin lookup 0 per glyph data 1" Y dx=0 dy=0 dh=-30 dv=0 dx=0 dy=0 dh=0 dv=0
PairPos2: "'kern' Horizontal Kerning in Latin lookup 0 per glyph data 1" W dx=0 dy=0 dh=-26 dv=0 dx=0 dy=0 dh=0 dv=0
PairPos2: "'kern' Horizontal Kerning in Latin lookup 0 per glyph data 1" V dx=0 dy=0 dh=-33 dv=0 dx=0 dy=0 dh=0 dv=0
PairPos2: "'kern' Horizontal Kerning in Latin lookup 0 per glyph data 1" T dx=0 dy=0 dh=-85 dv=0 dx=0 dy=0 dh=0 dv=0
PairPos2: "'kern' Horizontal Kerning in Latin lookup 0 per glyph data 1" A dx=0 dy=0 dh=-25 dv=0 dx=0 dy=0 dh=0 dv=0
PairPos2: "'kern' Horizontal Kerning in Latin lookup 0 per glyph data 1" slash dx=0 dy=0 dh=-31 dv=0 dx=0 dy=0 dh=0 dv=0
PairPos2: "'kern' Horizontal Kerning in Latin lookup 0 per glyph data 1" period dx=0 dy=0 dh=-62 dv=0 dx=0 dy=0 dh=0 dv=0
PairPos2: "'kern' Horizontal Kerning in Latin lookup 0 per glyph data 1" hyphen dx=0 dy=0 dh=-27 dv=0 dx=0 dy=0 dh=0 dv=0
PairPos2: "'kern' Horizontal Kerning in Latin lookup 0 per glyph data 1" comma dx=0 dy=0 dh=-62 dv=0 dx=0 dy=0 dh=0 dv=0
PairPos2: "'kern' Horizontal Kerning in Latin lookup 0 per glyph data 1" parenright dx=0 dy=0 dh=-119 dv=0 dx=0 dy=0 dh=0 dv=0
EndChar

StartChar: eight
Encoding: 56 56 27
Width: 1208
GlyphClass: 2
Flags: W
LayerCount: 2
Fore
SplineSet
382 723 m 1,0,1
 192 806 192 806 192 968 c 0,2,3
 192 1082 192 1082 291 1204 c 0,4,5
 434 1381 434 1381 646 1448 c 0,6,7
 710 1469 710 1469 766.5 1469 c 128,-1,8
 823 1469 823 1469 877 1450.5 c 128,-1,9
 931 1432 931 1432 973 1398 c 0,10,11
 1066 1321 1066 1321 1066 1204 c 0,12,13
 1066 1048 1066 1048 876 856 c 0,14,15
 826 806 826 806 783 770 c 1,16,17
 921 705 921 705 985 650 c 0,18,19
 1113 539 1113 539 1113 423 c 0,20,21
 1113 280 1113 280 953 159 c 0,22,23
 896 116 896 116 838 75 c 128,-1,24
 780 34 780 34 720 10 c 0,25,26
 602 -37 602 -37 504.5 -37 c 128,-1,27
 407 -37 407 -37 339 -10 c 128,-1,28
 271 17 271 17 221 65 c 0,29,30
 114 168 114 168 114 326 c 0,31,32
 114 533 114 533 382 723 c 1,0,1
754 783 m 1,33,34
 875 923 875 923 875 1071 c 0,35,36
 875 1191 875 1191 778 1264 c 0,37,38
 690 1331 690 1331 567 1331 c 0,39,40
 425 1331 425 1331 396 1215 c 0,41,42
 386 1178 386 1178 386 1130.5 c 128,-1,43
 386 1083 386 1083 403 1043.5 c 128,-1,44
 420 1004 420 1004 449 970.5 c 128,-1,45
 478 937 478 937 515.5 910 c 128,-1,46
 553 883 553 883 594 860 c 0,47,48
 645 832 645 832 754 783 c 1,33,34
411 710 m 1,49,50
 311 610 311 610 311 454 c 0,51,52
 311 294 311 294 424 195 c 0,53,54
 534 99 534 99 695 99 c 0,55,56
 844 99 844 99 895 185 c 0,57,58
 914 217 914 217 914 278 c 0,59,60
 914 416 914 416 800 510 c 0,61,62
 704 589 704 589 512 668 c 0,63,64
 460 689 460 689 411 710 c 1,49,50
EndSplineSet
PairPos2: "'kern' Horizontal Kerning in Latin lookup 0 per glyph data 1" fraction dx=0 dy=0 dh=-57 dv=0 dx=0 dy=0 dh=0 dv=0
PairPos2: "'kern' Horizontal Kerning in Latin lookup 0 per glyph data 1" Ygrave dx=0 dy=0 dh=19 dv=0 dx=0 dy=0 dh=0 dv=0
PairPos2: "'kern' Horizontal Kerning in Latin lookup 0 per glyph data 1" Ydieresis dx=0 dy=0 dh=19 dv=0 dx=0 dy=0 dh=0 dv=0
PairPos2: "'kern' Horizontal Kerning in Latin lookup 0 per glyph data 1" Ycircumflex dx=0 dy=0 dh=19 dv=0 dx=0 dy=0 dh=0 dv=0
PairPos2: "'kern' Horizontal Kerning in Latin lookup 0 per glyph data 1" Yacute dx=0 dy=0 dh=19 dv=0 dx=0 dy=0 dh=0 dv=0
PairPos2: "'kern' Horizontal Kerning in Latin lookup 0 per glyph data 1" braceright dx=0 dy=0 dh=-84 dv=0 dx=0 dy=0 dh=0 dv=0
PairPos2: "'kern' Horizontal Kerning in Latin lookup 0 per glyph data 1" bracketright dx=0 dy=0 dh=-57 dv=0 dx=0 dy=0 dh=0 dv=0
PairPos2: "'kern' Horizontal Kerning in Latin lookup 0 per glyph data 1" Y dx=0 dy=0 dh=19 dv=0 dx=0 dy=0 dh=0 dv=0
PairPos2: "'kern' Horizontal Kerning in Latin lookup 0 per glyph data 1" V dx=0 dy=0 dh=26 dv=0 dx=0 dy=0 dh=0 dv=0
PairPos2: "'kern' Horizontal Kerning in Latin lookup 0 per glyph data 1" three dx=0 dy=0 dh=-45 dv=0 dx=0 dy=0 dh=0 dv=0
PairPos2: "'kern' Horizontal Kerning in Latin lookup 0 per glyph data 1" parenright dx=0 dy=0 dh=-95 dv=0 dx=0 dy=0 dh=0 dv=0
EndChar

StartChar: nine
Encoding: 57 57 28
Width: 1282
GlyphClass: 2
Flags: W
LayerCount: 2
Fore
SplineSet
301 -103 m 1,0,1
 284 -125 284 -125 284 -146 c 128,-1,2
 284 -167 284 -167 298.5 -181 c 128,-1,3
 313 -195 313 -195 336 -205 c 128,-1,4
 359 -215 359 -215 387.5 -221 c 128,-1,5
 416 -227 416 -227 444 -230 c 0,6,7
 489 -235 489 -235 555.5 -235 c 128,-1,8
 622 -235 622 -235 690.5 -208 c 128,-1,9
 759 -181 759 -181 809.5 -135 c 128,-1,10
 860 -89 860 -89 894 -26.5 c 128,-1,11
 928 36 928 36 948 107 c 0,12,13
 985 232 985 232 987 405 c 1,14,15
 822 248 822 248 637 180 c 0,16,17
 571 155 571 155 503 155 c 128,-1,18
 435 155 435 155 358 189 c 128,-1,19
 281 223 281 223 220 280 c 0,20,21
 84 407 84 407 84 565 c 0,22,23
 84 701 84 701 189 840 c 0,24,25
 286 968 286 968 434 1052 c 0,26,27
 586 1138 586 1138 711.5 1138 c 128,-1,28
 837 1138 837 1138 925 1089 c 128,-1,29
 1013 1040 1013 1040 1071 960 c 0,30,31
 1187 800 1187 800 1187 565 c 0,32,33
 1187 295 1187 295 1056 70 c 1,34,35
 980 -63 980 -63 820 -184 c 0,36,37
 580 -366 580 -366 335.5 -366 c 128,-1,38
 91 -366 91 -366 91 -284 c 0,39,40
 91 -261 91 -261 112 -232 c 1,41,42
 261 -149 261 -149 301 -103 c 1,0,1
970 620 m 0,43,44
 970 690 970 690 931.5 764.5 c 128,-1,45
 893 839 893 839 830 892 c 1,46,47
 697 1001 697 1001 518 1001 c 0,48,49
 323 1001 323 1001 291 828 c 0,50,51
 281 774 281 774 281 715 c 128,-1,52
 281 656 281 656 298 604 c 128,-1,53
 315 552 315 552 345 505.5 c 128,-1,54
 375 459 375 459 416.5 420 c 128,-1,55
 458 381 458 381 506 352 c 0,56,57
 606 292 606 292 711 292 c 0,58,59
 812 292 812 292 894 396 c 0,60,61
 970 492 970 492 970 620 c 0,43,44
EndSplineSet
PairPos2: "'kern' Horizontal Kerning in Latin lookup 0 per glyph data 1" fraction dx=0 dy=0 dh=-28 dv=0 dx=0 dy=0 dh=0 dv=0
PairPos2: "'kern' Horizontal Kerning in Latin lookup 0 per glyph data 1" Ygrave dx=0 dy=0 dh=-82 dv=0 dx=0 dy=0 dh=0 dv=0
PairPos2: "'kern' Horizontal Kerning in Latin lookup 0 per glyph data 1" Wdieresis dx=0 dy=0 dh=-70 dv=0 dx=0 dy=0 dh=0 dv=0
PairPos2: "'kern' Horizontal Kerning in Latin lookup 0 per glyph data 1" Wacute dx=0 dy=0 dh=-70 dv=0 dx=0 dy=0 dh=0 dv=0
PairPos2: "'kern' Horizontal Kerning in Latin lookup 0 per glyph data 1" Wgrave dx=0 dy=0 dh=-70 dv=0 dx=0 dy=0 dh=0 dv=0
PairPos2: "'kern' Horizontal Kerning in Latin lookup 0 per glyph data 1" Ydieresis dx=0 dy=0 dh=-82 dv=0 dx=0 dy=0 dh=0 dv=0
PairPos2: "'kern' Horizontal Kerning in Latin lookup 0 per glyph data 1" Ycircumflex dx=0 dy=0 dh=-82 dv=0 dx=0 dy=0 dh=0 dv=0
PairPos2: "'kern' Horizontal Kerning in Latin lookup 0 per glyph data 1" Wcircumflex dx=0 dy=0 dh=-70 dv=0 dx=0 dy=0 dh=0 dv=0
PairPos2: "'kern' Horizontal Kerning in Latin lookup 0 per glyph data 1" Tbar dx=0 dy=0 dh=-110 dv=0 dx=0 dy=0 dh=0 dv=0
PairPos2: "'kern' Horizontal Kerning in Latin lookup 0 per glyph data 1" Tcaron dx=0 dy=0 dh=-110 dv=0 dx=0 dy=0 dh=0 dv=0
PairPos2: "'kern' Horizontal Kerning in Latin lookup 0 per glyph data 1" Tcommaaccent dx=0 dy=0 dh=-110 dv=0 dx=0 dy=0 dh=0 dv=0
PairPos2: "'kern' Horizontal Kerning in Latin lookup 0 per glyph data 1" Yacute dx=0 dy=0 dh=-82 dv=0 dx=0 dy=0 dh=0 dv=0
PairPos2: "'kern' Horizontal Kerning in Latin lookup 0 per glyph data 1" braceright dx=0 dy=0 dh=-88 dv=0 dx=0 dy=0 dh=0 dv=0
PairPos2: "'kern' Horizontal Kerning in Latin lookup 0 per glyph data 1" bracketright dx=0 dy=0 dh=-63 dv=0 dx=0 dy=0 dh=0 dv=0
PairPos2: "'kern' Horizontal Kerning in Latin lookup 0 per glyph data 1" backslash dx=0 dy=0 dh=-33 dv=0 dx=0 dy=0 dh=0 dv=0
PairPos2: "'kern' Horizontal Kerning in Latin lookup 0 per glyph data 1" Y dx=0 dy=0 dh=-82 dv=0 dx=0 dy=0 dh=0 dv=0
PairPos2: "'kern' Horizontal Kerning in Latin lookup 0 per glyph data 1" W dx=0 dy=0 dh=-70 dv=0 dx=0 dy=0 dh=0 dv=0
PairPos2: "'kern' Horizontal Kerning in Latin lookup 0 per glyph data 1" V dx=0 dy=0 dh=-75 dv=0 dx=0 dy=0 dh=0 dv=0
PairPos2: "'kern' Horizontal Kerning in Latin lookup 0 per glyph data 1" T dx=0 dy=0 dh=-110 dv=0 dx=0 dy=0 dh=0 dv=0
PairPos2: "'kern' Horizontal Kerning in Latin lookup 0 per glyph data 1" three dx=0 dy=0 dh=-35 dv=0 dx=0 dy=0 dh=0 dv=0
PairPos2: "'kern' Horizontal Kerning in Latin lookup 0 per glyph data 1" parenright dx=0 dy=0 dh=-116 dv=0 dx=0 dy=0 dh=0 dv=0
EndChar

StartChar: colon
Encoding: 58 58 29
Width: 553
GlyphClass: 2
Flags: W
LayerCount: 2
Fore
SplineSet
428 746 m 1,0,-1
 234 610 l 1,1,-1
 129 777 l 1,2,-1
 323 913 l 1,3,-1
 428 746 l 1,0,-1
428 106 m 1,4,-1
 234 -30 l 1,5,-1
 129 137 l 1,6,-1
 323 273 l 1,7,-1
 428 106 l 1,4,-1
EndSplineSet
PairPos2: "'kern' Horizontal Kerning in Latin lookup 0 per glyph data 1" Ygrave dx=0 dy=0 dh=-102 dv=0 dx=0 dy=0 dh=0 dv=0
PairPos2: "'kern' Horizontal Kerning in Latin lookup 0 per glyph data 1" Wdieresis dx=0 dy=0 dh=-87 dv=0 dx=0 dy=0 dh=0 dv=0
PairPos2: "'kern' Horizontal Kerning in Latin lookup 0 per glyph data 1" Wacute dx=0 dy=0 dh=-87 dv=0 dx=0 dy=0 dh=0 dv=0
PairPos2: "'kern' Horizontal Kerning in Latin lookup 0 per glyph data 1" Wgrave dx=0 dy=0 dh=-87 dv=0 dx=0 dy=0 dh=0 dv=0
PairPos2: "'kern' Horizontal Kerning in Latin lookup 0 per glyph data 1" Ydieresis dx=0 dy=0 dh=-102 dv=0 dx=0 dy=0 dh=0 dv=0
PairPos2: "'kern' Horizontal Kerning in Latin lookup 0 per glyph data 1" Ycircumflex dx=0 dy=0 dh=-102 dv=0 dx=0 dy=0 dh=0 dv=0
PairPos2: "'kern' Horizontal Kerning in Latin lookup 0 per glyph data 1" Wcircumflex dx=0 dy=0 dh=-87 dv=0 dx=0 dy=0 dh=0 dv=0
PairPos2: "'kern' Horizontal Kerning in Latin lookup 0 per glyph data 1" Uogonek dx=0 dy=0 dh=-20 dv=0 dx=0 dy=0 dh=0 dv=0
PairPos2: "'kern' Horizontal Kerning in Latin lookup 0 per glyph data 1" Uhungarumlaut dx=0 dy=0 dh=-20 dv=0 dx=0 dy=0 dh=0 dv=0
PairPos2: "'kern' Horizontal Kerning in Latin lookup 0 per glyph data 1" Uring dx=0 dy=0 dh=-20 dv=0 dx=0 dy=0 dh=0 dv=0
PairPos2: "'kern' Horizontal Kerning in Latin lookup 0 per glyph data 1" Ubreve dx=0 dy=0 dh=-20 dv=0 dx=0 dy=0 dh=0 dv=0
PairPos2: "'kern' Horizontal Kerning in Latin lookup 0 per glyph data 1" Umacron dx=0 dy=0 dh=-20 dv=0 dx=0 dy=0 dh=0 dv=0
PairPos2: "'kern' Horizontal Kerning in Latin lookup 0 per glyph data 1" Utilde dx=0 dy=0 dh=-20 dv=0 dx=0 dy=0 dh=0 dv=0
PairPos2: "'kern' Horizontal Kerning in Latin lookup 0 per glyph data 1" Tbar dx=0 dy=0 dh=-127 dv=0 dx=0 dy=0 dh=0 dv=0
PairPos2: "'kern' Horizontal Kerning in Latin lookup 0 per glyph data 1" Tcaron dx=0 dy=0 dh=-127 dv=0 dx=0 dy=0 dh=0 dv=0
PairPos2: "'kern' Horizontal Kerning in Latin lookup 0 per glyph data 1" Tcommaaccent dx=0 dy=0 dh=-127 dv=0 dx=0 dy=0 dh=0 dv=0
PairPos2: "'kern' Horizontal Kerning in Latin lookup 0 per glyph data 1" Rcaron dx=0 dy=0 dh=-16 dv=0 dx=0 dy=0 dh=0 dv=0
PairPos2: "'kern' Horizontal Kerning in Latin lookup 0 per glyph data 1" Rcommaaccent dx=0 dy=0 dh=-16 dv=0 dx=0 dy=0 dh=0 dv=0
PairPos2: "'kern' Horizontal Kerning in Latin lookup 0 per glyph data 1" Racute dx=0 dy=0 dh=-16 dv=0 dx=0 dy=0 dh=0 dv=0
PairPos2: "'kern' Horizontal Kerning in Latin lookup 0 per glyph data 1" Eng dx=0 dy=0 dh=-19 dv=0 dx=0 dy=0 dh=0 dv=0
PairPos2: "'kern' Horizontal Kerning in Latin lookup 0 per glyph data 1" Ncaron dx=0 dy=0 dh=-19 dv=0 dx=0 dy=0 dh=0 dv=0
PairPos2: "'kern' Horizontal Kerning in Latin lookup 0 per glyph data 1" Ncommaaccent dx=0 dy=0 dh=-19 dv=0 dx=0 dy=0 dh=0 dv=0
PairPos2: "'kern' Horizontal Kerning in Latin lookup 0 per glyph data 1" Nacute dx=0 dy=0 dh=-19 dv=0 dx=0 dy=0 dh=0 dv=0
PairPos2: "'kern' Horizontal Kerning in Latin lookup 0 per glyph data 1" Jcircumflex dx=0 dy=0 dh=-20 dv=0 dx=0 dy=0 dh=0 dv=0
PairPos2: "'kern' Horizontal Kerning in Latin lookup 0 per glyph data 1" Dcroat dx=0 dy=0 dh=-16 dv=0 dx=0 dy=0 dh=0 dv=0
PairPos2: "'kern' Horizontal Kerning in Latin lookup 0 per glyph data 1" Dcaron dx=0 dy=0 dh=-16 dv=0 dx=0 dy=0 dh=0 dv=0
PairPos2: "'kern' Horizontal Kerning in Latin lookup 0 per glyph data 1" Yacute dx=0 dy=0 dh=-102 dv=0 dx=0 dy=0 dh=0 dv=0
PairPos2: "'kern' Horizontal Kerning in Latin lookup 0 per glyph data 1" Udieresis dx=0 dy=0 dh=-20 dv=0 dx=0 dy=0 dh=0 dv=0
PairPos2: "'kern' Horizontal Kerning in Latin lookup 0 per glyph data 1" Ucircumflex dx=0 dy=0 dh=-20 dv=0 dx=0 dy=0 dh=0 dv=0
PairPos2: "'kern' Horizontal Kerning in Latin lookup 0 per glyph data 1" Uacute dx=0 dy=0 dh=-20 dv=0 dx=0 dy=0 dh=0 dv=0
PairPos2: "'kern' Horizontal Kerning in Latin lookup 0 per glyph data 1" Ugrave dx=0 dy=0 dh=-20 dv=0 dx=0 dy=0 dh=0 dv=0
PairPos2: "'kern' Horizontal Kerning in Latin lookup 0 per glyph data 1" Ntilde dx=0 dy=0 dh=-19 dv=0 dx=0 dy=0 dh=0 dv=0
PairPos2: "'kern' Horizontal Kerning in Latin lookup 0 per glyph data 1" Eth dx=0 dy=0 dh=-16 dv=0 dx=0 dy=0 dh=0 dv=0
PairPos2: "'kern' Horizontal Kerning in Latin lookup 0 per glyph data 1" Y dx=0 dy=0 dh=-102 dv=0 dx=0 dy=0 dh=0 dv=0
PairPos2: "'kern' Horizontal Kerning in Latin lookup 0 per glyph data 1" W dx=0 dy=0 dh=-87 dv=0 dx=0 dy=0 dh=0 dv=0
PairPos2: "'kern' Horizontal Kerning in Latin lookup 0 per glyph data 1" V dx=0 dy=0 dh=-93 dv=0 dx=0 dy=0 dh=0 dv=0
PairPos2: "'kern' Horizontal Kerning in Latin lookup 0 per glyph data 1" U dx=0 dy=0 dh=-20 dv=0 dx=0 dy=0 dh=0 dv=0
PairPos2: "'kern' Horizontal Kerning in Latin lookup 0 per glyph data 1" T dx=0 dy=0 dh=-127 dv=0 dx=0 dy=0 dh=0 dv=0
PairPos2: "'kern' Horizontal Kerning in Latin lookup 0 per glyph data 1" R dx=0 dy=0 dh=-16 dv=0 dx=0 dy=0 dh=0 dv=0
PairPos2: "'kern' Horizontal Kerning in Latin lookup 0 per glyph data 1" N dx=0 dy=0 dh=-19 dv=0 dx=0 dy=0 dh=0 dv=0
PairPos2: "'kern' Horizontal Kerning in Latin lookup 0 per glyph data 1" J dx=0 dy=0 dh=-20 dv=0 dx=0 dy=0 dh=0 dv=0
PairPos2: "'kern' Horizontal Kerning in Latin lookup 0 per glyph data 1" D dx=0 dy=0 dh=-16 dv=0 dx=0 dy=0 dh=0 dv=0
PairPos2: "'kern' Horizontal Kerning in Latin lookup 0 per glyph data 1" B dx=0 dy=0 dh=-16 dv=0 dx=0 dy=0 dh=0 dv=0
EndChar

StartChar: semicolon
Encoding: 59 59 30
Width: 558
GlyphClass: 2
Flags: W
LayerCount: 2
Fore
SplineSet
428 746 m 1,0,-1
 234 610 l 1,1,-1
 129 777 l 1,2,-1
 323 913 l 1,3,-1
 428 746 l 1,0,-1
333 -68 m 0,4,5
 333 -2 333 -2 291 -2 c 0,6,7
 278 -2 278 -2 262 -12 c 2,8,-1
 234 -30 l 1,9,-1
 129 137 l 1,10,-1
 323 273 l 1,11,12
 347 235 347 235 366 204 c 0,13,14
 415 125 415 125 423.5 94 c 128,-1,15
 432 63 432 63 432 11 c 128,-1,16
 432 -41 432 -41 403 -105 c 128,-1,17
 374 -169 374 -169 339.5 -202.5 c 128,-1,18
 305 -236 305 -236 278 -248.5 c 128,-1,19
 251 -261 251 -261 231 -280 c 1,20,21
 333 -178 333 -178 333 -68 c 0,4,5
EndSplineSet
PairPos2: "'kern' Horizontal Kerning in Latin lookup 0 per glyph data 1" Ygrave dx=0 dy=0 dh=-102 dv=0 dx=0 dy=0 dh=0 dv=0
PairPos2: "'kern' Horizontal Kerning in Latin lookup 0 per glyph data 1" Wdieresis dx=0 dy=0 dh=-87 dv=0 dx=0 dy=0 dh=0 dv=0
PairPos2: "'kern' Horizontal Kerning in Latin lookup 0 per glyph data 1" Wacute dx=0 dy=0 dh=-87 dv=0 dx=0 dy=0 dh=0 dv=0
PairPos2: "'kern' Horizontal Kerning in Latin lookup 0 per glyph data 1" Wgrave dx=0 dy=0 dh=-87 dv=0 dx=0 dy=0 dh=0 dv=0
PairPos2: "'kern' Horizontal Kerning in Latin lookup 0 per glyph data 1" Ydieresis dx=0 dy=0 dh=-102 dv=0 dx=0 dy=0 dh=0 dv=0
PairPos2: "'kern' Horizontal Kerning in Latin lookup 0 per glyph data 1" Ycircumflex dx=0 dy=0 dh=-102 dv=0 dx=0 dy=0 dh=0 dv=0
PairPos2: "'kern' Horizontal Kerning in Latin lookup 0 per glyph data 1" Wcircumflex dx=0 dy=0 dh=-87 dv=0 dx=0 dy=0 dh=0 dv=0
PairPos2: "'kern' Horizontal Kerning in Latin lookup 0 per glyph data 1" Uogonek dx=0 dy=0 dh=-20 dv=0 dx=0 dy=0 dh=0 dv=0
PairPos2: "'kern' Horizontal Kerning in Latin lookup 0 per glyph data 1" Uhungarumlaut dx=0 dy=0 dh=-20 dv=0 dx=0 dy=0 dh=0 dv=0
PairPos2: "'kern' Horizontal Kerning in Latin lookup 0 per glyph data 1" Uring dx=0 dy=0 dh=-20 dv=0 dx=0 dy=0 dh=0 dv=0
PairPos2: "'kern' Horizontal Kerning in Latin lookup 0 per glyph data 1" Ubreve dx=0 dy=0 dh=-20 dv=0 dx=0 dy=0 dh=0 dv=0
PairPos2: "'kern' Horizontal Kerning in Latin lookup 0 per glyph data 1" Umacron dx=0 dy=0 dh=-20 dv=0 dx=0 dy=0 dh=0 dv=0
PairPos2: "'kern' Horizontal Kerning in Latin lookup 0 per glyph data 1" Utilde dx=0 dy=0 dh=-20 dv=0 dx=0 dy=0 dh=0 dv=0
PairPos2: "'kern' Horizontal Kerning in Latin lookup 0 per glyph data 1" Tbar dx=0 dy=0 dh=-127 dv=0 dx=0 dy=0 dh=0 dv=0
PairPos2: "'kern' Horizontal Kerning in Latin lookup 0 per glyph data 1" Tcaron dx=0 dy=0 dh=-127 dv=0 dx=0 dy=0 dh=0 dv=0
PairPos2: "'kern' Horizontal Kerning in Latin lookup 0 per glyph data 1" Tcommaaccent dx=0 dy=0 dh=-127 dv=0 dx=0 dy=0 dh=0 dv=0
PairPos2: "'kern' Horizontal Kerning in Latin lookup 0 per glyph data 1" Rcaron dx=0 dy=0 dh=-16 dv=0 dx=0 dy=0 dh=0 dv=0
PairPos2: "'kern' Horizontal Kerning in Latin lookup 0 per glyph data 1" Rcommaaccent dx=0 dy=0 dh=-16 dv=0 dx=0 dy=0 dh=0 dv=0
PairPos2: "'kern' Horizontal Kerning in Latin lookup 0 per glyph data 1" Racute dx=0 dy=0 dh=-16 dv=0 dx=0 dy=0 dh=0 dv=0
PairPos2: "'kern' Horizontal Kerning in Latin lookup 0 per glyph data 1" Eng dx=0 dy=0 dh=-19 dv=0 dx=0 dy=0 dh=0 dv=0
PairPos2: "'kern' Horizontal Kerning in Latin lookup 0 per glyph data 1" Ncaron dx=0 dy=0 dh=-19 dv=0 dx=0 dy=0 dh=0 dv=0
PairPos2: "'kern' Horizontal Kerning in Latin lookup 0 per glyph data 1" Ncommaaccent dx=0 dy=0 dh=-19 dv=0 dx=0 dy=0 dh=0 dv=0
PairPos2: "'kern' Horizontal Kerning in Latin lookup 0 per glyph data 1" Nacute dx=0 dy=0 dh=-19 dv=0 dx=0 dy=0 dh=0 dv=0
PairPos2: "'kern' Horizontal Kerning in Latin lookup 0 per glyph data 1" Jcircumflex dx=0 dy=0 dh=70 dv=0 dx=0 dy=0 dh=0 dv=0
PairPos2: "'kern' Horizontal Kerning in Latin lookup 0 per glyph data 1" Dcroat dx=0 dy=0 dh=-16 dv=0 dx=0 dy=0 dh=0 dv=0
PairPos2: "'kern' Horizontal Kerning in Latin lookup 0 per glyph data 1" Dcaron dx=0 dy=0 dh=-16 dv=0 dx=0 dy=0 dh=0 dv=0
PairPos2: "'kern' Horizontal Kerning in Latin lookup 0 per glyph data 1" Yacute dx=0 dy=0 dh=-102 dv=0 dx=0 dy=0 dh=0 dv=0
PairPos2: "'kern' Horizontal Kerning in Latin lookup 0 per glyph data 1" Udieresis dx=0 dy=0 dh=-20 dv=0 dx=0 dy=0 dh=0 dv=0
PairPos2: "'kern' Horizontal Kerning in Latin lookup 0 per glyph data 1" Ucircumflex dx=0 dy=0 dh=-20 dv=0 dx=0 dy=0 dh=0 dv=0
PairPos2: "'kern' Horizontal Kerning in Latin lookup 0 per glyph data 1" Uacute dx=0 dy=0 dh=-20 dv=0 dx=0 dy=0 dh=0 dv=0
PairPos2: "'kern' Horizontal Kerning in Latin lookup 0 per glyph data 1" Ugrave dx=0 dy=0 dh=-20 dv=0 dx=0 dy=0 dh=0 dv=0
PairPos2: "'kern' Horizontal Kerning in Latin lookup 0 per glyph data 1" Ntilde dx=0 dy=0 dh=-19 dv=0 dx=0 dy=0 dh=0 dv=0
PairPos2: "'kern' Horizontal Kerning in Latin lookup 0 per glyph data 1" Eth dx=0 dy=0 dh=-16 dv=0 dx=0 dy=0 dh=0 dv=0
PairPos2: "'kern' Horizontal Kerning in Latin lookup 0 per glyph data 1" Y dx=0 dy=0 dh=-102 dv=0 dx=0 dy=0 dh=0 dv=0
PairPos2: "'kern' Horizontal Kerning in Latin lookup 0 per glyph data 1" W dx=0 dy=0 dh=-87 dv=0 dx=0 dy=0 dh=0 dv=0
PairPos2: "'kern' Horizontal Kerning in Latin lookup 0 per glyph data 1" V dx=0 dy=0 dh=-93 dv=0 dx=0 dy=0 dh=0 dv=0
PairPos2: "'kern' Horizontal Kerning in Latin lookup 0 per glyph data 1" U dx=0 dy=0 dh=-20 dv=0 dx=0 dy=0 dh=0 dv=0
PairPos2: "'kern' Horizontal Kerning in Latin lookup 0 per glyph data 1" T dx=0 dy=0 dh=-127 dv=0 dx=0 dy=0 dh=0 dv=0
PairPos2: "'kern' Horizontal Kerning in Latin lookup 0 per glyph data 1" R dx=0 dy=0 dh=-16 dv=0 dx=0 dy=0 dh=0 dv=0
PairPos2: "'kern' Horizontal Kerning in Latin lookup 0 per glyph data 1" N dx=0 dy=0 dh=-19 dv=0 dx=0 dy=0 dh=0 dv=0
PairPos2: "'kern' Horizontal Kerning in Latin lookup 0 per glyph data 1" J dx=0 dy=0 dh=70 dv=0 dx=0 dy=0 dh=0 dv=0
PairPos2: "'kern' Horizontal Kerning in Latin lookup 0 per glyph data 1" D dx=0 dy=0 dh=-16 dv=0 dx=0 dy=0 dh=0 dv=0
PairPos2: "'kern' Horizontal Kerning in Latin lookup 0 per glyph data 1" B dx=0 dy=0 dh=-16 dv=0 dx=0 dy=0 dh=0 dv=0
EndChar

StartChar: less
Encoding: 60 60 31
Width: 910
GlyphClass: 2
Flags: W
LayerCount: 2
Fore
SplineSet
820 136 m 1,0,1
 797 124 797 124 764 100 c 2,2,-1
 715 63 l 2,3,4
 678 35 678 35 656 17 c 128,-1,5
 634 -1 634 -1 630.5 -1 c 128,-1,6
 627 -1 627 -1 590.5 22 c 128,-1,7
 554 45 554 45 483 101 c 128,-1,8
 412 157 412 157 342 217 c 0,9,10
 150 380 150 380 58 446 c 1,11,12
 110 470 110 470 248 581 c 1,13,14
 375 655 375 655 436 705 c 0,15,16
 549 799 549 799 626 911 c 0,17,18
 648 944 648 944 702 973 c 128,-1,19
 756 1002 756 1002 782 1016.5 c 128,-1,20
 808 1031 808 1031 820 1047 c 1,21,22
 706 855 706 855 425 666 c 0,23,24
 347 613 347 613 274 567 c 1,25,26
 417 465 417 465 556 361.5 c 128,-1,27
 695 258 695 258 820 136 c 1,0,1
EndSplineSet
EndChar

StartChar: equal
Encoding: 61 61 32
Width: 1222
GlyphClass: 2
Flags: W
LayerCount: 2
Fore
SplineSet
1061 753 m 1,0,1
 1049 752 1049 752 995.5 705.5 c 128,-1,2
 942 659 942 659 913.5 638 c 128,-1,3
 885 617 885 617 867 617 c 2,4,-1
 165 617 l 1,5,6
 177 618 177 618 230.5 664.5 c 128,-1,7
 284 711 284 711 312.5 732 c 128,-1,8
 341 753 341 753 359 753 c 2,9,-1
 1061 753 l 1,0,1
1061 477 m 1,10,11
 1049 476 1049 476 995.5 429.5 c 128,-1,12
 942 383 942 383 913.5 362 c 128,-1,13
 885 341 885 341 867 341 c 2,14,-1
 165 341 l 1,15,16
 177 342 177 342 230.5 388.5 c 128,-1,17
 284 435 284 435 312.5 456 c 128,-1,18
 341 477 341 477 359 477 c 2,19,-1
 1061 477 l 1,10,11
EndSplineSet
EndChar

StartChar: greater
Encoding: 62 62 33
Width: 916
GlyphClass: 2
Flags: W
LayerCount: 2
Fore
SplineSet
858 601 m 1,0,1
 790 567 790 567 668 466 c 1,2,3
 541 392 541 392 480 342 c 0,4,5
 372 252 372 252 290 136 c 0,6,7
 265 101 265 101 213 73 c 0,8,9
 112 19 112 19 96 0 c 1,10,11
 211 194 211 194 491 381 c 0,12,13
 569 433 569 433 642 480 c 1,14,15
 499 581 499 581 360.5 685 c 128,-1,16
 222 789 222 789 96 911 c 1,17,18
 133 926 133 926 207.5 987 c 128,-1,19
 282 1048 282 1048 285 1048 c 128,-1,20
 288 1048 288 1048 325 1025 c 128,-1,21
 362 1002 362 1002 433 945.5 c 128,-1,22
 504 889 504 889 574 830 c 0,23,24
 772 663 772 663 858 601 c 1,0,1
EndSplineSet
EndChar

StartChar: question
Encoding: 63 63 34
Width: 1042
GlyphClass: 2
Flags: W
LayerCount: 2
Fore
SplineSet
267 1105 m 0,0,1
 267 1037 267 1037 305 967 c 1,2,-1
 110 831 l 1,3,4
 73 902 73 902 73 977 c 0,5,6
 73 1121 73 1121 183 1231 c 0,7,8
 345 1393 345 1393 524 1452 c 0,9,10
 589 1474 589 1474 655 1474 c 128,-1,11
 721 1474 721 1474 779.5 1448.5 c 128,-1,12
 838 1423 838 1423 880 1378 c 1,13,14
 971 1284 971 1284 971 1149 c 0,15,16
 971 1007 971 1007 850 882 c 0,17,18
 816 847 816 847 780 813.5 c 128,-1,19
 744 780 744 780 710 747.5 c 128,-1,20
 676 715 676 715 649 680 c 0,21,22
 589 601 589 601 589 517 c 1,23,-1
 597 460 l 1,24,25
 597 435 597 435 499.5 385 c 128,-1,26
 402 335 402 335 402 324 c 1,27,28
 395 351 395 351 395 393 c 128,-1,29
 395 435 395 435 416.5 480.5 c 128,-1,30
 438 526 438 526 471 565.5 c 128,-1,31
 504 605 504 605 543 640 c 128,-1,32
 582 675 582 675 616 707 c 128,-1,33
 650 739 650 739 680 777 c 128,-1,34
 710 815 710 815 732 858 c 0,35,36
 782 951 782 951 782 1029.5 c 128,-1,37
 782 1108 782 1108 753.5 1163.5 c 128,-1,38
 725 1219 725 1219 678 1258 c 0,39,40
 581 1337 581 1337 446 1337 c 0,41,42
 377 1337 377 1337 324 1280 c 0,43,44
 267 1218 267 1218 267 1105 c 0,0,1
659 106 m 1,45,-1
 465 -30 l 1,46,-1
 360 137 l 1,47,-1
 555 273 l 1,48,-1
 659 106 l 1,45,-1
EndSplineSet
EndChar

StartChar: at
Encoding: 64 64 35
Width: 1520
GlyphClass: 2
Flags: W
LayerCount: 2
Fore
SplineSet
929 790 m 0,0,1
 994 790 994 790 1041 743 c 1,2,3
 1053 752 1053 752 1090 773 c 0,4,5
 1157 811 1157 811 1162 821 c 1,6,7
 1149 753 1149 753 1131.5 685.5 c 128,-1,8
 1114 618 1114 618 1098 550 c 0,9,10
 1061 385 1061 385 1061 276 c 0,11,12
 1061 240 1061 240 1080 220 c 128,-1,13
 1099 200 1099 200 1135 202 c 1,14,15
 1248 393 1248 393 1248 601 c 0,16,17
 1248 777 1248 777 1142 889 c 0,18,19
 1032 1005 1032 1005 860 1005 c 0,20,21
 627 1005 627 1005 458 812 c 0,22,23
 358 697 358 697 319 546 c 0,24,25
 300 472 300 472 300 388 c 128,-1,26
 300 304 300 304 324 213 c 128,-1,27
 348 122 348 122 398 50 c 1,28,29
 511 -108 511 -108 709 -114 c 1,30,31
 695 -118 695 -118 666 -142.5 c 128,-1,32
 637 -167 637 -167 617 -184 c 128,-1,33
 597 -201 597 -201 578 -216 c 0,34,35
 537 -250 537 -250 514 -250 c 0,36,37
 325 -250 325 -250 208 -90 c 0,38,39
 102 54 102 54 102 250 c 0,40,41
 102 595 102 595 383 832 c 0,42,43
 573 992 573 992 794 1082 c 0,44,45
 954 1148 954 1148 1059 1148 c 128,-1,46
 1164 1148 1164 1148 1233 1112 c 128,-1,47
 1302 1076 1302 1076 1348 1016 c 0,48,49
 1443 894 1443 894 1443 719 c 0,50,51
 1443 596 1443 596 1373 442 c 0,52,53
 1258 191 1258 191 1076 97 c 0,54,55
 1013 65 1013 65 947 65 c 0,56,57
 857 65 857 65 868 182 c 1,58,59
 736 83 736 83 639.5 83 c 128,-1,60
 543 83 543 83 485.5 140 c 128,-1,61
 428 197 428 197 428 298 c 0,62,63
 428 414 428 414 504 531 c 0,64,65
 576 643 576 643 689 715 c 0,66,67
 807 790 807 790 929 790 c 0,0,1
758 651 m 1,68,69
 656 657 656 657 631 510 c 0,70,71
 625 474 625 474 625 440 c 0,72,73
 625 334 625 334 681 277.5 c 128,-1,74
 737 221 737 221 841 221 c 0,75,76
 867 221 867 221 890 304 c 0,77,78
 909 374 909 374 909 413 c 0,79,80
 909 508 909 508 874 576 c 128,-1,81
 839 644 839 644 758 651 c 1,68,69
EndSplineSet
EndChar

StartChar: A
Encoding: 65 65 36
Width: 1403
GlyphClass: 2
Flags: W
LayerCount: 2
Fore
SplineSet
162 135 m 0,0,1
 169 136 169 136 242 136 c 0,2,3
 367 136 367 136 426.5 155 c 128,-1,4
 486 174 486 174 512 190 c 1,5,6
 475 162 475 162 444 138 c 0,7,8
 377 86 377 86 336.5 63 c 128,-1,9
 296 40 296 40 256 27.5 c 128,-1,10
 216 15 216 15 174 9 c 0,11,12
 112 0 112 0 5 0 c 2,13,-1
 -34 0 l 1,14,15
 -33 1 -33 1 -32.5 2 c 128,-1,16
 -32 3 -32 3 -18.5 18 c 128,-1,17
 -5 33 -5 33 21 61.5 c 128,-1,18
 47 90 47 90 90 147 c 128,-1,19
 133 204 133 204 183.5 294 c 128,-1,20
 234 384 234 384 277.5 477.5 c 128,-1,21
 321 571 321 571 361 667 c 128,-1,22
 401 763 401 763 443.5 859.5 c 128,-1,23
 486 956 486 956 530 1054.5 c 128,-1,24
 574 1153 574 1153 596.5 1209 c 128,-1,25
 619 1265 619 1265 622.5 1279 c 128,-1,26
 626 1293 626 1293 634 1303 c 1,27,-1
 558 1303 l 2,28,29
 372 1303 372 1303 269 1261 c 1,30,31
 407 1381 407 1381 500 1412 c 1,32,33
 585 1439 585 1439 776 1439 c 2,34,-1
 829 1439 l 1,35,36
 872 1296 872 1296 915.5 1149 c 128,-1,37
 959 1002 959 1002 1003 855 c 0,38,39
 1099 535 1099 535 1147.5 391 c 128,-1,40
 1196 247 1196 247 1204.5 219.5 c 128,-1,41
 1213 192 1213 192 1226 170 c 0,42,43
 1255 122 1255 122 1319 122 c 0,44,45
 1354 122 1354 122 1392.5 138 c 128,-1,46
 1431 154 1431 154 1452 167 c 1,47,48
 1416 140 1416 140 1388 118 c 0,49,50
 1316 63 1316 63 1296 50.5 c 128,-1,51
 1276 38 1276 38 1256 26 c 128,-1,52
 1236 14 1236 14 1214 4 c 0,53,54
 1074 -58 1074 -58 1025 51 c 0,55,56
 990 128 990 128 941 297.5 c 128,-1,57
 892 467 892 467 854 586 c 1,58,59
 770 526 770 526 488 530 c 0,60,61
 452 530 452 530 426 530 c 1,62,63
 313 304 313 304 206 185 c 0,64,65
 197 175 197 175 188 164 c 0,66,67
 162 134 162 134 162 135 c 0,0,1
504 669 m 2,68,-1
 702 665 l 1,69,70
 764 665 764 665 828 669 c 1,71,72
 782 815 782 815 691 1116 c 1,73,74
 592 889 592 889 490 666 c 1,75,76
 502 669 502 669 504 669 c 2,68,-1
EndSplineSet
EndChar

